<svg xmlns="http://www.w3.org/2000/svg" width="16.75" height="19" viewBox="0 0 16.75 19"><defs><style>.a{fill:#1b57ed;stroke:#1b57ed;}</style></defs><g transform="translate(-848.137 -2026.228)"><path class="a" d="M4.669,0H2.081A2.022,2.022,0,0,0,0,1.952v14.1A2.022,2.022,0,0,0,2.081,18H4.669A2.022,2.022,0,0,0,6.75,16.048V1.952A2.022,2.022,0,0,0,4.669,0Z" transform="translate(848.637 2026.728)"/><path class="a" d="M4.669,0H2.081A2.022,2.022,0,0,0,0,1.952v14.1A2.022,2.022,0,0,0,2.081,18H4.669A2.022,2.022,0,0,0,6.75,16.048V1.952A2.022,2.022,0,0,0,4.669,0Z" transform="translate(857.636 2026.728)"/></g></svg>