<svg xmlns="http://www.w3.org/2000/svg" width="26" height="26" viewBox="0 0 26 26"><defs><style>.a{fill:none;}.b,.c{stroke:none;}.c{fill:#06f;}</style></defs><g class="a" transform="translate(26) rotate(90)"><path class="b" d="M11.211,3.578a2,2,0,0,1,3.578,0l9.764,19.528A2,2,0,0,1,22.764,26H3.236a2,2,0,0,1-1.789-2.894Z"/><path class="c" d="M 12.99999332427979 6.708200454711914 L 4.854099273681641 22.99999618530273 L 21.14589881896973 22.99999618530273 L 12.99999332427979 6.708200454711914 M 12.99999904632568 2.472129821777344 C 13.71016502380371 2.472129821777344 14.42033004760742 2.840656280517578 14.78884983062744 3.577705383300781 L 24.55278968811035 23.10557556152344 C 25.21768951416016 24.43537521362305 24.25069999694824 25.99999618530273 22.76392936706543 25.99999618530273 L 3.23607063293457 25.99999618530273 C 1.749300003051758 25.99999618530273 0.7823104858398438 24.43537521362305 1.447210311889648 23.10557556152344 L 11.21113967895508 3.577705383300781 C 11.579665184021 2.840656280517578 12.28983211517334 2.472129821777344 12.99999904632568 2.472129821777344 Z"/></g></svg>