<svg xmlns="http://www.w3.org/2000/svg" width="18" height="18" viewBox="0 0 18 18"><defs><style>.a{fill:#1b57ed;}</style></defs><g transform="translate(-1610.157 -92.218)"><g transform="translate(1610.157 92.218)"><path class="a" d="M1049.669,774.378a.708.708,0,0,1-.709-.708v-3.632a.621.621,0,0,0-.62-.62h-3.632a.709.709,0,0,1,0-1.417h3.632a2.04,2.04,0,0,1,2.037,2.037v3.632a.709.709,0,0,1-.709.708Zm0,0" transform="translate(-1032.378 -768)"/><path class="a" d="M768.708,774.378a.708.708,0,0,1-.708-.708v-3.632A2.04,2.04,0,0,1,770.037,768h3.632a.709.709,0,0,1,0,1.417h-3.632a.621.621,0,0,0-.62.62v3.632a.709.709,0,0,1-.709.708Zm0,0" transform="translate(-768 -768)"/><path class="a" d="M773.669,1050.378h-3.632A2.04,2.04,0,0,1,768,1048.34v-3.632a.709.709,0,0,1,1.417,0v3.632a.621.621,0,0,0,.62.62h3.632a.709.709,0,0,1,0,1.417Zm0,0" transform="translate(-768 -1032.378)"/><path class="a" d="M1048.34,1050.378h-3.632a.709.709,0,0,1,0-1.417h3.632a.621.621,0,0,0,.62-.62v-3.632a.709.709,0,0,1,1.417,0v3.632a2.04,2.04,0,0,1-2.037,2.037Zm0,0" transform="translate(-1032.378 -1032.378)"/><path class="a" d="M820.222,821.715h-2.728A1.5,1.5,0,0,1,816,820.222v-2.728A1.5,1.5,0,0,1,817.494,816h2.728a1.5,1.5,0,0,1,1.494,1.494v2.728a1.5,1.5,0,0,1-1.494,1.494Zm-2.728-4.676a.455.455,0,0,0-.455.455v2.728a.455.455,0,0,0,.455.454h2.728a.455.455,0,0,0,.455-.454v-2.728a.455.455,0,0,0-.455-.455Zm0,0" transform="translate(-813.35 -812.811)"/><path class="a" d="M820.222,977.715h-2.728A1.5,1.5,0,0,1,816,976.222v-2.728A1.5,1.5,0,0,1,817.494,972h2.728a1.5,1.5,0,0,1,1.494,1.494v2.728a1.5,1.5,0,0,1-1.494,1.494Zm-2.728-4.676a.455.455,0,0,0-.455.455v2.728a.455.455,0,0,0,.455.454h2.728a.455.455,0,0,0,.455-.454v-2.728a.455.455,0,0,0-.455-.455Zm0,0" transform="translate(-813.35 -962.66)"/><path class="a" d="M976.221,821.715h-2.728A1.5,1.5,0,0,1,972,820.222v-2.728A1.5,1.5,0,0,1,973.494,816h2.728a1.5,1.5,0,0,1,1.494,1.494v2.728a1.5,1.5,0,0,1-1.494,1.494Zm-2.728-4.676a.455.455,0,0,0-.455.455v2.728a.455.455,0,0,0,.455.454h2.728a.455.455,0,0,0,.455-.454v-2.728a.455.455,0,0,0-.455-.455Zm0,0" transform="translate(-962.904 -812.811)"/><path class="a" d="M976.871,974.6h-1.234v-1.754a.845.845,0,0,0-.844-.844h-1.948a.845.845,0,0,0-.844.844v1.948a.845.845,0,0,0,.844.844H974.6v1.234a.845.845,0,0,0,.844.844h1.429a.845.845,0,0,0,.844-.844v-1.429a.845.845,0,0,0-.844-.844Zm-3.832-1.559H974.6V974.6h-1.559Zm3.637,3.637h-1.039v-1.039h1.039Zm0,0" transform="translate(-962.904 -962.661)"/></g></g></svg>