<svg xmlns="http://www.w3.org/2000/svg" width="19.155" height="18.839" viewBox="0 0 19.155 18.839"><defs><style>.a{fill:#1b57ed;}</style></defs><path class="a" d="M715.109,572.78h-9.787A2.326,2.326,0,0,0,703,575.1v2.615a5.634,5.634,0,0,1,1.353-.073V575.1a.971.971,0,0,1,.969-.97h9.787a.971.971,0,0,1,.97.97V589.3a.971.971,0,0,1-.97.969h-9.787a.971.971,0,0,1-.969-.969v-.281a5.641,5.641,0,0,1-1.353-.072v.352a2.325,2.325,0,0,0,2.323,2.322h9.787a2.326,2.326,0,0,0,2.323-2.322V575.1A2.327,2.327,0,0,0,715.109,572.78Z" transform="translate(-698.278 -572.78)"/><path class="a" d="M662.3,630.832a5.708,5.708,0,0,0-5.217-4.609,5.631,5.631,0,0,0-1.353.073l-.1.018a5.7,5.7,0,0,0,.1,11.207,5.679,5.679,0,0,0,2.054-.019A5.7,5.7,0,0,0,662.3,630.832Zm-6.57-3.364c.039-.009.077-.017.116-.024a4.543,4.543,0,0,1,5.237,3.233l-4,.77-1.353.261-3.547.683A4.558,4.558,0,0,1,655.734,627.467Zm1.837,8.906a4.683,4.683,0,0,1-.483.066,4.513,4.513,0,0,1-1.353-.09,4.564,4.564,0,0,1-3.4-3.207l3.4-.655,1.353-.261,4.145-.8A4.554,4.554,0,0,1,657.57,636.373Z" transform="translate(-651.012 -621.357)"/><path class="a" d="M776.195,629.861h-4.716a.5.5,0,1,1,0-1h4.716a.5.5,0,1,1,0,1Z" transform="translate(-760.083 -623.768)"/><path class="a" d="M791.834,662.054h-3.154a.5.5,0,1,1,0-1h3.154a.5.5,0,0,1,0,1Z" transform="translate(-775.722 -653.037)"/></svg>