<svg xmlns="http://www.w3.org/2000/svg" width="24" height="18" viewBox="0 0 24 18"><defs><style>.a{fill:#1b57ed;}.b{fill:none;}</style></defs><path class="a" d="M267.286,346.939H263.8v-2.9a.568.568,0,0,0-.56-.574h-9.724a.568.568,0,0,0-.56.574v2.9h-3.367a3.2,3.2,0,0,0-3.154,3.234v8.054a3.2,3.2,0,0,0,3.154,3.234h17.693a3.2,3.2,0,0,0,3.154-3.234v-8.054A3.2,3.2,0,0,0,267.286,346.939Zm-13.205-2.331h8.6v2.331h-8.6Zm15.239,13.618a2.061,2.061,0,0,1-2.033,2.085H249.594a2.062,2.062,0,0,1-2.034-2.085v-8.054a2.062,2.062,0,0,1,2.034-2.085h17.693a2.062,2.062,0,0,1,2.033,2.085Z" transform="translate(-246.44 -343.46)"/><g transform="translate(6.973 5.684)"><path class="a" d="M358.769,431.073v3.034h-2.4a.3.3,0,0,0-.3.3v2.4h-3.034v-2.4a.3.3,0,0,0-.3-.3h-2.4v-3.034h2.4a.3.3,0,0,0,.3-.3v-2.4h3.034v2.4a.3.3,0,0,0,.3.3Z" transform="translate(-349.722 -427.762)"/><path class="b" d="M351.581,422.973h-2.4v-2.4a.3.3,0,0,0-.3-.3h-3.642a.3.3,0,0,0-.3.3v2.4h-2.4a.3.3,0,0,0-.3.3v3.642a.3.3,0,0,0,.3.3h2.4v2.4a.3.3,0,0,0,.3.3h3.642a.3.3,0,0,0,.3-.3v-2.4h2.4a.3.3,0,0,0,.3-.3v-3.642A.3.3,0,0,0,351.581,422.973Zm-.3,3.642h-2.4a.3.3,0,0,0-.3.3v2.4h-3.034v-2.4a.3.3,0,0,0-.3-.3h-2.4v-3.034h2.4a.3.3,0,0,0,.3-.3v-2.4h3.034v2.4a.3.3,0,0,0,.3.3h2.4Z" transform="translate(-342.23 -420.27)"/></g></svg>