<?xml version="1.0" encoding="utf-8"?>
<!-- Generator: Adobe Illustrator 25.4.1, SVG Export Plug-In . SVG Version: 6.00 Build 0)  -->
<svg version="1.1" id="Calque_1" xmlns="http://www.w3.org/2000/svg" xmlns:xlink="http://www.w3.org/1999/xlink" x="0px" y="0px"
	 viewBox="0 0 418.46 411.42" style="enable-background:new 0 0 418.46 411.42;" xml:space="preserve">
<style type="text/css">
	.st0{fill:url(#SVGID_1_);}
	.st1{fill:url(#SVGID_00000147909832525751018310000012605135426593515954_);}
	.st2{fill:url(#SVGID_00000145056490369469291770000010024756057993101757_);}
	.st3{fill:url(#SVGID_00000139999556801311473600000017578130746217195151_);}
	.st4{fill:url(#SVGID_00000072973747149814342540000016074225604162551988_);}
	.st5{fill:url(#SVGID_00000125590910311372046570000002374070134838823054_);}
	.st6{fill:url(#SVGID_00000026148791397786164320000000634253463982921124_);}
	.st7{fill:url(#SVGID_00000003062821819047698030000006785795361997462152_);}
	.st8{fill:url(#SVGID_00000147921403358604098140000009955019607000284042_);}
	.st9{fill:url(#SVGID_00000165949500031320423240000010286744647673866885_);}
	.st10{fill:url(#SVGID_00000042729591248142455470000004621684159669040562_);}
	.st11{fill:url(#SVGID_00000129909071489528209110000016659454357085765311_);}
	.st12{fill:url(#SVGID_00000178190279420651529970000008050414982169731723_);}
	.st13{fill:url(#SVGID_00000007404871963471718280000005546562286008397734_);}
	.st14{fill:url(#SVGID_00000029752807347646767850000009302874102967965095_);}
	.st15{fill:url(#SVGID_00000098182654449113405520000008153106999614889102_);}
	.st16{fill:url(#SVGID_00000019637184088516862070000000346644025772729023_);}
	.st17{fill:url(#SVGID_00000160184361601216746100000010408549678509563057_);}
	.st18{fill:url(#SVGID_00000047043411979814422920000006844294005845596062_);}
	.st19{fill:url(#SVGID_00000116229399492875478810000010930647173332205210_);}
	.st20{fill:url(#SVGID_00000072258422345210775660000006061178668387292863_);}
	.st21{fill:url(#SVGID_00000177464968647664167360000002909382151948597395_);}
	.st22{fill:url(#SVGID_00000127006329391347681580000004335614053000193681_);}
	.st23{fill:url(#SVGID_00000112597160185273292550000016145073749417567899_);}
	.st24{fill:url(#SVGID_00000042009686504717591620000009108567770620657309_);}
	.st25{fill:url(#SVGID_00000176753583610478374610000004252316739529809297_);}
	.st26{fill:url(#SVGID_00000013914561275991673730000002246613898421881518_);}
	.st27{fill:url(#SVGID_00000079446256741725156520000009813734365409869466_);}
	.st28{fill:url(#SVGID_00000091013843945984951980000016386778085041925811_);}
	.st29{fill:url(#SVGID_00000129197307749737874110000008894601334721993110_);}
	.st30{fill:url(#SVGID_00000101799618788474887900000010182593935714796735_);}
	.st31{fill:url(#SVGID_00000006695013129675906790000005073736437650205846_);}
	.st32{fill:url(#SVGID_00000005249409458851962650000004963945451106705067_);}
	.st33{fill:url(#SVGID_00000047026144671807058450000014001155294003117500_);}
	.st34{fill:url(#SVGID_00000099636718720707420090000003804387648438468739_);}
	.st35{fill:url(#SVGID_00000061459631440253562530000003898563172735072139_);}
	.st36{fill:url(#SVGID_00000025424839020511681060000009641570435362225028_);}
	.st37{fill:url(#SVGID_00000112616725309211804730000003832120808704692646_);}
	.st38{fill:url(#SVGID_00000084526312437444431330000006201011879794076825_);}
	.st39{fill:url(#SVGID_00000138559844007968196060000010703115258065763757_);}
	.st40{fill:url(#SVGID_00000137832446440963767340000017203969152718250157_);}
	.st41{fill:url(#SVGID_00000070095468124286861340000010943452503687659197_);}
	.st42{fill:url(#SVGID_00000165931244264546187320000006812692324161417389_);}
	.st43{fill:url(#SVGID_00000061471010183854840750000011773797756516321429_);}
	.st44{fill:url(#SVGID_00000005965108566369350210000011092990882155465612_);}
	.st45{fill:url(#SVGID_00000090984965818462844710000006627147192988626584_);}
	.st46{fill:url(#SVGID_00000178898991792242736880000012310209476100727480_);}
	.st47{fill:url(#SVGID_00000165945123169085623250000012880451245691437215_);}
	.st48{fill:url(#SVGID_00000068661902065526025060000000094570858658181761_);}
	.st49{fill:url(#SVGID_00000020358261649013496640000001035336023912602758_);}
	.st50{fill:url(#SVGID_00000163755958054415637650000017752566360318204590_);}
	.st51{fill:url(#SVGID_00000170961485145693492690000014126751034344375713_);}
	.st52{fill:url(#SVGID_00000022560098166507924960000015169448029358780311_);}
	.st53{fill:url(#SVGID_00000181055065174407544640000006327875478643809727_);}
	.st54{fill:url(#SVGID_00000058565248767874742240000006706161616084053646_);}
	.st55{fill:url(#SVGID_00000033350414644274921390000006318905359567357336_);}
	.st56{fill:url(#SVGID_00000160904129656590314250000011135341833908780703_);}
	.st57{fill:url(#SVGID_00000098202555466469687630000017811803266882590381_);}
	.st58{fill:url(#SVGID_00000138547141513964272950000009699463261299557538_);}
	.st59{fill:url(#SVGID_00000152230846624409361620000017261155891667232943_);}
	.st60{fill:url(#SVGID_00000008835370525252969740000005337183593663576200_);}
	.st61{fill:url(#SVGID_00000056425817166737404140000012643422753602015924_);}
	.st62{fill:url(#SVGID_00000049921564309450813640000012174031553357533612_);}
	.st63{fill:url(#SVGID_00000122706231517142536590000007403182999770304694_);}
	.st64{fill:url(#SVGID_00000036967550638151386970000011497178020721655961_);}
	.st65{fill:url(#SVGID_00000134948217194287571810000002286749553785984918_);}
	.st66{fill:url(#SVGID_00000152264454170550657580000015514405573974070449_);}
	.st67{fill:url(#SVGID_00000041995465189892317000000010420605040526186681_);}
	.st68{fill:url(#SVGID_00000129164114362635551770000007239424567007932835_);}
	.st69{fill:url(#SVGID_00000116213356011941436770000006503093498516390076_);}
	.st70{fill:url(#SVGID_00000097472408578864488040000004521129062091586208_);}
	.st71{fill:url(#SVGID_00000136412040698930005290000009130358999586266761_);}
	.st72{fill:url(#SVGID_00000167364858534056556860000017893695705545520267_);}
	.st73{fill:url(#SVGID_00000112625728193350115310000003987293354839233434_);}
	.st74{fill:url(#SVGID_00000134935607157646953040000015100809547886330014_);}
	.st75{fill:url(#SVGID_00000035524103984639589700000017727090707359496850_);}
	.st76{fill:url(#SVGID_00000021092544344601205530000009055244788390571942_);}
	.st77{fill:url(#SVGID_00000045591398232925464560000001489981748358375340_);}
	.st78{fill:url(#SVGID_00000126282409333105988520000001641900095312489913_);}
	.st79{fill:url(#SVGID_00000074415621436360421030000003716571478128707486_);}
	.st80{fill:url(#SVGID_00000153678022327617982780000005908178044961341590_);}
	.st81{fill:url(#SVGID_00000013168944218343262660000003775114477958527657_);}
	.st82{fill:url(#SVGID_00000061430286646431974120000003147695339872220563_);}
	.st83{fill:url(#SVGID_00000062878330690269394860000013375206465758969493_);}
	.st84{fill:url(#SVGID_00000137853735046692262940000009749408043940186283_);}
	.st85{fill:url(#SVGID_00000078014264966648318430000002438604971029000589_);}
	.st86{fill:url(#SVGID_00000118390878209577780580000011383991502913473713_);}
	.st87{fill:url(#SVGID_00000183937564996437235230000012279750521324346246_);}
	.st88{fill:url(#SVGID_00000093140726356104847390000003148762876491436467_);}
	.st89{fill:url(#SVGID_00000096059121561469131430000000346795533031730582_);}
	.st90{fill:url(#SVGID_00000031206426277379477660000000491438732368980105_);}
	.st91{fill:url(#SVGID_00000042000638417948434150000016901150742311334581_);}
	.st92{fill:url(#SVGID_00000116227264168794615220000010930481247951722904_);}
	.st93{fill:url(#SVGID_00000096025584779733346950000010406716613667675052_);}
	.st94{fill:url(#SVGID_00000137126594116772012390000002044116310648449716_);}
	.st95{fill:url(#SVGID_00000110450416151948631920000007546797193386269629_);}
	.st96{fill:url(#SVGID_00000173853794294244742550000009798169507711442332_);}
	.st97{fill:url(#SVGID_00000073688884477307716830000002558225511655643272_);}
	.st98{fill:url(#SVGID_00000041256897123041898190000004560681760773449601_);}
	.st99{fill:url(#SVGID_00000095297181409945303170000009482609581177962138_);}
	.st100{fill:url(#SVGID_00000008872046924199899490000012321327515321617584_);}
	.st101{fill:url(#SVGID_00000031201377826956591070000015209544035977788560_);}
	.st102{fill:url(#SVGID_00000013195366590818969190000001467019701178998955_);}
	.st103{fill:url(#SVGID_00000140733578531681815730000013559091364090236568_);}
	.st104{fill:#62ADD6;}
	.st105{fill:url(#SVGID_00000081627866977076609860000001644677678192253608_);}
	.st106{fill:url(#SVGID_00000116936685204018889770000012174685935940298634_);}
	.st107{fill:url(#SVGID_00000029004929984382570400000007930188867901201296_);}
	.st108{fill:url(#SVGID_00000059997388230448761920000008483093820303532176_);}
</style>
<g>
	<radialGradient id="SVGID_1_" cx="203.0019" cy="195.9381" r="340.4074" gradientUnits="userSpaceOnUse">
		<stop  offset="0.1075" style="stop-color:#62ADD6"/>
		<stop  offset="0.1543" style="stop-color:#62ADD3"/>
		<stop  offset="0.5251" style="stop-color:#5CAFB6"/>
	</radialGradient>
	<path class="st0" d="M286.68,133.13c-0.84,0.49-1.44,1.29-1.68,2.23c-0.16,0.6-0.16,1.21-0.01,1.79c0.08,0.34,0.22,0.67,0.4,0.98
		c1.02,1.73,3.26,2.31,5,1.3c1.73-1.02,2.32-3.25,1.3-5C290.66,132.69,288.41,132.11,286.68,133.13z"/>
	
		<radialGradient id="SVGID_00000105401440671599986060000013476935828596004998_" cx="203.0019" cy="195.9381" r="340.4074" gradientUnits="userSpaceOnUse">
		<stop  offset="0.1075" style="stop-color:#62ADD6"/>
		<stop  offset="0.1543" style="stop-color:#62ADD3"/>
		<stop  offset="0.5251" style="stop-color:#5CAFB6"/>
	</radialGradient>
	<path style="fill:url(#SVGID_00000105401440671599986060000013476935828596004998_);" d="M305.83,118.27
		c-0.69,0.41-1.18,1.06-1.39,1.84c-0.13,0.49-0.13,0.99-0.01,1.47c0.07,0.28,0.18,0.55,0.33,0.81c0.41,0.69,1.06,1.18,1.84,1.39
		c0.78,0.2,1.58,0.09,2.28-0.32c0.69-0.41,1.18-1.06,1.39-1.84c0.2-0.78,0.09-1.59-0.32-2.28c-0.41-0.69-1.06-1.18-1.84-1.39
		C307.33,117.75,306.52,117.86,305.83,118.27z"/>
	
		<radialGradient id="SVGID_00000040564535869668429320000006160405979011841427_" cx="203.0019" cy="195.9381" r="340.4074" gradientUnits="userSpaceOnUse">
		<stop  offset="0.1075" style="stop-color:#62ADD6"/>
		<stop  offset="0.1543" style="stop-color:#62ADD3"/>
		<stop  offset="0.5251" style="stop-color:#5CAFB6"/>
	</radialGradient>
	<path style="fill:url(#SVGID_00000040564535869668429320000006160405979011841427_);" d="M230.51,104.41
		c0.89,0.39,1.89,0.41,2.79,0.05c0.91-0.36,1.62-1.04,2.01-1.94c0.39-0.89,0.41-1.88,0.05-2.79c-0.36-0.91-1.04-1.62-1.94-2.01
		c-1.85-0.8-4,0.04-4.8,1.89c-0.33,0.76-0.38,1.58-0.2,2.33C228.68,102.99,229.42,103.93,230.51,104.41z"/>
	
		<radialGradient id="SVGID_00000127030971046810512290000004342148854481501371_" cx="203.0019" cy="195.9381" r="340.4074" gradientUnits="userSpaceOnUse">
		<stop  offset="0.1075" style="stop-color:#62ADD6"/>
		<stop  offset="0.1543" style="stop-color:#62ADD3"/>
		<stop  offset="0.5251" style="stop-color:#5CAFB6"/>
	</radialGradient>
	<path style="fill:url(#SVGID_00000127030971046810512290000004342148854481501371_);" d="M235.34,78.62
		c0.29,0.75,0.86,1.33,1.6,1.66c1.52,0.66,3.29-0.03,3.95-1.55c0.66-1.52-0.04-3.29-1.55-3.95c-0.74-0.32-1.55-0.34-2.3-0.04
		c-0.75,0.29-1.33,0.86-1.65,1.6c-0.27,0.61-0.32,1.28-0.17,1.91C235.25,78.36,235.29,78.49,235.34,78.62z"/>
	
		<radialGradient id="SVGID_00000085950754269538544390000010839017932762857382_" cx="203.0019" cy="195.9381" r="340.4074" gradientUnits="userSpaceOnUse">
		<stop  offset="0.1075" style="stop-color:#62ADD6"/>
		<stop  offset="0.1543" style="stop-color:#62ADD3"/>
		<stop  offset="0.5251" style="stop-color:#5CAFB6"/>
	</radialGradient>
	<path style="fill:url(#SVGID_00000085950754269538544390000010839017932762857382_);" d="M161.96,106.69
		c0.22,0.91,0.78,1.69,1.58,2.2c0.82,0.53,1.8,0.7,2.75,0.49c0.95-0.21,1.77-0.78,2.29-1.6c0.52-0.82,0.7-1.8,0.49-2.75
		c-0.01-0.03-0.01-0.06-0.02-0.09c-0.47-1.92-2.39-3.12-4.33-2.69c-1.96,0.43-3.21,2.39-2.78,4.35
		C161.95,106.63,161.95,106.66,161.96,106.69z"/>
	
		<radialGradient id="SVGID_00000165229250884764083940000014699526453297116331_" cx="203.0019" cy="195.9381" r="340.4074" gradientUnits="userSpaceOnUse">
		<stop  offset="0.1075" style="stop-color:#62ADD6"/>
		<stop  offset="0.1543" style="stop-color:#62ADD3"/>
		<stop  offset="0.5251" style="stop-color:#5CAFB6"/>
	</radialGradient>
	<path style="fill:url(#SVGID_00000165229250884764083940000014699526453297116331_);" d="M153.74,83.86
		c0.19,0.75,0.65,1.39,1.3,1.81c0.68,0.43,1.48,0.57,2.26,0.4c0.78-0.17,1.45-0.64,1.89-1.32c0.43-0.68,0.57-1.48,0.4-2.26
		c-0.37-1.6-1.96-2.64-3.58-2.29c-1.62,0.36-2.64,1.96-2.29,3.58C153.73,83.82,153.73,83.84,153.74,83.86z"/>
	
		<radialGradient id="SVGID_00000011715022498505944000000000656182522258196871_" cx="203.0019" cy="195.9381" r="340.4074" gradientUnits="userSpaceOnUse">
		<stop  offset="0.1075" style="stop-color:#62ADD6"/>
		<stop  offset="0.1543" style="stop-color:#62ADD3"/>
		<stop  offset="0.5251" style="stop-color:#5CAFB6"/>
	</radialGradient>
	<path style="fill:url(#SVGID_00000011715022498505944000000000656182522258196871_);" d="M110.89,148.94
		c0.01,0.22,0.05,0.45,0.1,0.66c0.18,0.71,0.56,1.35,1.12,1.85c0.73,0.65,1.67,0.97,2.64,0.91c0.97-0.06,1.86-0.49,2.51-1.22
		c1.34-1.5,1.19-3.82-0.31-5.15c-0.73-0.65-1.67-0.97-2.64-0.91c-0.97,0.06-1.87,0.49-2.51,1.22
		C111.15,147.03,110.83,147.97,110.89,148.94z"/>
	
		<radialGradient id="SVGID_00000155863338397380149460000000337917859500679041_" cx="203.0019" cy="195.9381" r="340.4074" gradientUnits="userSpaceOnUse">
		<stop  offset="0.1075" style="stop-color:#62ADD6"/>
		<stop  offset="0.1543" style="stop-color:#62ADD3"/>
		<stop  offset="0.5251" style="stop-color:#5CAFB6"/>
	</radialGradient>
	<path style="fill:url(#SVGID_00000155863338397380149460000000337917859500679041_);" d="M91.13,136.31
		c0.14,0.57,0.45,1.11,0.92,1.53c0.6,0.53,1.37,0.8,2.17,0.75c0.8-0.05,1.53-0.41,2.07-1.01c0.53-0.6,0.8-1.37,0.75-2.17
		c-0.05-0.8-0.41-1.53-1.01-2.07c-0.6-0.53-1.37-0.8-2.17-0.75c-0.8,0.05-1.54,0.41-2.07,1.01
		C91.12,134.36,90.9,135.38,91.13,136.31z"/>
	
		<radialGradient id="SVGID_00000073712572116748380310000012243729394518649496_" cx="203.0019" cy="195.9381" r="340.4074" gradientUnits="userSpaceOnUse">
		<stop  offset="0.1075" style="stop-color:#62ADD6"/>
		<stop  offset="0.1543" style="stop-color:#62ADD3"/>
		<stop  offset="0.5251" style="stop-color:#5CAFB6"/>
	</radialGradient>
	<path style="fill:url(#SVGID_00000073712572116748380310000012243729394518649496_);" d="M98.87,209.77
		c-0.97-0.09-1.92,0.19-2.67,0.81c-0.75,0.62-1.22,1.5-1.31,2.47c-0.04,0.42-0.01,0.83,0.09,1.23c0.13,0.52,0.37,1.02,0.73,1.44
		c0.62,0.75,1.49,1.22,2.46,1.31c0.97,0.09,1.92-0.19,2.67-0.81c0.75-0.62,1.22-1.5,1.31-2.47
		C102.34,211.75,100.87,209.97,98.87,209.77z"/>
	
		<radialGradient id="SVGID_00000160906371829394020820000015094001864886032815_" cx="203.0019" cy="195.9381" r="340.4074" gradientUnits="userSpaceOnUse">
		<stop  offset="0.1075" style="stop-color:#62ADD6"/>
		<stop  offset="0.1543" style="stop-color:#62ADD3"/>
		<stop  offset="0.5251" style="stop-color:#5CAFB6"/>
	</radialGradient>
	<path style="fill:url(#SVGID_00000160906371829394020820000015094001864886032815_);" d="M73.93,217.8
		c1.65,0.16,3.12-1.05,3.28-2.7c0.16-1.65-1.05-3.12-2.7-3.28c-1.65-0.16-3.12,1.05-3.28,2.7c-0.03,0.35-0.01,0.68,0.07,1
		C71.6,216.73,72.63,217.68,73.93,217.8z"/>
	
		<radialGradient id="SVGID_00000182487351260852075440000016678208322952676249_" cx="203.0019" cy="195.9381" r="340.4074" gradientUnits="userSpaceOnUse">
		<stop  offset="0.1075" style="stop-color:#62ADD6"/>
		<stop  offset="0.1543" style="stop-color:#62ADD3"/>
		<stop  offset="0.5251" style="stop-color:#5CAFB6"/>
	</radialGradient>
	<path style="fill:url(#SVGID_00000182487351260852075440000016678208322952676249_);" d="M125.42,278.29c1.73-1.02,2.31-3.26,1.3-5
		c-1.02-1.73-3.26-2.32-5-1.3c-1.42,0.84-2.07,2.49-1.69,4.02c0.08,0.34,0.21,0.66,0.4,0.98c0.49,0.84,1.29,1.44,2.23,1.68
		C123.6,278.92,124.58,278.78,125.42,278.29z"/>
	
		<radialGradient id="SVGID_00000144304205082814830490000007211183280092656818_" cx="203.0019" cy="195.9381" r="340.4074" gradientUnits="userSpaceOnUse">
		<stop  offset="0.1075" style="stop-color:#62ADD6"/>
		<stop  offset="0.1543" style="stop-color:#62ADD3"/>
		<stop  offset="0.5251" style="stop-color:#5CAFB6"/>
	</radialGradient>
	<path style="fill:url(#SVGID_00000144304205082814830490000007211183280092656818_);" d="M106.27,293.15
		c1.43-0.84,1.91-2.68,1.07-4.11c-0.84-1.43-2.69-1.9-4.11-1.07l0,0c-1.17,0.69-1.7,2.05-1.39,3.31c0.07,0.27,0.18,0.54,0.33,0.8
		c0.41,0.69,1.06,1.18,1.83,1.38C104.77,293.67,105.58,293.56,106.27,293.15z"/>
	
		<radialGradient id="SVGID_00000029765238788212689510000010608250837914286006_" cx="203.0019" cy="195.9381" r="340.4074" gradientUnits="userSpaceOnUse">
		<stop  offset="0.1075" style="stop-color:#62ADD6"/>
		<stop  offset="0.1543" style="stop-color:#62ADD3"/>
		<stop  offset="0.5251" style="stop-color:#5CAFB6"/>
	</radialGradient>
	<path style="fill:url(#SVGID_00000029765238788212689510000010608250837914286006_);" d="M181.59,307.02c-1.85-0.8-4,0.04-4.8,1.89
		c-0.33,0.76-0.38,1.58-0.2,2.33c0.26,1.07,1,2.01,2.09,2.48c0.89,0.39,1.89,0.41,2.79,0.05c0.91-0.36,1.62-1.04,2.01-1.94
		c0.39-0.89,0.41-1.88,0.05-2.79C183.17,308.12,182.49,307.41,181.59,307.02z"/>
	
		<radialGradient id="SVGID_00000152978913045773626770000003308935257689227706_" cx="203.0019" cy="195.9381" r="340.4074" gradientUnits="userSpaceOnUse">
		<stop  offset="0.1075" style="stop-color:#62ADD6"/>
		<stop  offset="0.1543" style="stop-color:#62ADD3"/>
		<stop  offset="0.5251" style="stop-color:#5CAFB6"/>
	</radialGradient>
	<path style="fill:url(#SVGID_00000152978913045773626770000003308935257689227706_);" d="M175.17,331.15
		c-1.52-0.66-3.29,0.03-3.95,1.55c-0.27,0.61-0.32,1.28-0.16,1.91c0.03,0.13,0.07,0.26,0.12,0.39c0.29,0.75,0.86,1.34,1.6,1.66
		c1.52,0.66,3.29-0.04,3.95-1.55C177.38,333.58,176.69,331.81,175.17,331.15z"/>
	
		<radialGradient id="SVGID_00000168800428357895698480000017448456551922488247_" cx="203.0019" cy="195.9381" r="340.4074" gradientUnits="userSpaceOnUse">
		<stop  offset="0.1075" style="stop-color:#62ADD6"/>
		<stop  offset="0.1543" style="stop-color:#62ADD3"/>
		<stop  offset="0.5251" style="stop-color:#5CAFB6"/>
	</radialGradient>
	<path style="fill:url(#SVGID_00000168800428357895698480000017448456551922488247_);" d="M245.81,302.04
		c-0.95,0.21-1.77,0.78-2.29,1.6c-0.52,0.82-0.7,1.8-0.49,2.75c0.01,0.03,0.01,0.06,0.02,0.09c0.22,0.91,0.78,1.69,1.58,2.2
		c0.82,0.52,1.8,0.7,2.75,0.49c0.95-0.21,1.76-0.78,2.29-1.6c0.52-0.82,0.7-1.8,0.49-2.75
		C249.66,302.88,247.78,301.61,245.81,302.04z"/>
	
		<radialGradient id="SVGID_00000124842449393328172430000017167281831503608213_" cx="203.0019" cy="195.9381" r="340.4074" gradientUnits="userSpaceOnUse">
		<stop  offset="0.1075" style="stop-color:#62ADD6"/>
		<stop  offset="0.1543" style="stop-color:#62ADD3"/>
		<stop  offset="0.5251" style="stop-color:#5CAFB6"/>
	</radialGradient>
	<path style="fill:url(#SVGID_00000124842449393328172430000017167281831503608213_);" d="M257.06,325.75
		c-0.68-0.43-1.48-0.57-2.26-0.4c-0.78,0.17-1.45,0.64-1.88,1.32c-0.43,0.68-0.57,1.48-0.4,2.26c0.01,0.02,0.01,0.05,0.02,0.08
		c0.18,0.75,0.64,1.39,1.3,1.81c0.68,0.43,1.48,0.57,2.26,0.4c1.62-0.36,2.64-1.96,2.29-3.58
		C258.21,326.83,257.74,326.18,257.06,325.75z"/>
	
		<radialGradient id="SVGID_00000024711538043779134580000002636960475414200996_" cx="203.0019" cy="195.9381" r="340.4074" gradientUnits="userSpaceOnUse">
		<stop  offset="0.1075" style="stop-color:#62ADD6"/>
		<stop  offset="0.1543" style="stop-color:#62ADD3"/>
		<stop  offset="0.5251" style="stop-color:#5CAFB6"/>
	</radialGradient>
	<path style="fill:url(#SVGID_00000024711538043779134580000002636960475414200996_);" d="M263.24,117.24
		c0.97-0.08,1.85-0.54,2.48-1.28c0.63-0.75,0.93-1.69,0.85-2.66c-0.08-0.97-0.54-1.85-1.28-2.48c-0.75-0.63-1.69-0.93-2.66-0.85
		c-0.97,0.08-1.85,0.54-2.48,1.28c-0.63,0.74-0.93,1.69-0.85,2.66c0.02,0.19,0.05,0.39,0.09,0.57c0.18,0.74,0.59,1.41,1.19,1.91
		C261.33,117.02,262.27,117.32,263.24,117.24z"/>
	
		<radialGradient id="SVGID_00000044866269504372586120000014496508728969212824_" cx="203.0019" cy="195.9381" r="340.4074" gradientUnits="userSpaceOnUse">
		<stop  offset="0.1075" style="stop-color:#62ADD6"/>
		<stop  offset="0.1543" style="stop-color:#62ADD3"/>
		<stop  offset="0.5251" style="stop-color:#5CAFB6"/>
	</radialGradient>
	<path style="fill:url(#SVGID_00000044866269504372586120000014496508728969212824_);" d="M273.64,95.1
		c1.27,1.07,3.16,0.91,4.23-0.36c0.52-0.61,0.77-1.39,0.7-2.19c-0.07-0.8-0.44-1.52-1.06-2.04c-1.26-1.07-3.16-0.91-4.23,0.36
		c-0.52,0.61-0.77,1.39-0.7,2.19c0.01,0.16,0.04,0.32,0.08,0.47C272.81,94.14,273.15,94.69,273.64,95.1z"/>
	
		<radialGradient id="SVGID_00000147195218396740508940000013632411309156624317_" cx="203.0019" cy="195.9381" r="340.4074" gradientUnits="userSpaceOnUse">
		<stop  offset="0.1075" style="stop-color:#62ADD6"/>
		<stop  offset="0.1543" style="stop-color:#62ADD3"/>
		<stop  offset="0.5251" style="stop-color:#5CAFB6"/>
	</radialGradient>
	<path style="fill:url(#SVGID_00000147195218396740508940000013632411309156624317_);" d="M195.54,94.99
		c-0.74,0.64-1.18,1.52-1.25,2.5c-0.03,0.39,0,0.77,0.09,1.14c0.14,0.55,0.4,1.07,0.78,1.51c0.64,0.74,1.52,1.18,2.5,1.25
		c2.01,0.15,3.76-1.37,3.91-3.37c0.15-2-1.37-3.76-3.37-3.91C197.22,94.04,196.28,94.35,195.54,94.99z"/>
	
		<radialGradient id="SVGID_00000021837203718779225120000005962370383017564827_" cx="203.0019" cy="195.9381" r="340.4074" gradientUnits="userSpaceOnUse">
		<stop  offset="0.1075" style="stop-color:#62ADD6"/>
		<stop  offset="0.1543" style="stop-color:#62ADD3"/>
		<stop  offset="0.5251" style="stop-color:#5CAFB6"/>
	</radialGradient>
	<path style="fill:url(#SVGID_00000021837203718779225120000005962370383017564827_);" d="M195.72,76.5
		c1.65,0.12,3.09-1.13,3.21-2.78c0.12-1.65-1.13-3.09-2.78-3.21c-1.65-0.12-3.09,1.13-3.21,2.78c-0.02,0.32,0.01,0.64,0.08,0.93
		C193.32,75.45,194.39,76.4,195.72,76.5z"/>
	
		<radialGradient id="SVGID_00000044889365209227584920000014450624786204554169_" cx="203.0019" cy="195.9381" r="340.4074" gradientUnits="userSpaceOnUse">
		<stop  offset="0.1075" style="stop-color:#62ADD6"/>
		<stop  offset="0.1543" style="stop-color:#62ADD3"/>
		<stop  offset="0.5251" style="stop-color:#5CAFB6"/>
	</radialGradient>
	<path style="fill:url(#SVGID_00000044889365209227584920000014450624786204554169_);" d="M132.47,122.31
		c-0.13,0.57-0.13,1.15,0.01,1.7c0.09,0.37,0.24,0.72,0.45,1.06c0.51,0.83,1.32,1.41,2.27,1.63c0.95,0.22,1.93,0.06,2.76-0.45
		c0.83-0.51,1.41-1.32,1.63-2.27c0.22-0.95,0.06-1.93-0.45-2.76c-0.51-0.83-1.32-1.41-2.27-1.63c-0.95-0.22-1.93-0.06-2.76,0.45
		C133.27,120.56,132.69,121.37,132.47,122.31z"/>
	
		<radialGradient id="SVGID_00000010299091679766648760000011583648874003480195_" cx="203.0019" cy="195.9381" r="340.4074" gradientUnits="userSpaceOnUse">
		<stop  offset="0.1075" style="stop-color:#62ADD6"/>
		<stop  offset="0.1543" style="stop-color:#62ADD3"/>
		<stop  offset="0.5251" style="stop-color:#5CAFB6"/>
	</radialGradient>
	<path style="fill:url(#SVGID_00000010299091679766648760000011583648874003480195_);" d="M117.6,106.28
		c0.87,1.41,2.73,1.84,4.14,0.97c1.41-0.87,1.85-2.73,0.97-4.14c-0.87-1.41-2.73-1.84-4.14-0.97c-0.68,0.42-1.16,1.09-1.34,1.87
		c-0.11,0.47-0.11,0.94,0.01,1.4C117.31,105.72,117.43,106.01,117.6,106.28z"/>
	
		<radialGradient id="SVGID_00000001665481638173977890000016111115212008408220_" cx="203.0019" cy="195.9381" r="340.4074" gradientUnits="userSpaceOnUse">
		<stop  offset="0.1075" style="stop-color:#62ADD6"/>
		<stop  offset="0.1543" style="stop-color:#62ADD3"/>
		<stop  offset="0.5251" style="stop-color:#5CAFB6"/>
	</radialGradient>
	<path style="fill:url(#SVGID_00000001665481638173977890000016111115212008408220_);" d="M104.25,181.45
		c0.37-0.9,0.36-1.9-0.02-2.79c-0.38-0.9-1.08-1.6-1.99-1.96c-0.9-0.37-1.9-0.36-2.79,0.02c-0.9,0.38-1.6,1.08-1.96,1.99
		c-0.29,0.72-0.35,1.5-0.17,2.24c0.05,0.19,0.11,0.37,0.18,0.55c0.38,0.9,1.08,1.59,1.99,1.96c0.9,0.37,1.89,0.36,2.79-0.02
		C103.18,183.06,103.88,182.35,104.25,181.45z"/>
	
		<radialGradient id="SVGID_00000019641592574724345230000011482687394928650415_" cx="203.0019" cy="195.9381" r="340.4074" gradientUnits="userSpaceOnUse">
		<stop  offset="0.1075" style="stop-color:#62ADD6"/>
		<stop  offset="0.1543" style="stop-color:#62ADD3"/>
		<stop  offset="0.5251" style="stop-color:#5CAFB6"/>
	</radialGradient>
	<path style="fill:url(#SVGID_00000019641592574724345230000011482687394928650415_);" d="M78.32,171.7c-0.74-0.3-1.56-0.3-2.3,0.01
		c-0.74,0.31-1.31,0.89-1.62,1.63c-0.25,0.61-0.28,1.25-0.14,1.85c0.22,0.9,0.86,1.69,1.78,2.07c1.53,0.63,3.29-0.11,3.91-1.65
		C80.59,174.07,79.85,172.32,78.32,171.7z"/>
	
		<radialGradient id="SVGID_00000030466422302674489110000004521371997072373896_" cx="203.0019" cy="195.9381" r="340.4074" gradientUnits="userSpaceOnUse">
		<stop  offset="0.1075" style="stop-color:#62ADD6"/>
		<stop  offset="0.1543" style="stop-color:#62ADD3"/>
		<stop  offset="0.5251" style="stop-color:#5CAFB6"/>
	</radialGradient>
	<path style="fill:url(#SVGID_00000030466422302674489110000004521371997072373896_);" d="M106.76,250.34
		c1.95-0.48,3.15-2.46,2.67-4.42c-0.48-1.95-2.46-3.15-4.42-2.67c-1.96,0.48-3.15,2.46-2.67,4.42
		C102.82,249.62,104.8,250.82,106.76,250.34z"/>
	
		<radialGradient id="SVGID_00000014633011764496551320000002449877540353869999_" cx="203.0019" cy="195.9381" r="340.4074" gradientUnits="userSpaceOnUse">
		<stop  offset="0.1075" style="stop-color:#62ADD6"/>
		<stop  offset="0.1543" style="stop-color:#62ADD3"/>
		<stop  offset="0.5251" style="stop-color:#5CAFB6"/>
	</radialGradient>
	<path style="fill:url(#SVGID_00000014633011764496551320000002449877540353869999_);" d="M86.35,255.47
		c-0.4-1.61-2.03-2.59-3.64-2.2s-2.59,2.03-2.2,3.63c0.4,1.61,2.03,2.59,3.63,2.2C85.76,258.71,86.75,257.08,86.35,255.47z"/>
	
		<radialGradient id="SVGID_00000023994697161581744490000008625509728914139567_" cx="203.0019" cy="195.9381" r="340.4074" gradientUnits="userSpaceOnUse">
		<stop  offset="0.1075" style="stop-color:#62ADD6"/>
		<stop  offset="0.1543" style="stop-color:#62ADD3"/>
		<stop  offset="0.5251" style="stop-color:#5CAFB6"/>
	</radialGradient>
	<path style="fill:url(#SVGID_00000023994697161581744490000008625509728914139567_);" d="M148.86,294.19
		c-0.97,0.08-1.85,0.54-2.48,1.28c-0.63,0.74-0.93,1.69-0.85,2.66c0.02,0.2,0.05,0.39,0.09,0.57c0.18,0.74,0.59,1.41,1.19,1.91
		c0.75,0.63,1.69,0.93,2.66,0.85c0.97-0.08,1.85-0.54,2.48-1.28c1.3-1.54,1.1-3.84-0.43-5.14
		C150.77,294.41,149.83,294.1,148.86,294.19z"/>
	
		<radialGradient id="SVGID_00000150803425120853439020000014160329299299600281_" cx="203.0019" cy="195.9381" r="340.4074" gradientUnits="userSpaceOnUse">
		<stop  offset="0.1075" style="stop-color:#62ADD6"/>
		<stop  offset="0.1543" style="stop-color:#62ADD3"/>
		<stop  offset="0.5251" style="stop-color:#5CAFB6"/>
	</radialGradient>
	<path style="fill:url(#SVGID_00000150803425120853439020000014160329299299600281_);" d="M134.23,316.68
		c-0.64,0.76-0.84,1.76-0.62,2.66c0.15,0.59,0.47,1.15,0.98,1.57c1.27,1.07,3.16,0.91,4.23-0.36c0.52-0.61,0.77-1.39,0.7-2.19
		c-0.07-0.8-0.44-1.52-1.06-2.04C137.2,315.25,135.3,315.41,134.23,316.68z"/>
	
		<radialGradient id="SVGID_00000042705168370724546490000014755989677880187789_" cx="203.0019" cy="195.9381" r="340.4074" gradientUnits="userSpaceOnUse">
		<stop  offset="0.1075" style="stop-color:#62ADD6"/>
		<stop  offset="0.1543" style="stop-color:#62ADD3"/>
		<stop  offset="0.5251" style="stop-color:#5CAFB6"/>
	</radialGradient>
	<path style="fill:url(#SVGID_00000042705168370724546490000014755989677880187789_);" d="M216.56,316.43
		c0.74-0.64,1.18-1.52,1.25-2.5c0.07-0.97-0.24-1.91-0.88-2.65c-0.64-0.74-1.52-1.18-2.5-1.25c-0.97-0.07-1.91,0.24-2.65,0.88
		c-0.74,0.64-1.18,1.52-1.25,2.5c-0.03,0.39,0,0.77,0.09,1.14c0.14,0.55,0.4,1.07,0.78,1.51c0.64,0.74,1.52,1.18,2.5,1.25
		C214.88,317.38,215.82,317.07,216.56,316.43z"/>
	
		<radialGradient id="SVGID_00000031900738150506299020000015463828613810315193_" cx="203.0019" cy="195.9381" r="340.4074" gradientUnits="userSpaceOnUse">
		<stop  offset="0.1075" style="stop-color:#62ADD6"/>
		<stop  offset="0.1543" style="stop-color:#62ADD3"/>
		<stop  offset="0.5251" style="stop-color:#5CAFB6"/>
	</radialGradient>
	<path style="fill:url(#SVGID_00000031900738150506299020000015463828613810315193_);" d="M216.39,334.93
		c-1.65-0.12-3.09,1.12-3.21,2.78c-0.02,0.32,0.01,0.64,0.08,0.93c0.3,1.23,1.37,2.18,2.7,2.28c1.65,0.12,3.09-1.12,3.21-2.78
		c0.06-0.8-0.2-1.58-0.72-2.18C217.91,335.35,217.19,334.98,216.39,334.93z"/>
	
		<radialGradient id="SVGID_00000105386906728319743950000014274882412377537425_" cx="203.0019" cy="195.9381" r="340.4074" gradientUnits="userSpaceOnUse">
		<stop  offset="0.1075" style="stop-color:#62ADD6"/>
		<stop  offset="0.1543" style="stop-color:#62ADD3"/>
		<stop  offset="0.5251" style="stop-color:#5CAFB6"/>
	</radialGradient>
	<path style="fill:url(#SVGID_00000105386906728319743950000014274882412377537425_);" d="M297.08,146.06
		c-0.14,0.59-0.13,1.19,0.01,1.76c0.09,0.38,0.25,0.75,0.46,1.09c1.1,1.77,3.43,2.32,5.2,1.22c0.86-0.53,1.46-1.37,1.69-2.35
		c0.23-0.98,0.06-2-0.47-2.85c-0.53-0.86-1.37-1.46-2.35-1.69c-0.98-0.23-2-0.06-2.85,0.47
		C297.91,144.24,297.31,145.08,297.08,146.06z"/>
	
		<radialGradient id="SVGID_00000173152509512293245700000013083084295180509341_" cx="203.0019" cy="195.9381" r="340.4074" gradientUnits="userSpaceOnUse">
		<stop  offset="0.1075" style="stop-color:#62ADD6"/>
		<stop  offset="0.1543" style="stop-color:#62ADD3"/>
		<stop  offset="0.5251" style="stop-color:#5CAFB6"/>
	</radialGradient>
	<path style="fill:url(#SVGID_00000173152509512293245700000013083084295180509341_);" d="M309.4,138.62
		c-0.13,0.55-0.12,1.11,0.01,1.64c0.09,0.35,0.23,0.7,0.43,1.02c0.5,0.8,1.27,1.36,2.19,1.57c0.92,0.22,1.86,0.06,2.66-0.44
		c0.8-0.5,1.36-1.27,1.57-2.19c0.21-0.92,0.06-1.86-0.44-2.66c-1.02-1.65-3.2-2.16-4.85-1.14
		C310.18,136.93,309.62,137.71,309.4,138.62z"/>
	
		<radialGradient id="SVGID_00000028324050595246566190000001924564430610912648_" cx="203.0019" cy="195.9381" r="340.4074" gradientUnits="userSpaceOnUse">
		<stop  offset="0.1075" style="stop-color:#62ADD6"/>
		<stop  offset="0.1543" style="stop-color:#62ADD3"/>
		<stop  offset="0.5251" style="stop-color:#5CAFB6"/>
	</radialGradient>
	<path style="fill:url(#SVGID_00000028324050595246566190000001924564430610912648_);" d="M322.14,133.65
		c0.95,1.53,2.96,2,4.49,1.05c1.53-0.95,2-2.97,1.05-4.49c-0.95-1.53-2.96-2-4.49-1.05c-1.23,0.76-1.77,2.22-1.45,3.55
		C321.82,133.04,321.95,133.35,322.14,133.65z"/>
	
		<radialGradient id="SVGID_00000143576845209872058690000006794652761269692074_" cx="203.0019" cy="195.9381" r="340.4074" gradientUnits="userSpaceOnUse">
		<stop  offset="0.1075" style="stop-color:#62ADD6"/>
		<stop  offset="0.1543" style="stop-color:#62ADD3"/>
		<stop  offset="0.5251" style="stop-color:#5CAFB6"/>
	</radialGradient>
	<path style="fill:url(#SVGID_00000143576845209872058690000006794652761269692074_);" d="M334.43,126.02
		c0.87,1.41,2.73,1.84,4.14,0.97c1.41-0.87,1.84-2.73,0.97-4.14c-0.87-1.4-2.73-1.84-4.14-0.97c-1.13,0.7-1.64,2.04-1.33,3.27
		C334.14,125.45,334.26,125.74,334.43,126.02z"/>
	
		<radialGradient id="SVGID_00000051355920906104795720000013350844236625596551_" cx="203.0019" cy="195.9381" r="340.4074" gradientUnits="userSpaceOnUse">
		<stop  offset="0.1075" style="stop-color:#62ADD6"/>
		<stop  offset="0.1543" style="stop-color:#62ADD3"/>
		<stop  offset="0.5251" style="stop-color:#5CAFB6"/>
	</radialGradient>
	<path style="fill:url(#SVGID_00000051355920906104795720000013350844236625596551_);" d="M264.87,132.37
		c0.2,0.8,0.64,1.54,1.31,2.11c1.7,1.44,4.25,1.22,5.69-0.48c0.7-0.82,1.03-1.87,0.94-2.94c-0.09-1.08-0.59-2.05-1.42-2.74
		c-0.82-0.7-1.87-1.03-2.94-0.94c-1.07,0.09-2.05,0.59-2.74,1.42C264.83,129.82,264.57,131.15,264.87,132.37z"/>
	
		<radialGradient id="SVGID_00000145762865409333967820000016410318542850259900_" cx="203.0019" cy="195.9381" r="340.4074" gradientUnits="userSpaceOnUse">
		<stop  offset="0.1075" style="stop-color:#62ADD6"/>
		<stop  offset="0.1543" style="stop-color:#62ADD3"/>
		<stop  offset="0.5251" style="stop-color:#5CAFB6"/>
	</radialGradient>
	<path style="fill:url(#SVGID_00000145762865409333967820000016410318542850259900_);" d="M275.07,118.1
		c-0.65,0.77-0.96,1.75-0.88,2.76c0.02,0.2,0.05,0.4,0.1,0.59c0.19,0.77,0.62,1.46,1.23,1.98c1.59,1.34,3.98,1.14,5.32-0.45
		c1.34-1.59,1.14-3.98-0.45-5.33C278.8,116.3,276.41,116.51,275.07,118.1z"/>
	
		<radialGradient id="SVGID_00000085932230591457295370000002713434561354972300_" cx="203.0019" cy="195.9381" r="340.4074" gradientUnits="userSpaceOnUse">
		<stop  offset="0.1075" style="stop-color:#62ADD6"/>
		<stop  offset="0.1543" style="stop-color:#62ADD3"/>
		<stop  offset="0.5251" style="stop-color:#5CAFB6"/>
	</radialGradient>
	<path style="fill:url(#SVGID_00000085932230591457295370000002713434561354972300_);" d="M284.85,112.36
		c0.72,0.61,1.63,0.9,2.57,0.82c0.94-0.08,1.79-0.52,2.39-1.24c0.61-0.72,0.9-1.63,0.82-2.57c-0.08-0.94-0.52-1.79-1.24-2.39
		c-1.48-1.25-3.71-1.06-4.96,0.42c-0.61,0.72-0.9,1.63-0.82,2.57c0.02,0.19,0.05,0.37,0.09,0.55
		C283.88,111.24,284.28,111.88,284.85,112.36z"/>
	
		<radialGradient id="SVGID_00000177485271300911191860000008001946593179539343_" cx="203.0019" cy="195.9381" r="340.4074" gradientUnits="userSpaceOnUse">
		<stop  offset="0.1075" style="stop-color:#62ADD6"/>
		<stop  offset="0.1543" style="stop-color:#62ADD3"/>
		<stop  offset="0.5251" style="stop-color:#5CAFB6"/>
	</radialGradient>
	<path style="fill:url(#SVGID_00000177485271300911191860000008001946593179539343_);" d="M294.19,101.3
		c1.37,1.16,3.44,0.99,4.6-0.39c1.16-1.37,0.99-3.43-0.39-4.6c-1.37-1.16-3.44-0.99-4.6,0.39c-0.7,0.83-0.91,1.91-0.67,2.89
		C293.29,100.24,293.64,100.84,294.19,101.3z"/>
	
		<radialGradient id="SVGID_00000016037069304372564500000011262861691521386889_" cx="203.0019" cy="195.9381" r="340.4074" gradientUnits="userSpaceOnUse">
		<stop  offset="0.1075" style="stop-color:#62ADD6"/>
		<stop  offset="0.1543" style="stop-color:#62ADD3"/>
		<stop  offset="0.5251" style="stop-color:#5CAFB6"/>
	</radialGradient>
	<path style="fill:url(#SVGID_00000016037069304372564500000011262861691521386889_);" d="M303.52,90.24
		c0.61,0.52,1.39,0.77,2.19,0.7c0.8-0.07,1.53-0.44,2.04-1.06c1.07-1.27,0.91-3.17-0.36-4.23c-1.27-1.07-3.16-0.91-4.23,0.36
		c-0.52,0.61-0.77,1.39-0.7,2.19c0.01,0.16,0.04,0.32,0.08,0.47C302.7,89.28,303.03,89.83,303.52,90.24z"/>
	
		<radialGradient id="SVGID_00000072991150402077813560000001091996474382853015_" cx="203.0019" cy="195.9381" r="340.4074" gradientUnits="userSpaceOnUse">
		<stop  offset="0.1075" style="stop-color:#62ADD6"/>
		<stop  offset="0.1543" style="stop-color:#62ADD3"/>
		<stop  offset="0.5251" style="stop-color:#5CAFB6"/>
	</radialGradient>
	<path style="fill:url(#SVGID_00000072991150402077813560000001091996474382853015_);" d="M239.01,114.13
		c-0.32,0.8-0.39,1.66-0.18,2.48c0.05,0.21,0.12,0.41,0.2,0.61c0.42,0.99,1.2,1.76,2.2,2.17c1,0.41,2.1,0.4,3.09-0.02
		s1.77-1.2,2.17-2.2c0.84-2.07-0.16-4.42-2.21-5.26C242.21,111.07,239.85,112.07,239.01,114.13z"/>
	
		<radialGradient id="SVGID_00000046298518057758337840000009925078328732144042_" cx="203.0019" cy="195.9381" r="340.4074" gradientUnits="userSpaceOnUse">
		<stop  offset="0.1075" style="stop-color:#62ADD6"/>
		<stop  offset="0.1543" style="stop-color:#62ADD3"/>
		<stop  offset="0.5251" style="stop-color:#5CAFB6"/>
	</radialGradient>
	<path style="fill:url(#SVGID_00000046298518057758337840000009925078328732144042_);" d="M244.63,103.95
		c0.39,0.93,1.12,1.65,2.06,2.03c0.93,0.38,1.96,0.38,2.89-0.02c0.93-0.39,1.65-1.12,2.03-2.06c0.79-1.93-0.14-4.14-2.07-4.93
		c-1.93-0.79-4.14,0.14-4.93,2.07c-0.3,0.75-0.36,1.55-0.17,2.32C244.49,103.57,244.55,103.76,244.63,103.95z"/>
	
		<radialGradient id="SVGID_00000006673646484300629190000000683917150373693572_" cx="203.0019" cy="195.9381" r="340.4074" gradientUnits="userSpaceOnUse">
		<stop  offset="0.1075" style="stop-color:#62ADD6"/>
		<stop  offset="0.1543" style="stop-color:#62ADD3"/>
		<stop  offset="0.5251" style="stop-color:#5CAFB6"/>
	</radialGradient>
	<path style="fill:url(#SVGID_00000006673646484300629190000000683917150373693572_);" d="M250.23,90.69
		c0.37,0.87,1.05,1.54,1.92,1.89c1.8,0.73,3.86-0.13,4.59-1.93c0.73-1.8-0.13-3.86-1.93-4.59c-0.87-0.35-1.83-0.35-2.69,0.01
		c-0.87,0.37-1.54,1.05-1.89,1.92c-0.28,0.7-0.34,1.45-0.16,2.16C250.1,90.34,250.16,90.51,250.23,90.69z"/>
	
		<radialGradient id="SVGID_00000111884941924769144180000008916516712526910139_" cx="203.0019" cy="195.9381" r="340.4074" gradientUnits="userSpaceOnUse">
		<stop  offset="0.1075" style="stop-color:#62ADD6"/>
		<stop  offset="0.1543" style="stop-color:#62ADD3"/>
		<stop  offset="0.5251" style="stop-color:#5CAFB6"/>
	</radialGradient>
	<path style="fill:url(#SVGID_00000111884941924769144180000008916516712526910139_);" d="M255.83,77.42
		c0.34,0.8,0.97,1.43,1.78,1.75c0.81,0.33,1.69,0.32,2.5-0.01c0.8-0.34,1.43-0.97,1.76-1.78c0.33-0.81,0.32-1.7-0.01-2.5
		c-0.34-0.8-0.97-1.43-1.78-1.76c-0.81-0.33-1.69-0.32-2.5,0.01c-0.8,0.34-1.43,0.97-1.76,1.78c-0.26,0.64-0.31,1.34-0.15,2
		C255.71,77.1,255.77,77.26,255.83,77.42z"/>
	
		<radialGradient id="SVGID_00000076563099239331061600000007553574839147654810_" cx="203.0019" cy="195.9381" r="340.4074" gradientUnits="userSpaceOnUse">
		<stop  offset="0.1075" style="stop-color:#62ADD6"/>
		<stop  offset="0.1543" style="stop-color:#62ADD3"/>
		<stop  offset="0.5251" style="stop-color:#5CAFB6"/>
	</radialGradient>
	<path style="fill:url(#SVGID_00000076563099239331061600000007553574839147654810_);" d="M261.44,64.16
		c0.31,0.74,0.89,1.31,1.64,1.62c0.74,0.3,1.56,0.3,2.3-0.01c0.74-0.31,1.31-0.89,1.62-1.63c0.62-1.54-0.11-3.29-1.65-3.91
		c-0.74-0.3-1.56-0.3-2.3,0.01c-0.74,0.31-1.31,0.89-1.62,1.63c-0.24,0.59-0.29,1.24-0.14,1.85
		C261.33,63.86,261.37,64.01,261.44,64.16z"/>
	
		<radialGradient id="SVGID_00000158003333513109874900000006197599727731834501_" cx="203.0019" cy="195.9381" r="340.4074" gradientUnits="userSpaceOnUse">
		<stop  offset="0.1075" style="stop-color:#62ADD6"/>
		<stop  offset="0.1543" style="stop-color:#62ADD3"/>
		<stop  offset="0.5251" style="stop-color:#5CAFB6"/>
	</radialGradient>
	<path style="fill:url(#SVGID_00000158003333513109874900000006197599727731834501_);" d="M212.83,112.74
		c1.08,0.08,2.12-0.27,2.93-0.97c0.82-0.71,1.31-1.69,1.39-2.76c0.16-2.22-1.51-4.16-3.73-4.32c-2.22-0.16-4.16,1.51-4.32,3.73
		c-0.03,0.43,0.01,0.86,0.11,1.26C209.61,111.33,211.04,112.61,212.83,112.74z"/>
	
		<radialGradient id="SVGID_00000043458540402842641840000009658750124894268587_" cx="203.0019" cy="195.9381" r="340.4074" gradientUnits="userSpaceOnUse">
		<stop  offset="0.1075" style="stop-color:#62ADD6"/>
		<stop  offset="0.1543" style="stop-color:#62ADD3"/>
		<stop  offset="0.5251" style="stop-color:#5CAFB6"/>
	</radialGradient>
	<path style="fill:url(#SVGID_00000043458540402842641840000009658750124894268587_);" d="M211.3,97.01
		c0.66,0.76,1.58,1.23,2.58,1.3c2.08,0.15,3.89-1.41,4.04-3.49c0.15-2.08-1.41-3.89-3.49-4.04c-1.01-0.07-1.98,0.25-2.75,0.91
		c-0.76,0.66-1.22,1.58-1.3,2.58c-0.03,0.4,0,0.8,0.1,1.18C210.63,96.02,210.9,96.55,211.3,97.01z"/>
	
		<radialGradient id="SVGID_00000090295675765262221560000016033319436064895882_" cx="203.0019" cy="195.9381" r="340.4074" gradientUnits="userSpaceOnUse">
		<stop  offset="0.1075" style="stop-color:#62ADD6"/>
		<stop  offset="0.1543" style="stop-color:#62ADD3"/>
		<stop  offset="0.5251" style="stop-color:#5CAFB6"/>
	</radialGradient>
	<path style="fill:url(#SVGID_00000090295675765262221560000016033319436064895882_);" d="M212.53,82.66
		c0.61,0.71,1.47,1.14,2.41,1.21c0.94,0.07,1.85-0.23,2.56-0.85c0.71-0.61,1.14-1.47,1.21-2.41c0.07-0.93-0.23-1.85-0.85-2.56
		c-0.61-0.71-1.47-1.14-2.41-1.21c-0.94-0.07-1.85,0.23-2.56,0.85c-0.71,0.61-1.14,1.47-1.21,2.41c-0.03,0.38,0,0.75,0.09,1.1
		C211.9,81.74,212.16,82.24,212.53,82.66z"/>
	
		<radialGradient id="SVGID_00000122693605759552007070000011928201485409500858_" cx="203.0019" cy="195.9381" r="340.4074" gradientUnits="userSpaceOnUse">
		<stop  offset="0.1075" style="stop-color:#62ADD6"/>
		<stop  offset="0.1543" style="stop-color:#62ADD3"/>
		<stop  offset="0.5251" style="stop-color:#5CAFB6"/>
	</radialGradient>
	<path style="fill:url(#SVGID_00000122693605759552007070000011928201485409500858_);" d="M215.99,69.44
		c0.87,0.06,1.71-0.21,2.37-0.78c0.66-0.57,1.06-1.36,1.12-2.23c0.13-1.79-1.22-3.36-3.02-3.49c-0.87-0.06-1.71,0.22-2.37,0.79
		c-0.66,0.57-1.06,1.36-1.12,2.23c-0.03,0.35,0.01,0.69,0.09,1.01C213.38,68.3,214.54,69.33,215.99,69.44z"/>
	
		<radialGradient id="SVGID_00000144295991427730581290000014686101166448920219_" cx="203.0019" cy="195.9381" r="340.4074" gradientUnits="userSpaceOnUse">
		<stop  offset="0.1075" style="stop-color:#62ADD6"/>
		<stop  offset="0.1543" style="stop-color:#62ADD3"/>
		<stop  offset="0.5251" style="stop-color:#5CAFB6"/>
	</radialGradient>
	<path style="fill:url(#SVGID_00000144295991427730581290000014686101166448920219_);" d="M217.04,55c0.8,0.06,1.57-0.2,2.18-0.72
		c0.61-0.53,0.97-1.25,1.03-2.05c0.06-0.8-0.2-1.58-0.72-2.18c-0.53-0.61-1.25-0.97-2.05-1.03c-1.65-0.12-3.09,1.12-3.21,2.78
		c-0.02,0.32,0.01,0.64,0.08,0.93C214.64,53.95,215.71,54.91,217.04,55z"/>
	
		<radialGradient id="SVGID_00000173123334641462733130000014845983002571660735_" cx="203.0019" cy="195.9381" r="340.4074" gradientUnits="userSpaceOnUse">
		<stop  offset="0.1075" style="stop-color:#62ADD6"/>
		<stop  offset="0.1543" style="stop-color:#62ADD3"/>
		<stop  offset="0.5251" style="stop-color:#5CAFB6"/>
	</radialGradient>
	<path style="fill:url(#SVGID_00000173123334641462733130000014845983002571660735_);" d="M181.84,107.36
		c-2.16,0.53-3.49,2.72-2.95,4.89c0.53,2.16,2.72,3.49,4.89,2.96c2.16-0.53,3.49-2.72,2.95-4.89
		C186.19,108.15,184,106.83,181.84,107.36z"/>
	
		<radialGradient id="SVGID_00000021807423928370746420000001572612781339353218_" cx="203.0019" cy="195.9381" r="340.4074" gradientUnits="userSpaceOnUse">
		<stop  offset="0.1075" style="stop-color:#62ADD6"/>
		<stop  offset="0.1543" style="stop-color:#62ADD3"/>
		<stop  offset="0.5251" style="stop-color:#5CAFB6"/>
	</radialGradient>
	<path style="fill:url(#SVGID_00000021807423928370746420000001572612781339353218_);" d="M178.5,93.81
		c-2.02,0.5-3.26,2.55-2.77,4.57c0.5,2.02,2.55,3.26,4.57,2.77c2.02-0.5,3.26-2.55,2.76-4.57C182.58,94.55,180.52,93.31,178.5,93.81
		z"/>
	
		<radialGradient id="SVGID_00000009576132804079471880000012165061662385885824_" cx="203.0019" cy="195.9381" r="340.4074" gradientUnits="userSpaceOnUse">
		<stop  offset="0.1075" style="stop-color:#62ADD6"/>
		<stop  offset="0.1543" style="stop-color:#62ADD3"/>
		<stop  offset="0.5251" style="stop-color:#5CAFB6"/>
	</radialGradient>
	<path style="fill:url(#SVGID_00000009576132804079471880000012165061662385885824_);" d="M172.59,84.51
		c0.46,1.89,2.37,3.04,4.26,2.58c1.88-0.46,3.04-2.37,2.58-4.26c-0.46-1.89-2.38-3.04-4.26-2.58
		C173.28,80.72,172.13,82.63,172.59,84.51z"/>
	
		<radialGradient id="SVGID_00000132796180479540169650000004709799691630529446_" cx="203.0019" cy="195.9381" r="340.4074" gradientUnits="userSpaceOnUse">
		<stop  offset="0.1075" style="stop-color:#62ADD6"/>
		<stop  offset="0.1543" style="stop-color:#62ADD3"/>
		<stop  offset="0.5251" style="stop-color:#5CAFB6"/>
	</radialGradient>
	<path style="fill:url(#SVGID_00000132796180479540169650000004709799691630529446_);" d="M169.44,70.65
		c0.43,1.75,2.2,2.82,3.95,2.39c1.75-0.43,2.82-2.2,2.39-3.95s-2.2-2.82-3.95-2.39C170.08,67.13,169.01,68.9,169.44,70.65z"/>
	
		<radialGradient id="SVGID_00000086681581953008051130000018202703957565653661_" cx="203.0019" cy="195.9381" r="340.4074" gradientUnits="userSpaceOnUse">
		<stop  offset="0.1075" style="stop-color:#62ADD6"/>
		<stop  offset="0.1543" style="stop-color:#62ADD3"/>
		<stop  offset="0.5251" style="stop-color:#5CAFB6"/>
	</radialGradient>
	<path style="fill:url(#SVGID_00000086681581953008051130000018202703957565653661_);" d="M169.93,58.98
		c1.61-0.4,2.59-2.03,2.2-3.63c-0.4-1.61-2.03-2.6-3.63-2.2c-1.61,0.4-2.59,2.03-2.2,3.64S168.32,59.38,169.93,58.98z"/>
	
		<radialGradient id="SVGID_00000182530764266450680500000006791450241125941179_" cx="203.0019" cy="195.9381" r="340.4074" gradientUnits="userSpaceOnUse">
		<stop  offset="0.1075" style="stop-color:#62ADD6"/>
		<stop  offset="0.1543" style="stop-color:#62ADD3"/>
		<stop  offset="0.5251" style="stop-color:#5CAFB6"/>
	</radialGradient>
	<path style="fill:url(#SVGID_00000182530764266450680500000006791450241125941179_);" d="M150.84,124.05
		c0.1,0.4,0.26,0.79,0.49,1.16c0.57,0.92,1.46,1.56,2.51,1.8c1.05,0.25,2.13,0.07,3.05-0.5c1.89-1.17,2.47-3.67,1.3-5.56
		c-1.17-1.89-3.67-2.47-5.56-1.3C151.11,120.6,150.43,122.4,150.84,124.05z"/>
	
		<radialGradient id="SVGID_00000057148651784625554250000017336322579591263669_" cx="203.0019" cy="195.9381" r="340.4074" gradientUnits="userSpaceOnUse">
		<stop  offset="0.1075" style="stop-color:#62ADD6"/>
		<stop  offset="0.1543" style="stop-color:#62ADD3"/>
		<stop  offset="0.5251" style="stop-color:#5CAFB6"/>
	</radialGradient>
	<path style="fill:url(#SVGID_00000057148651784625554250000017336322579591263669_);" d="M144.05,113c1.1,1.77,3.43,2.32,5.2,1.22
		c0.86-0.53,1.46-1.37,1.69-2.35c0.23-0.98,0.06-2-0.47-2.85c-1.1-1.77-3.43-2.32-5.2-1.22c-1.43,0.89-2.06,2.57-1.68,4.12
		C143.69,112.29,143.84,112.66,144.05,113z"/>
	
		<radialGradient id="SVGID_00000160157085939822925050000010567951877003415735_" cx="203.0019" cy="195.9381" r="340.4074" gradientUnits="userSpaceOnUse">
		<stop  offset="0.1075" style="stop-color:#62ADD6"/>
		<stop  offset="0.1543" style="stop-color:#62ADD3"/>
		<stop  offset="0.5251" style="stop-color:#5CAFB6"/>
	</radialGradient>
	<path style="fill:url(#SVGID_00000160157085939822925050000010567951877003415735_);" d="M136.77,100.79
		c0.5,0.8,1.27,1.36,2.19,1.57c0.92,0.22,1.86,0.06,2.66-0.44c0.8-0.5,1.36-1.27,1.57-2.19c0.21-0.92,0.06-1.86-0.44-2.66l0,0
		c-1.02-1.65-3.2-2.16-4.85-1.13c-0.8,0.5-1.36,1.27-1.57,2.19c-0.13,0.55-0.12,1.11,0.01,1.64
		C136.43,100.12,136.58,100.47,136.77,100.79z"/>
	
		<radialGradient id="SVGID_00000025441980113206440140000005489358323271835808_" cx="203.0019" cy="195.9381" r="340.4074" gradientUnits="userSpaceOnUse">
		<stop  offset="0.1075" style="stop-color:#62ADD6"/>
		<stop  offset="0.1543" style="stop-color:#62ADD3"/>
		<stop  offset="0.5251" style="stop-color:#5CAFB6"/>
	</radialGradient>
	<path style="fill:url(#SVGID_00000025441980113206440140000005489358323271835808_);" d="M129.5,88.57
		c0.46,0.74,1.18,1.26,2.03,1.46c0.85,0.2,1.72,0.06,2.46-0.4c1.53-0.95,2-2.96,1.05-4.49c-0.46-0.74-1.18-1.26-2.03-1.46
		c-0.85-0.2-1.72-0.06-2.46,0.4c-1.23,0.76-1.78,2.22-1.45,3.55C129.18,87.96,129.31,88.27,129.5,88.57z"/>
	
		<radialGradient id="SVGID_00000127005704094336538210000008998696524530841275_" cx="203.0019" cy="195.9381" r="340.4074" gradientUnits="userSpaceOnUse">
		<stop  offset="0.1075" style="stop-color:#62ADD6"/>
		<stop  offset="0.1543" style="stop-color:#62ADD3"/>
		<stop  offset="0.5251" style="stop-color:#5CAFB6"/>
	</radialGradient>
	<path style="fill:url(#SVGID_00000127005704094336538210000008998696524530841275_);" d="M122.22,76.36
		c0.87,1.41,2.73,1.84,4.14,0.97c1.41-0.87,1.84-2.73,0.97-4.14c-0.87-1.41-2.73-1.84-4.14-0.97c-0.68,0.42-1.16,1.09-1.34,1.87
		c-0.11,0.47-0.11,0.94,0.01,1.4C121.93,75.79,122.05,76.09,122.22,76.36z"/>
	
		<radialGradient id="SVGID_00000160912364157354938850000001436129251184990391_" cx="203.0019" cy="195.9381" r="340.4074" gradientUnits="userSpaceOnUse">
		<stop  offset="0.1075" style="stop-color:#62ADD6"/>
		<stop  offset="0.1543" style="stop-color:#62ADD3"/>
		<stop  offset="0.5251" style="stop-color:#5CAFB6"/>
	</radialGradient>
	<path style="fill:url(#SVGID_00000160912364157354938850000001436129251184990391_);" d="M134.82,145.58
		c0.7-0.82,1.03-1.87,0.94-2.94c-0.09-1.07-0.6-2.05-1.42-2.74c-1.7-1.44-4.25-1.22-5.69,0.48c-0.87,1.03-1.13,2.36-0.83,3.57
		c0.2,0.8,0.64,1.54,1.31,2.12c0.82,0.7,1.87,1.03,2.94,0.94C133.15,146.91,134.13,146.41,134.82,145.58z"/>
	
		<radialGradient id="SVGID_00000131350529914274824800000000885501067918433439_" cx="203.0019" cy="195.9381" r="340.4074" gradientUnits="userSpaceOnUse">
		<stop  offset="0.1075" style="stop-color:#62ADD6"/>
		<stop  offset="0.1543" style="stop-color:#62ADD3"/>
		<stop  offset="0.5251" style="stop-color:#5CAFB6"/>
	</radialGradient>
	<path style="fill:url(#SVGID_00000131350529914274824800000000885501067918433439_);" d="M118.44,136.7
		c0.77,0.65,1.75,0.96,2.76,0.88c1-0.08,1.92-0.56,2.57-1.33c0.65-0.77,0.96-1.75,0.88-2.76c-0.08-1-0.56-1.92-1.33-2.57
		c-1.59-1.34-3.98-1.14-5.33,0.45c-0.81,0.96-1.06,2.21-0.78,3.35C117.39,135.46,117.81,136.16,118.44,136.7z"/>
	
		<radialGradient id="SVGID_00000039112328998293458320000008636078267512855735_" cx="203.0019" cy="195.9381" r="340.4074" gradientUnits="userSpaceOnUse">
		<stop  offset="0.1075" style="stop-color:#62ADD6"/>
		<stop  offset="0.1543" style="stop-color:#62ADD3"/>
		<stop  offset="0.5251" style="stop-color:#5CAFB6"/>
	</radialGradient>
	<path style="fill:url(#SVGID_00000039112328998293458320000008636078267512855735_);" d="M107.74,127.33
		c0.72,0.61,1.63,0.9,2.57,0.82c0.94-0.08,1.79-0.52,2.39-1.24c0.61-0.72,0.9-1.63,0.82-2.57c-0.08-0.94-0.52-1.79-1.24-2.39
		c-1.48-1.25-3.71-1.06-4.96,0.42c-0.61,0.72-0.9,1.63-0.82,2.57c0.02,0.19,0.05,0.37,0.09,0.55
		C106.77,126.2,107.17,126.84,107.74,127.33z"/>
	
		<radialGradient id="SVGID_00000010992988095229589040000000845128394940697261_" cx="203.0019" cy="195.9381" r="340.4074" gradientUnits="userSpaceOnUse">
		<stop  offset="0.1075" style="stop-color:#62ADD6"/>
		<stop  offset="0.1543" style="stop-color:#62ADD3"/>
		<stop  offset="0.5251" style="stop-color:#5CAFB6"/>
	</radialGradient>
	<path style="fill:url(#SVGID_00000010992988095229589040000000845128394940697261_);" d="M97.05,117.96
		c0.67,0.56,1.51,0.83,2.38,0.76c0.87-0.07,1.66-0.48,2.22-1.15c0.56-0.67,0.83-1.51,0.76-2.38c-0.07-0.86-0.48-1.66-1.15-2.22
		c-0.67-0.56-1.51-0.83-2.38-0.76c-0.87,0.07-1.66,0.48-2.22,1.15c-0.7,0.83-0.91,1.91-0.67,2.89
		C96.14,116.9,96.5,117.5,97.05,117.96z"/>
	
		<radialGradient id="SVGID_00000001650024141941344710000011570136283893893784_" cx="203.0019" cy="195.9381" r="340.4074" gradientUnits="userSpaceOnUse">
		<stop  offset="0.1075" style="stop-color:#62ADD6"/>
		<stop  offset="0.1543" style="stop-color:#62ADD3"/>
		<stop  offset="0.5251" style="stop-color:#5CAFB6"/>
	</radialGradient>
	<path style="fill:url(#SVGID_00000001650024141941344710000011570136283893893784_);" d="M86.35,108.6
		c1.27,1.07,3.16,0.91,4.23-0.36c0.52-0.61,0.77-1.39,0.7-2.19c-0.07-0.8-0.44-1.52-1.06-2.04c-0.61-0.52-1.39-0.77-2.19-0.7
		c-0.8,0.07-1.53,0.44-2.04,1.06c-0.64,0.76-0.84,1.76-0.62,2.66C85.52,107.62,85.85,108.17,86.35,108.6z"/>
	
		<radialGradient id="SVGID_00000119838692391762769230000007094153828053306242_" cx="203.0019" cy="195.9381" r="340.4074" gradientUnits="userSpaceOnUse">
		<stop  offset="0.1075" style="stop-color:#62ADD6"/>
		<stop  offset="0.1543" style="stop-color:#62ADD3"/>
		<stop  offset="0.5251" style="stop-color:#5CAFB6"/>
	</radialGradient>
	<path style="fill:url(#SVGID_00000119838692391762769230000007094153828053306242_);" d="M117.55,172.73
		c0.99-0.42,1.76-1.2,2.17-2.2c0.84-2.06-0.15-4.42-2.21-5.26c-1-0.41-2.1-0.4-3.09,0.02c-0.99,0.42-1.76,1.2-2.17,2.2
		c-0.33,0.8-0.39,1.66-0.18,2.48c0.05,0.21,0.12,0.41,0.2,0.61c0.42,0.99,1.2,1.77,2.2,2.17
		C115.46,173.16,116.56,173.15,117.55,172.73z"/>
	
		<radialGradient id="SVGID_00000048493124622447794250000013588759952154622614_" cx="203.0019" cy="195.9381" r="340.4074" gradientUnits="userSpaceOnUse">
		<stop  offset="0.1075" style="stop-color:#62ADD6"/>
		<stop  offset="0.1543" style="stop-color:#62ADD3"/>
		<stop  offset="0.5251" style="stop-color:#5CAFB6"/>
	</radialGradient>
	<path style="fill:url(#SVGID_00000048493124622447794250000013588759952154622614_);" d="M99.33,162.22
		c-0.31,0.77-0.35,1.58-0.17,2.32c0.28,1.14,1.08,2.13,2.24,2.6c1.93,0.79,4.14-0.14,4.93-2.07c0.38-0.94,0.38-1.97-0.02-2.89
		c-0.39-0.93-1.12-1.65-2.06-2.03C102.32,159.36,100.11,160.29,99.33,162.22z"/>
	
		<radialGradient id="SVGID_00000064330123037722411040000009014776299301927348_" cx="203.0019" cy="195.9381" r="340.4074" gradientUnits="userSpaceOnUse">
		<stop  offset="0.1075" style="stop-color:#62ADD6"/>
		<stop  offset="0.1543" style="stop-color:#62ADD3"/>
		<stop  offset="0.5251" style="stop-color:#5CAFB6"/>
	</radialGradient>
	<path style="fill:url(#SVGID_00000064330123037722411040000009014776299301927348_);" d="M92.92,159.61
		c0.35-0.87,0.35-1.83-0.01-2.69c-0.37-0.87-1.05-1.54-1.92-1.89c-0.87-0.35-1.83-0.35-2.69,0.01c-0.87,0.37-1.54,1.05-1.89,1.92
		c-0.28,0.7-0.34,1.45-0.16,2.16c0.04,0.18,0.1,0.36,0.18,0.53c0.36,0.87,1.04,1.54,1.91,1.89c0.87,0.36,1.83,0.35,2.69-0.01
		C91.89,161.16,92.57,160.48,92.92,159.61z"/>
	
		<radialGradient id="SVGID_00000137832937526731883140000016431047113421442176_" cx="203.0019" cy="195.9381" r="340.4074" gradientUnits="userSpaceOnUse">
		<stop  offset="0.1075" style="stop-color:#62ADD6"/>
		<stop  offset="0.1543" style="stop-color:#62ADD3"/>
		<stop  offset="0.5251" style="stop-color:#5CAFB6"/>
	</radialGradient>
	<path style="fill:url(#SVGID_00000137832937526731883140000016431047113421442176_);" d="M75.27,155.94
		c1.67,0.68,3.57-0.12,4.25-1.79c0.68-1.67-0.13-3.57-1.79-4.25c-1.67-0.68-3.57,0.12-4.25,1.79c-0.27,0.66-0.31,1.36-0.15,2.01
		C73.57,154.68,74.26,155.53,75.27,155.94z"/>
	
		<radialGradient id="SVGID_00000129205792401692111770000012879464118836794242_" cx="203.0019" cy="195.9381" r="340.4074" gradientUnits="userSpaceOnUse">
		<stop  offset="0.1075" style="stop-color:#62ADD6"/>
		<stop  offset="0.1543" style="stop-color:#62ADD3"/>
		<stop  offset="0.5251" style="stop-color:#5CAFB6"/>
	</radialGradient>
	<path style="fill:url(#SVGID_00000129205792401692111770000012879464118836794242_);" d="M64.5,150.32
		c0.74-0.31,1.31-0.89,1.62-1.63c0.31-0.74,0.3-1.56-0.01-2.3c-0.31-0.74-0.89-1.31-1.63-1.62c-0.74-0.3-1.56-0.3-2.3,0.01
		c-0.74,0.31-1.31,0.89-1.62,1.63c-0.25,0.61-0.28,1.25-0.13,1.85c0.22,0.9,0.86,1.69,1.78,2.07
		C62.94,150.64,63.76,150.64,64.5,150.32z"/>
	
		<radialGradient id="SVGID_00000069369125707991347700000003948257047047739060_" cx="203.0019" cy="195.9381" r="340.4074" gradientUnits="userSpaceOnUse">
		<stop  offset="0.1075" style="stop-color:#62ADD6"/>
		<stop  offset="0.1543" style="stop-color:#62ADD3"/>
		<stop  offset="0.5251" style="stop-color:#5CAFB6"/>
	</radialGradient>
	<path style="fill:url(#SVGID_00000069369125707991347700000003948257047047739060_);" d="M108.76,202.67
		c1.08,0.08,2.12-0.27,2.93-0.97c0.82-0.71,1.31-1.69,1.39-2.76c0.08-1.07-0.27-2.12-0.97-2.93c-0.71-0.82-1.68-1.31-2.76-1.39
		c-1.08-0.08-2.12,0.27-2.93,0.97c-0.82,0.71-1.31,1.69-1.39,2.76c-0.03,0.43,0.01,0.85,0.11,1.26c0.15,0.61,0.44,1.18,0.87,1.67
		C106.71,202.09,107.69,202.59,108.76,202.67z"/>
	
		<radialGradient id="SVGID_00000018924430408145546690000008771978547066197664_" cx="203.0019" cy="195.9381" r="340.4074" gradientUnits="userSpaceOnUse">
		<stop  offset="0.1075" style="stop-color:#62ADD6"/>
		<stop  offset="0.1543" style="stop-color:#62ADD3"/>
		<stop  offset="0.5251" style="stop-color:#5CAFB6"/>
	</radialGradient>
	<path style="fill:url(#SVGID_00000018924430408145546690000008771978547066197664_);" d="M98.65,197.88
		c0.07-1.01-0.25-1.98-0.91-2.75c-0.66-0.76-1.58-1.22-2.58-1.3c-1.01-0.07-1.98,0.25-2.74,0.91c-0.76,0.66-1.23,1.58-1.3,2.58
		c-0.03,0.4,0,0.8,0.1,1.18c0.14,0.57,0.41,1.1,0.81,1.56c0.66,0.76,1.58,1.22,2.59,1.3C96.68,201.52,98.49,199.96,98.65,197.88z"/>
	
		<radialGradient id="SVGID_00000104707811258418240550000008223412462050946960_" cx="203.0019" cy="195.9381" r="340.4074" gradientUnits="userSpaceOnUse">
		<stop  offset="0.1075" style="stop-color:#62ADD6"/>
		<stop  offset="0.1543" style="stop-color:#62ADD3"/>
		<stop  offset="0.5251" style="stop-color:#5CAFB6"/>
	</radialGradient>
	<path style="fill:url(#SVGID_00000104707811258418240550000008223412462050946960_);" d="M84.21,196.83
		c0.07-0.93-0.23-1.85-0.85-2.56c-0.61-0.71-1.47-1.14-2.41-1.21c-1.94-0.14-3.63,1.32-3.77,3.26c-0.03,0.37,0,0.75,0.09,1.1
		c0.13,0.53,0.39,1.03,0.76,1.46c0.62,0.71,1.47,1.14,2.41,1.21s1.85-0.23,2.56-0.85C83.71,198.62,84.14,197.76,84.21,196.83z"/>
	
		<radialGradient id="SVGID_00000026155575434613034110000009109607278628925837_" cx="203.0019" cy="195.9381" r="340.4074" gradientUnits="userSpaceOnUse">
		<stop  offset="0.1075" style="stop-color:#62ADD6"/>
		<stop  offset="0.1543" style="stop-color:#62ADD3"/>
		<stop  offset="0.5251" style="stop-color:#5CAFB6"/>
	</radialGradient>
	<path style="fill:url(#SVGID_00000026155575434613034110000009109607278628925837_);" d="M69.78,195.78
		c0.13-1.79-1.22-3.36-3.02-3.49c-1.79-0.13-3.36,1.22-3.49,3.02c-0.03,0.35,0.01,0.69,0.09,1.01c0.33,1.34,1.49,2.37,2.93,2.48
		C68.08,198.92,69.65,197.57,69.78,195.78z"/>
	
		<radialGradient id="SVGID_00000152944011472622155680000000236610899599685530_" cx="203.0019" cy="195.9381" r="340.4074" gradientUnits="userSpaceOnUse">
		<stop  offset="0.1075" style="stop-color:#62ADD6"/>
		<stop  offset="0.1543" style="stop-color:#62ADD3"/>
		<stop  offset="0.5251" style="stop-color:#5CAFB6"/>
	</radialGradient>
	<path style="fill:url(#SVGID_00000152944011472622155680000000236610899599685530_);" d="M55.34,194.72
		c0.12-1.65-1.13-3.09-2.78-3.21c-1.65-0.12-3.09,1.13-3.21,2.78c-0.02,0.32,0,0.64,0.08,0.93c0.3,1.23,1.37,2.18,2.7,2.28
		C53.78,197.62,55.22,196.37,55.34,194.72z"/>
	
		<radialGradient id="SVGID_00000023260619649029492180000017941491853602467501_" cx="203.0019" cy="195.9381" r="340.4074" gradientUnits="userSpaceOnUse">
		<stop  offset="0.1075" style="stop-color:#62ADD6"/>
		<stop  offset="0.1543" style="stop-color:#62ADD3"/>
		<stop  offset="0.5251" style="stop-color:#5CAFB6"/>
	</radialGradient>
	<path style="fill:url(#SVGID_00000023260619649029492180000017941491853602467501_);" d="M112.58,232.88
		c2.16-0.53,3.49-2.72,2.95-4.89c-0.53-2.16-2.72-3.49-4.89-2.95c-2.16,0.53-3.49,2.72-2.95,4.89
		C108.23,232.09,110.42,233.41,112.58,232.88z"/>
	
		<radialGradient id="SVGID_00000113314387996545746910000012531633209828572853_" cx="203.0019" cy="195.9381" r="340.4074" gradientUnits="userSpaceOnUse">
		<stop  offset="0.1075" style="stop-color:#62ADD6"/>
		<stop  offset="0.1543" style="stop-color:#62ADD3"/>
		<stop  offset="0.5251" style="stop-color:#5CAFB6"/>
	</radialGradient>
	<path style="fill:url(#SVGID_00000113314387996545746910000012531633209828572853_);" d="M98.72,236.03
		c2.02-0.5,3.26-2.55,2.77-4.57c-0.5-2.02-2.55-3.26-4.57-2.77c-2.02,0.5-3.26,2.55-2.77,4.57
		C94.64,235.28,96.69,236.52,98.72,236.03z"/>
	
		<radialGradient id="SVGID_00000079459179339804984210000001800953662086547861_" cx="203.0019" cy="195.9381" r="340.4074" gradientUnits="userSpaceOnUse">
		<stop  offset="0.1075" style="stop-color:#62ADD6"/>
		<stop  offset="0.1543" style="stop-color:#62ADD3"/>
		<stop  offset="0.5251" style="stop-color:#5CAFB6"/>
	</radialGradient>
	<path style="fill:url(#SVGID_00000079459179339804984210000001800953662086547861_);" d="M83.17,232.34
		c-1.89,0.46-3.04,2.38-2.58,4.26c0.46,1.89,2.37,3.04,4.26,2.58c1.89-0.46,3.04-2.38,2.58-4.26
		C86.97,233.03,85.06,231.87,83.17,232.34z"/>
	
		<radialGradient id="SVGID_00000103266172827920817220000009188717224394516660_" cx="203.0019" cy="195.9381" r="340.4074" gradientUnits="userSpaceOnUse">
		<stop  offset="0.1075" style="stop-color:#62ADD6"/>
		<stop  offset="0.1543" style="stop-color:#62ADD3"/>
		<stop  offset="0.5251" style="stop-color:#5CAFB6"/>
	</radialGradient>
	<path style="fill:url(#SVGID_00000103266172827920817220000009188717224394516660_);" d="M73.38,238.37
		c-0.43-1.75-2.2-2.82-3.95-2.39c-1.75,0.43-2.82,2.2-2.39,3.95c0.43,1.75,2.2,2.82,3.95,2.39
		C72.73,241.89,73.81,240.12,73.38,238.37z"/>
	
		<radialGradient id="SVGID_00000011740124417712945750000016829876866982405029_" cx="203.0019" cy="195.9381" r="340.4074" gradientUnits="userSpaceOnUse">
		<stop  offset="0.1075" style="stop-color:#62ADD6"/>
		<stop  offset="0.1543" style="stop-color:#62ADD3"/>
		<stop  offset="0.5251" style="stop-color:#5CAFB6"/>
	</radialGradient>
	<path style="fill:url(#SVGID_00000011740124417712945750000016829876866982405029_);" d="M55.69,239.63
		c-1.61,0.4-2.59,2.03-2.2,3.63c0.4,1.61,2.03,2.59,3.63,2.2c1.61-0.4,2.6-2.03,2.2-3.63C58.93,240.22,57.3,239.24,55.69,239.63z"/>
	
		<radialGradient id="SVGID_00000112606610742489514910000012455122157434920100_" cx="203.0019" cy="195.9381" r="340.4074" gradientUnits="userSpaceOnUse">
		<stop  offset="0.1075" style="stop-color:#62ADD6"/>
		<stop  offset="0.1543" style="stop-color:#62ADD3"/>
		<stop  offset="0.5251" style="stop-color:#5CAFB6"/>
	</radialGradient>
	<path style="fill:url(#SVGID_00000112606610742489514910000012455122157434920100_);" d="M125.55,260.43
		c0.92-0.57,1.56-1.46,1.8-2.51c0.25-1.05,0.07-2.13-0.5-3.05c-1.17-1.89-3.67-2.48-5.56-1.3c-0.92,0.57-1.56,1.46-1.8,2.51
		c-0.15,0.63-0.14,1.27,0.01,1.88c0.1,0.41,0.26,0.8,0.49,1.17C121.17,261.02,123.66,261.61,125.55,260.43z"/>
	
		<radialGradient id="SVGID_00000051367129173748326360000011835576879915200901_" cx="203.0019" cy="195.9381" r="340.4074" gradientUnits="userSpaceOnUse">
		<stop  offset="0.1075" style="stop-color:#62ADD6"/>
		<stop  offset="0.1543" style="stop-color:#62ADD3"/>
		<stop  offset="0.5251" style="stop-color:#5CAFB6"/>
	</radialGradient>
	<path style="fill:url(#SVGID_00000051367129173748326360000011835576879915200901_);" d="M114.56,262.51
		c-0.53-0.86-1.37-1.46-2.35-1.69c-0.98-0.23-2-0.06-2.85,0.47s-1.46,1.37-1.69,2.35c-0.14,0.59-0.13,1.19,0.01,1.76
		c0.09,0.38,0.25,0.75,0.46,1.09c0.53,0.86,1.37,1.46,2.35,1.69c0.98,0.23,2,0.06,2.85-0.47
		C115.11,266.61,115.65,264.27,114.56,262.51z"/>
	
		<radialGradient id="SVGID_00000145767749599011426530000007806506898670388115_" cx="203.0019" cy="195.9381" r="340.4074" gradientUnits="userSpaceOnUse">
		<stop  offset="0.1075" style="stop-color:#62ADD6"/>
		<stop  offset="0.1543" style="stop-color:#62ADD3"/>
		<stop  offset="0.5251" style="stop-color:#5CAFB6"/>
	</radialGradient>
	<path style="fill:url(#SVGID_00000145767749599011426530000007806506898670388115_);" d="M102.7,272.8
		c0.22-0.91,0.06-1.86-0.44-2.66c-0.5-0.8-1.27-1.36-2.19-1.57c-0.92-0.22-1.86-0.06-2.66,0.44s-1.36,1.27-1.57,2.19
		c-0.13,0.55-0.12,1.11,0.01,1.64c0.09,0.36,0.23,0.7,0.43,1.02c1.02,1.65,3.2,2.16,4.85,1.13
		C101.92,274.49,102.48,273.71,102.7,272.8z"/>
	
		<radialGradient id="SVGID_00000178906720289080721360000011540163788078704539_" cx="203.0019" cy="195.9381" r="340.4074" gradientUnits="userSpaceOnUse">
		<stop  offset="0.1075" style="stop-color:#62ADD6"/>
		<stop  offset="0.1543" style="stop-color:#62ADD3"/>
		<stop  offset="0.5251" style="stop-color:#5CAFB6"/>
	</radialGradient>
	<path style="fill:url(#SVGID_00000178906720289080721360000011540163788078704539_);" d="M85.47,276.72
		c-0.74,0.46-1.26,1.18-1.46,2.03c-0.12,0.51-0.12,1.03,0.01,1.52c0.08,0.33,0.21,0.65,0.4,0.94c0.46,0.74,1.18,1.26,2.03,1.46
		c0.85,0.2,1.72,0.06,2.46-0.4c0.74-0.46,1.26-1.18,1.46-2.03c0.2-0.85,0.05-1.72-0.4-2.46C89.01,276.24,87,275.77,85.47,276.72z"/>
	
		<radialGradient id="SVGID_00000015312511947220848250000002813422788703957396_" cx="203.0019" cy="195.9381" r="340.4074" gradientUnits="userSpaceOnUse">
		<stop  offset="0.1075" style="stop-color:#62ADD6"/>
		<stop  offset="0.1543" style="stop-color:#62ADD3"/>
		<stop  offset="0.5251" style="stop-color:#5CAFB6"/>
	</radialGradient>
	<path style="fill:url(#SVGID_00000015312511947220848250000002813422788703957396_);" d="M73.53,284.44
		c-0.68,0.42-1.16,1.09-1.34,1.87c-0.11,0.47-0.11,0.94,0.01,1.4c0.07,0.3,0.2,0.6,0.37,0.87c0.42,0.68,1.09,1.16,1.87,1.34
		c0.78,0.18,1.59,0.05,2.27-0.37c0.68-0.42,1.16-1.09,1.34-1.87c0.18-0.78,0.05-1.59-0.37-2.27C76.79,284,74.94,283.56,73.53,284.44
		z"/>
	
		<radialGradient id="SVGID_00000167358646396045529740000008065037178604819117_" cx="203.0019" cy="195.9381" r="340.4074" gradientUnits="userSpaceOnUse">
		<stop  offset="0.1075" style="stop-color:#62ADD6"/>
		<stop  offset="0.1543" style="stop-color:#62ADD3"/>
		<stop  offset="0.5251" style="stop-color:#5CAFB6"/>
	</radialGradient>
	<path style="fill:url(#SVGID_00000167358646396045529740000008065037178604819117_);" d="M145.92,276.94
		c-1.7-1.44-4.25-1.22-5.69,0.48c-0.7,0.82-1.03,1.87-0.94,2.94c0.02,0.22,0.05,0.43,0.1,0.63c0.2,0.82,0.66,1.56,1.32,2.11
		c0.82,0.7,1.87,1.03,2.94,0.94c1.07-0.09,2.05-0.59,2.74-1.42C147.84,280.93,147.62,278.37,145.92,276.94z"/>
	
		<radialGradient id="SVGID_00000045608843077979312240000013433944273786231183_" cx="203.0019" cy="195.9381" r="340.4074" gradientUnits="userSpaceOnUse">
		<stop  offset="0.1075" style="stop-color:#62ADD6"/>
		<stop  offset="0.1543" style="stop-color:#62ADD3"/>
		<stop  offset="0.5251" style="stop-color:#5CAFB6"/>
	</radialGradient>
	<path style="fill:url(#SVGID_00000045608843077979312240000013433944273786231183_);" d="M137.04,293.32
		c1.34-1.59,1.14-3.98-0.45-5.32c-0.77-0.65-1.75-0.96-2.76-0.88c-1.01,0.08-1.92,0.56-2.57,1.33c-0.81,0.96-1.06,2.21-0.78,3.34
		c0.18,0.75,0.6,1.45,1.23,1.98C133.3,295.12,135.69,294.92,137.04,293.32z"/>
	
		<radialGradient id="SVGID_00000044141575354560572090000003864331895333443256_" cx="203.0019" cy="195.9381" r="340.4074" gradientUnits="userSpaceOnUse">
		<stop  offset="0.1075" style="stop-color:#62ADD6"/>
		<stop  offset="0.1543" style="stop-color:#62ADD3"/>
		<stop  offset="0.5251" style="stop-color:#5CAFB6"/>
	</radialGradient>
	<path style="fill:url(#SVGID_00000044141575354560572090000003864331895333443256_);" d="M122.29,299.48
		c-0.61,0.72-0.9,1.63-0.82,2.57c0.02,0.19,0.05,0.37,0.09,0.55c0.18,0.72,0.57,1.36,1.15,1.84c1.48,1.25,3.71,1.06,4.96-0.42
		c0.61-0.72,0.9-1.63,0.82-2.57c-0.08-0.94-0.52-1.79-1.24-2.39C125.76,297.81,123.54,297.99,122.29,299.48z"/>
	
		<radialGradient id="SVGID_00000167359813003926502980000012978085235469299090_" cx="203.0019" cy="195.9381" r="340.4074" gradientUnits="userSpaceOnUse">
		<stop  offset="0.1075" style="stop-color:#62ADD6"/>
		<stop  offset="0.1543" style="stop-color:#62ADD3"/>
		<stop  offset="0.5251" style="stop-color:#5CAFB6"/>
	</radialGradient>
	<path style="fill:url(#SVGID_00000167359813003926502980000012978085235469299090_);" d="M113.32,310.51
		c-0.56,0.66-0.83,1.51-0.76,2.38c0.01,0.17,0.04,0.35,0.08,0.51c0.16,0.66,0.53,1.26,1.06,1.7c1.37,1.16,3.44,0.99,4.6-0.39
		c0.56-0.67,0.83-1.51,0.76-2.38c-0.07-0.87-0.48-1.66-1.15-2.22C116.54,308.96,114.48,309.13,113.32,310.51z"/>
	
		<radialGradient id="SVGID_00000155128781604915859280000009829185701285637258_" cx="203.0019" cy="195.9381" r="340.4466" gradientUnits="userSpaceOnUse">
		<stop  offset="0.1075" style="stop-color:#62ADD6"/>
		<stop  offset="0.1543" style="stop-color:#62ADD3"/>
		<stop  offset="0.5251" style="stop-color:#5CAFB6"/>
	</radialGradient>
	<path style="fill:url(#SVGID_00000155128781604915859280000009829185701285637258_);" d="M106.39,320.48
		c-0.8,0.07-1.53,0.44-2.04,1.06c-0.64,0.76-0.84,1.76-0.62,2.66c0.15,0.59,0.47,1.15,0.98,1.57c0.61,0.52,1.39,0.77,2.19,0.7
		c0.8-0.07,1.52-0.44,2.04-1.06c1.07-1.27,0.91-3.17-0.36-4.23C107.96,320.66,107.19,320.41,106.39,320.48z"/>
	
		<radialGradient id="SVGID_00000057827011508411249500000006961077960836770236_" cx="203.0019" cy="195.9381" r="340.4074" gradientUnits="userSpaceOnUse">
		<stop  offset="0.1075" style="stop-color:#62ADD6"/>
		<stop  offset="0.1543" style="stop-color:#62ADD3"/>
		<stop  offset="0.5251" style="stop-color:#5CAFB6"/>
	</radialGradient>
	<path style="fill:url(#SVGID_00000057827011508411249500000006961077960836770236_);" d="M173.09,297.3
		c0.84-2.06-0.15-4.42-2.22-5.26c-1-0.41-2.1-0.4-3.09,0.02c-0.99,0.42-1.76,1.2-2.17,2.2c-0.33,0.8-0.39,1.66-0.18,2.48
		c0.05,0.21,0.12,0.41,0.2,0.61c0.42,0.99,1.2,1.77,2.2,2.17C169.89,300.35,172.25,299.36,173.09,297.3z"/>
	
		<radialGradient id="SVGID_00000101072145231011609180000003674233427226779569_" cx="203.0019" cy="195.9381" r="340.4074" gradientUnits="userSpaceOnUse">
		<stop  offset="0.1075" style="stop-color:#62ADD6"/>
		<stop  offset="0.1543" style="stop-color:#62ADD3"/>
		<stop  offset="0.5251" style="stop-color:#5CAFB6"/>
	</radialGradient>
	<path style="fill:url(#SVGID_00000101072145231011609180000003674233427226779569_);" d="M165.41,305.44
		c-0.94-0.38-1.96-0.37-2.89,0.02c-0.93,0.39-1.65,1.12-2.03,2.06c-0.3,0.75-0.36,1.55-0.17,2.32c0.05,0.19,0.11,0.38,0.19,0.57
		c0.39,0.93,1.12,1.65,2.06,2.03c1.93,0.79,4.14-0.14,4.93-2.07C168.27,308.43,167.34,306.22,165.41,305.44z"/>
	
		<radialGradient id="SVGID_00000080194102214016857450000017911912932686533798_" cx="203.0019" cy="195.9381" r="340.4074" gradientUnits="userSpaceOnUse">
		<stop  offset="0.1075" style="stop-color:#62ADD6"/>
		<stop  offset="0.1543" style="stop-color:#62ADD3"/>
		<stop  offset="0.5251" style="stop-color:#5CAFB6"/>
	</radialGradient>
	<path style="fill:url(#SVGID_00000080194102214016857450000017911912932686533798_);" d="M159.95,318.84
		c-1.8-0.73-3.85,0.13-4.59,1.93c-0.28,0.7-0.34,1.45-0.16,2.16c0.04,0.18,0.1,0.36,0.18,0.53c0.36,0.87,1.04,1.54,1.92,1.89
		c1.8,0.73,3.86-0.13,4.59-1.93c0.35-0.87,0.35-1.83-0.01-2.69C161.5,319.87,160.82,319.2,159.95,318.84z"/>
	
		<radialGradient id="SVGID_00000155834348911870281210000014897269370088274367_" cx="203.0019" cy="195.9381" r="340.4074" gradientUnits="userSpaceOnUse">
		<stop  offset="0.1075" style="stop-color:#62ADD6"/>
		<stop  offset="0.1543" style="stop-color:#62ADD3"/>
		<stop  offset="0.5251" style="stop-color:#5CAFB6"/>
	</radialGradient>
	<path style="fill:url(#SVGID_00000155834348911870281210000014897269370088274367_);" d="M154.49,332.24
		c-0.81-0.33-1.69-0.32-2.5,0.01c-0.8,0.34-1.43,0.97-1.76,1.78c-0.27,0.66-0.3,1.36-0.15,2.01c0.24,0.98,0.93,1.84,1.94,2.25
		c0.81,0.33,1.69,0.32,2.5-0.01c0.8-0.34,1.43-0.97,1.76-1.78C156.96,334.83,156.16,332.92,154.49,332.24z"/>
	
		<radialGradient id="SVGID_00000098925864158665724830000007605591361441605799_" cx="203.0019" cy="195.9381" r="340.4074" gradientUnits="userSpaceOnUse">
		<stop  offset="0.1075" style="stop-color:#62ADD6"/>
		<stop  offset="0.1543" style="stop-color:#62ADD3"/>
		<stop  offset="0.5251" style="stop-color:#5CAFB6"/>
	</radialGradient>
	<path style="fill:url(#SVGID_00000098925864158665724830000007605591361441605799_);" d="M149.03,345.65
		c-0.74-0.3-1.56-0.3-2.3,0.01c-0.74,0.31-1.31,0.89-1.62,1.64c-0.25,0.61-0.28,1.25-0.13,1.85c0.22,0.9,0.86,1.69,1.78,2.07
		c0.74,0.3,1.56,0.3,2.3-0.01c0.74-0.31,1.31-0.89,1.62-1.63C151.3,348.03,150.56,346.27,149.03,345.65z"/>
	
		<radialGradient id="SVGID_00000155830526586010680120000015318163286013648534_" cx="203.0019" cy="195.9381" r="340.4074" gradientUnits="userSpaceOnUse">
		<stop  offset="0.1075" style="stop-color:#62ADD6"/>
		<stop  offset="0.1543" style="stop-color:#62ADD3"/>
		<stop  offset="0.5251" style="stop-color:#5CAFB6"/>
	</radialGradient>
	<path style="fill:url(#SVGID_00000155830526586010680120000015318163286013648534_);" d="M199.27,298.68
		c-2.22-0.16-4.16,1.51-4.32,3.73c-0.03,0.43,0.01,0.86,0.11,1.26c0.41,1.65,1.84,2.93,3.63,3.06c1.08,0.08,2.12-0.27,2.93-0.97
		c0.82-0.7,1.31-1.69,1.39-2.76C203.16,300.78,201.49,298.84,199.27,298.68z"/>
	
		<radialGradient id="SVGID_00000042698696346149475650000016407109958803479967_" cx="203.0019" cy="195.9381" r="340.4074" gradientUnits="userSpaceOnUse">
		<stop  offset="0.1075" style="stop-color:#62ADD6"/>
		<stop  offset="0.1543" style="stop-color:#62ADD3"/>
		<stop  offset="0.5251" style="stop-color:#5CAFB6"/>
	</radialGradient>
	<path style="fill:url(#SVGID_00000042698696346149475650000016407109958803479967_);" d="M198.22,313.11
		c-2.08-0.15-3.89,1.42-4.04,3.5c-0.03,0.4,0.01,0.8,0.1,1.18c0.14,0.57,0.42,1.11,0.81,1.56c0.66,0.76,1.58,1.22,2.58,1.3
		c1.01,0.07,1.98-0.25,2.75-0.91c0.76-0.66,1.22-1.58,1.3-2.59C201.87,315.08,200.3,313.26,198.22,313.11z"/>
	
		<radialGradient id="SVGID_00000100376181362272912010000002521919803959881904_" cx="203.0019" cy="195.9381" r="340.4074" gradientUnits="userSpaceOnUse">
		<stop  offset="0.1075" style="stop-color:#62ADD6"/>
		<stop  offset="0.1543" style="stop-color:#62ADD3"/>
		<stop  offset="0.5251" style="stop-color:#5CAFB6"/>
	</radialGradient>
	<path style="fill:url(#SVGID_00000100376181362272912010000002521919803959881904_);" d="M197.17,327.55
		c-0.94-0.07-1.85,0.23-2.56,0.85c-0.71,0.62-1.14,1.47-1.21,2.41c-0.03,0.37,0,0.75,0.09,1.1c0.13,0.53,0.39,1.03,0.76,1.46
		c0.61,0.71,1.47,1.14,2.41,1.21c1.93,0.14,3.63-1.32,3.77-3.26C200.56,329.38,199.1,327.69,197.17,327.55z"/>
	
		<radialGradient id="SVGID_00000170977812335887690350000010234791069742055041_" cx="203.0019" cy="195.9381" r="340.4074" gradientUnits="userSpaceOnUse">
		<stop  offset="0.1075" style="stop-color:#62ADD6"/>
		<stop  offset="0.1543" style="stop-color:#62ADD3"/>
		<stop  offset="0.5251" style="stop-color:#5CAFB6"/>
	</radialGradient>
	<path style="fill:url(#SVGID_00000170977812335887690350000010234791069742055041_);" d="M196.11,341.98
		c-0.87-0.06-1.71,0.22-2.37,0.79c-0.66,0.57-1.06,1.36-1.12,2.23c-0.03,0.35,0,0.69,0.08,1.02c0.12,0.49,0.36,0.95,0.7,1.35
		c0.57,0.66,1.36,1.06,2.23,1.12c0.87,0.06,1.71-0.21,2.37-0.78c0.66-0.57,1.06-1.36,1.12-2.23
		C199.26,343.68,197.91,342.11,196.11,341.98z"/>
	
		<radialGradient id="SVGID_00000054971357883370628380000004391992923171549078_" cx="203.0019" cy="195.9381" r="340.4074" gradientUnits="userSpaceOnUse">
		<stop  offset="0.1075" style="stop-color:#62ADD6"/>
		<stop  offset="0.1543" style="stop-color:#62ADD3"/>
		<stop  offset="0.5251" style="stop-color:#5CAFB6"/>
	</radialGradient>
	<path style="fill:url(#SVGID_00000054971357883370628380000004391992923171549078_);" d="M195.06,356.42
		c-1.65-0.12-3.09,1.13-3.21,2.78c-0.02,0.32,0.01,0.64,0.08,0.93c0.3,1.23,1.37,2.18,2.7,2.28c1.65,0.12,3.09-1.13,3.21-2.78
		C197.96,357.98,196.72,356.54,195.06,356.42z"/>
	
		<radialGradient id="SVGID_00000095315485909842926620000010354501127361377947_" cx="203.0019" cy="195.9381" r="340.4074" gradientUnits="userSpaceOnUse">
		<stop  offset="0.1075" style="stop-color:#62ADD6"/>
		<stop  offset="0.1543" style="stop-color:#62ADD3"/>
		<stop  offset="0.5251" style="stop-color:#5CAFB6"/>
	</radialGradient>
	<path style="fill:url(#SVGID_00000095315485909842926620000010354501127361377947_);" d="M230.26,304.06
		c2.16-0.53,3.49-2.72,2.96-4.89c-0.53-2.16-2.72-3.49-4.89-2.95c-2.16,0.53-3.49,2.72-2.95,4.89
		C225.91,303.27,228.1,304.6,230.26,304.06z"/>
	
		<radialGradient id="SVGID_00000052068954852043888220000013644105717239730612_" cx="203.0019" cy="195.9381" r="340.4074" gradientUnits="userSpaceOnUse">
		<stop  offset="0.1075" style="stop-color:#62ADD6"/>
		<stop  offset="0.1543" style="stop-color:#62ADD3"/>
		<stop  offset="0.5251" style="stop-color:#5CAFB6"/>
	</radialGradient>
	<path style="fill:url(#SVGID_00000052068954852043888220000013644105717239730612_);" d="M233.6,317.62
		c2.02-0.5,3.26-2.55,2.76-4.57c-0.5-2.02-2.55-3.26-4.57-2.77c-2.02,0.5-3.26,2.55-2.77,4.57
		C229.52,316.87,231.58,318.11,233.6,317.62z"/>
	
		<radialGradient id="SVGID_00000124875255169146597970000018386866409741400715_" cx="203.0019" cy="195.9381" r="340.4074" gradientUnits="userSpaceOnUse">
		<stop  offset="0.1075" style="stop-color:#62ADD6"/>
		<stop  offset="0.1543" style="stop-color:#62ADD3"/>
		<stop  offset="0.5251" style="stop-color:#5CAFB6"/>
	</radialGradient>
	<path style="fill:url(#SVGID_00000124875255169146597970000018386866409741400715_);" d="M239.51,326.91
		c-0.46-1.89-2.37-3.04-4.26-2.58c-1.89,0.46-3.04,2.38-2.58,4.26c0.46,1.88,2.37,3.04,4.26,2.58
		C238.82,330.7,239.97,328.79,239.51,326.91z"/>
	
		<radialGradient id="SVGID_00000104663846857480039780000009623095248987175590_" cx="203.0019" cy="195.9381" r="340.4074" gradientUnits="userSpaceOnUse">
		<stop  offset="0.1075" style="stop-color:#62ADD6"/>
		<stop  offset="0.1543" style="stop-color:#62ADD3"/>
		<stop  offset="0.5251" style="stop-color:#5CAFB6"/>
	</radialGradient>
	<path style="fill:url(#SVGID_00000104663846857480039780000009623095248987175590_);" d="M242.66,340.77
		c-0.43-1.75-2.2-2.82-3.95-2.39c-1.75,0.43-2.82,2.2-2.39,3.95c0.43,1.75,2.2,2.82,3.95,2.39
		C242.02,344.29,243.09,342.52,242.66,340.77z"/>
	
		<radialGradient id="SVGID_00000118394444431919045640000017440627424201889469_" cx="203.0019" cy="195.9381" r="340.4074" gradientUnits="userSpaceOnUse">
		<stop  offset="0.1075" style="stop-color:#62ADD6"/>
		<stop  offset="0.1543" style="stop-color:#62ADD3"/>
		<stop  offset="0.5251" style="stop-color:#5CAFB6"/>
	</radialGradient>
	<path style="fill:url(#SVGID_00000118394444431919045640000017440627424201889469_);" d="M242.17,352.44
		c-1.61,0.4-2.59,2.03-2.2,3.64c0.4,1.61,2.03,2.59,3.63,2.2c1.61-0.4,2.59-2.03,2.2-3.63
		C245.41,353.03,243.78,352.04,242.17,352.44z"/>
</g>
<g>
	<path class="st104" d="M194.4,246.7c-1.27,0-2.24-0.48-3.21-1.32l-1.08,1.28c1.22,1.09,2.69,1.63,4.25,1.63
		c2.14,0,3.64-1.14,3.64-3.04v-0.03c0-1.69-1.12-2.46-3.27-2.98c-1.95-0.46-2.41-0.81-2.41-1.6v-0.03c0-0.67,0.61-1.21,1.66-1.21
		c0.93,0,1.85,0.36,2.76,1.05l0.96-1.35c-1.03-0.83-2.21-1.28-3.7-1.28c-2.02,0-3.47,1.21-3.47,2.95v0.03
		c0,1.88,1.22,2.52,3.39,3.04c1.89,0.43,2.3,0.83,2.3,1.56v0.03C196.21,246.19,195.51,246.7,194.4,246.7z"/>
	<path class="st104" d="M203.58,240.3c-2.36,0-4.1,1.82-4.1,4.01v0.03c0,2.18,1.73,3.97,4.07,3.97c2.37,0,4.11-1.82,4.11-4v-0.03
		C207.66,242.09,205.93,240.3,203.58,240.3z M205.9,244.35c0,1.32-0.9,2.44-2.33,2.44c-1.37,0-2.34-1.13-2.34-2.47v-0.03
		c0-1.34,0.9-2.44,2.31-2.44c1.38,0,2.36,1.12,2.36,2.47V244.35z"/>
	<path class="st104" d="M216.14,246.88l-1.06-1.05c-0.55,0.57-1.16,0.96-1.99,0.96c-1.35,0-2.3-1.1-2.3-2.47v-0.03
		c0-1.34,0.93-2.44,2.21-2.44c0.89,0,1.45,0.39,1.99,0.96l1.09-1.18c-0.71-0.78-1.62-1.32-3.07-1.32c-2.3,0-3.99,1.83-3.99,4.01
		v0.03c0,2.18,1.69,3.97,3.97,3.97C214.49,248.32,215.38,247.72,216.14,246.88z"/>
	<rect x="217.85" y="240.46" class="st104" width="1.76" height="7.68"/>
	<rect x="217.77" y="237.61" class="st104" width="1.89" height="1.67"/>
	<path class="st104" d="M225.42,248.32c1.41,0,2.41-0.57,3.14-1.44l-1.03-0.92c-0.61,0.6-1.22,0.92-2.08,0.92
		c-1.13,0-2.02-0.7-2.21-1.95h5.64c0.01-0.17,0.03-0.33,0.03-0.49c0-2.21-1.24-4.13-3.68-4.13c-2.2,0-3.75,1.8-3.75,4v0.03
		C221.48,246.7,223.2,248.32,225.42,248.32z M225.22,241.74c1.16,0,1.83,0.89,1.95,2.02h-3.94
		C223.39,242.57,224.14,241.74,225.22,241.74z"/>
	<polygon class="st104" points="227.62,237.82 226.02,237.1 224.51,239.49 225.83,239.49 	"/>
	<path class="st104" d="M231.04,246.02c0,1.69,0.92,2.26,2.21,2.26c0.65,0,1.15-0.15,1.59-0.39v-1.44c-0.35,0.18-0.7,0.26-1.09,0.26
		c-0.6,0-0.95-0.28-0.95-0.96v-3.77h2.06v-1.51h-2.06v-2.11h-1.76v2.11h-0.97v1.51h0.97V246.02z"/>
	<polygon class="st104" points="242.14,237.82 240.54,237.1 239.03,239.49 240.35,239.49 	"/>
	<path class="st104" d="M243.08,246.88l-1.03-0.92c-0.61,0.6-1.22,0.92-2.08,0.92c-1.13,0-2.02-0.7-2.21-1.95h5.64
		c0.01-0.17,0.03-0.33,0.03-0.49c0-2.21-1.24-4.13-3.68-4.13c-2.2,0-3.75,1.8-3.75,4v0.03c0,2.37,1.72,3.99,3.94,3.99
		C241.35,248.32,242.36,247.75,243.08,246.88z M239.74,241.74c1.16,0,1.83,0.89,1.95,2.02h-3.94
		C237.91,242.57,238.66,241.74,239.74,241.74z"/>
	<path class="st104" d="M255.35,241.66c-0.55-0.71-1.35-1.35-2.62-1.35c-1.83,0-3.56,1.44-3.56,3.99v0.03
		c0,2.55,1.76,3.99,3.56,3.99c1.25,0,2.05-0.64,2.62-1.44v1.28h1.76v-10.62h-1.76V241.66z M255.38,244.32
		c0,1.47-1.05,2.46-2.23,2.46c-1.19,0-2.21-0.97-2.21-2.46v-0.03c0-1.53,1-2.46,2.21-2.46c1.18,0,2.23,0.97,2.23,2.46V244.32z"/>
	<path class="st104" d="M262.63,240.3c-2.2,0-3.75,1.8-3.75,4v0.03c0,2.37,1.72,3.99,3.94,3.99c1.41,0,2.41-0.57,3.14-1.44
		l-1.03-0.92c-0.61,0.6-1.22,0.92-2.08,0.92c-1.13,0-2.02-0.7-2.21-1.95h5.64c0.01-0.17,0.03-0.33,0.03-0.49
		C266.31,242.22,265.08,240.3,262.63,240.3z M260.63,243.76c0.16-1.19,0.92-2.02,1.99-2.02c1.16,0,1.83,0.89,1.95,2.02H260.63z"/>
	<path class="st104" d="M276.66,237.96h-4.01v10.18h1.79v-3.27h2.02c2.24,0,4.07-1.19,4.07-3.48v-0.03
		C280.53,239.31,279.03,237.96,276.66,237.96z M278.71,241.44c0,1.06-0.84,1.82-2.2,1.82h-2.08v-3.66h2.08c1.34,0,2.2,0.63,2.2,1.82
		V241.44z"/>
	<path class="st104" d="M289.04,248.14v-4.89c0-1.79-1-2.95-2.73-2.95c-1.19,0-1.91,0.63-2.4,1.35v-1.19h-1.76v7.68h1.76v-4.33
		c0-1.19,0.71-1.91,1.73-1.91c1.05,0,1.64,0.68,1.64,1.88v4.36H289.04z"/>
	<path class="st104" d="M296.79,245.96c-0.61,0.6-1.22,0.92-2.08,0.92c-1.13,0-2.02-0.7-2.21-1.95h5.64
		c0.01-0.17,0.03-0.33,0.03-0.49c0-2.21-1.24-4.13-3.68-4.13c-2.2,0-3.75,1.8-3.75,4v0.03c0,2.37,1.72,3.99,3.94,3.99
		c1.41,0,2.41-0.57,3.14-1.44L296.79,245.96z M294.48,241.74c1.16,0,1.83,0.89,1.95,2.02h-3.94
		C292.65,242.57,293.4,241.74,294.48,241.74z"/>
	<path class="st104" d="M304.99,246.95v1.19h1.76v-7.68h-1.76v4.33c0,1.19-0.71,1.91-1.73,1.91c-1.05,0-1.64-0.68-1.64-1.88v-4.36
		h-1.76v4.89c0,1.79,1,2.95,2.73,2.95C303.78,248.3,304.5,247.68,304.99,246.95z"/>
	<path class="st104" d="M317.94,240.3c-1.16,0-1.98,0.54-2.6,1.35c-0.41-0.81-1.18-1.35-2.28-1.35c-1.18,0-1.85,0.64-2.34,1.32
		v-1.16h-1.76v7.68h1.76v-4.32c0-1.19,0.67-1.92,1.64-1.92c0.97,0,1.56,0.67,1.56,1.86v4.38h1.76v-4.33c0-1.24,0.68-1.91,1.64-1.91
		c0.99,0,1.56,0.65,1.56,1.88v4.36h1.76v-4.9C320.63,241.37,319.61,240.3,317.94,240.3z"/>
	<path class="st104" d="M330.53,244.32v-0.03c0-2.19-1.73-3.99-4.09-3.99c-2.36,0-4.1,1.82-4.1,4.01v0.03
		c0,2.18,1.73,3.97,4.07,3.97C328.78,248.32,330.53,246.5,330.53,244.32z M324.1,244.32v-0.03c0-1.34,0.9-2.44,2.31-2.44
		c1.38,0,2.36,1.12,2.36,2.47v0.03c0,1.32-0.9,2.44-2.33,2.44C325.08,246.79,324.1,245.66,324.1,244.32z"/>
	<rect x="332.41" y="237.52" class="st104" width="1.76" height="10.62"/>
	<path class="st104" d="M340.15,240.3c-2.36,0-4.1,1.82-4.1,4.01v0.03c0,2.18,1.73,3.97,4.07,3.97c2.37,0,4.11-1.82,4.11-4v-0.03
		C344.23,242.09,342.5,240.3,340.15,240.3z M342.47,244.35c0,1.32-0.9,2.44-2.33,2.44c-1.37,0-2.34-1.13-2.34-2.47v-0.03
		c0-1.34,0.9-2.44,2.31-2.44c1.38,0,2.36,1.12,2.36,2.47V244.35z"/>
	<path class="st104" d="M351.81,241.61c-0.6-0.71-1.4-1.31-2.69-1.31c-1.79,0-3.49,1.34-3.49,3.61v0.03c0,2.25,1.69,3.59,3.49,3.59
		c1.27,0,2.07-0.58,2.71-1.41v0.6c0,1.54-0.86,2.36-2.43,2.36c-1.05,0-1.92-0.31-2.74-0.81l-0.65,1.32c0.99,0.6,2.17,0.92,3.43,0.92
		c1.38,0,2.46-0.33,3.16-1.03c0.64-0.64,0.97-1.6,0.97-2.9v-6.11h-1.76V241.61z M351.84,243.94c0,1.24-1.03,2.11-2.26,2.11
		c-1.21,0-2.18-0.86-2.18-2.12v-0.03c0-1.27,0.96-2.11,2.18-2.11c1.22,0,2.26,0.86,2.26,2.13V243.94z"/>
	<rect x="355.79" y="237.61" class="st104" width="1.89" height="1.67"/>
	<rect x="355.86" y="240.46" class="st104" width="1.76" height="7.68"/>
	<path class="st104" d="M363.24,240.3c-2.2,0-3.75,1.8-3.75,4v0.03c0,2.37,1.72,3.99,3.94,3.99c1.41,0,2.41-0.57,3.14-1.44
		l-1.03-0.92c-0.61,0.6-1.22,0.92-2.08,0.92c-1.13,0-2.02-0.7-2.21-1.95h5.64c0.01-0.17,0.03-0.33,0.03-0.49
		C366.92,242.22,365.69,240.3,363.24,240.3z M361.24,243.76c0.16-1.19,0.92-2.02,1.99-2.02c1.16,0,1.83,0.89,1.95,2.02H361.24z"/>
	<path class="st104" d="M193.76,265.75c1.25,0,2.05-0.64,2.62-1.44v1.28h1.76v-10.62h-1.76v4.13c-0.55-0.71-1.35-1.35-2.62-1.35
		c-1.83,0-3.56,1.44-3.56,3.99v0.03C190.2,264.31,191.96,265.75,193.76,265.75z M191.98,261.73c0-1.53,1-2.46,2.21-2.46
		c1.18,0,2.23,0.97,2.23,2.46v0.03c0,1.47-1.05,2.46-2.23,2.46c-1.19,0-2.21-0.97-2.21-2.46V261.73z"/>
	<path class="st104" d="M203.66,257.75c-2.2,0-3.75,1.8-3.75,4v0.03c0,2.37,1.72,3.99,3.94,3.99c1.41,0,2.41-0.57,3.14-1.44
		l-1.03-0.92c-0.61,0.6-1.22,0.92-2.08,0.92c-1.13,0-2.02-0.7-2.21-1.95h5.64c0.01-0.17,0.03-0.33,0.03-0.49
		C207.34,259.67,206.11,257.75,203.66,257.75z M201.66,261.21c0.16-1.19,0.92-2.02,1.99-2.02c1.16,0,1.83,0.89,1.95,2.02H201.66z"/>
	<polygon class="st104" points="213.68,255.4 213.68,265.59 220.82,265.59 220.82,263.96 215.47,263.96 215.47,255.4 	"/>
	<path class="st104" d="M228.91,265.59v-4.55c0-2.05-1.11-3.24-3.37-3.24c-1.25,0-2.08,0.26-2.92,0.64l0.48,1.41
		c0.7-0.29,1.34-0.48,2.2-0.48c1.22,0,1.89,0.58,1.89,1.64v0.14c-0.6-0.19-1.19-0.32-2.12-0.32c-1.79,0-3.11,0.82-3.11,2.52v0.03
		c0,1.54,1.28,2.37,2.73,2.37c1.17,0,1.96-0.48,2.49-1.1v0.95H228.91z M225.18,264.42c-0.83,0-1.49-0.41-1.49-1.14v-0.03
		c0-0.74,0.65-1.19,1.76-1.19c0.68,0,1.31,0.13,1.76,0.31v0.44C227.21,263.77,226.34,264.42,225.18,264.42z"/>
	<path class="st104" d="M237.9,265.59v-4.89c0-1.79-1-2.95-2.73-2.95c-1.19,0-1.91,0.63-2.4,1.35v-1.19H231v7.68h1.76v-4.33
		c0-1.19,0.71-1.91,1.73-1.91c1.05,0,1.64,0.68,1.64,1.88v4.36H237.9z"/>
	<path class="st104" d="M243.39,266.52c-1.05,0-1.92-0.31-2.74-0.81l-0.65,1.32c0.99,0.6,2.17,0.92,3.43,0.92
		c1.38,0,2.46-0.33,3.16-1.03c0.64-0.64,0.97-1.6,0.97-2.9v-6.11h-1.76v1.15c-0.6-0.71-1.4-1.31-2.69-1.31
		c-1.79,0-3.49,1.34-3.49,3.61v0.03c0,2.25,1.69,3.59,3.49,3.59c1.27,0,2.07-0.58,2.71-1.41v0.6
		C245.82,265.7,244.96,266.52,243.39,266.52z M243.58,263.49c-1.21,0-2.18-0.86-2.18-2.12v-0.03c0-1.27,0.96-2.11,2.18-2.11
		s2.26,0.86,2.26,2.13v0.03C245.83,262.62,244.8,263.49,243.58,263.49z"/>
	<path class="st104" d="M254.8,262.24c0,1.19-0.71,1.91-1.73,1.91c-1.05,0-1.64-0.68-1.64-1.88v-4.36h-1.76v4.89
		c0,1.79,1,2.95,2.73,2.95c1.19,0,1.91-0.63,2.4-1.35v1.19h1.76v-7.68h-1.76V262.24z"/>
	<path class="st104" d="M262.09,257.75c-2.2,0-3.75,1.8-3.75,4v0.03c0,2.37,1.72,3.99,3.94,3.99c1.41,0,2.41-0.57,3.14-1.44
		l-1.03-0.92c-0.61,0.6-1.22,0.92-2.08,0.92c-1.13,0-2.02-0.7-2.21-1.95h5.64c0.01-0.17,0.03-0.33,0.03-0.49
		C265.77,259.67,264.54,257.75,262.09,257.75z M260.09,261.21c0.16-1.19,0.92-2.02,1.99-2.02c1.16,0,1.83,0.89,1.95,2.02H260.09z"/>
	<polygon class="st104" points="272.11,265.59 273.9,265.59 273.9,261.44 279.03,261.44 279.03,259.81 273.9,259.81 273.9,257.03 
		279.68,257.03 279.68,255.4 272.11,255.4 	"/>
	<path class="st104" d="M283.2,259.64v-1.73h-1.76v7.68h1.76v-2.92c0-2.04,1.07-3.04,2.62-3.04h0.1v-1.86
		C284.57,257.7,283.68,258.49,283.2,259.64z"/>
	<path class="st104" d="M290.15,257.79c-1.25,0-2.08,0.26-2.92,0.64l0.48,1.41c0.7-0.29,1.34-0.48,2.2-0.48
		c1.22,0,1.89,0.58,1.89,1.64v0.14c-0.6-0.19-1.19-0.32-2.12-0.32c-1.79,0-3.11,0.82-3.11,2.52v0.03c0,1.54,1.28,2.37,2.73,2.37
		c1.17,0,1.96-0.48,2.49-1.1v0.95h1.75v-4.55C293.52,258.98,292.42,257.79,290.15,257.79z M291.82,262.81
		c0,0.96-0.87,1.62-2.04,1.62c-0.83,0-1.48-0.41-1.48-1.14v-0.03c0-0.74,0.65-1.19,1.76-1.19c0.68,0,1.31,0.13,1.76,0.31V262.81z"/>
	<path class="st104" d="M299.77,257.75c-1.19,0-1.91,0.63-2.4,1.35v-1.19h-1.76v7.68h1.76v-4.33c0-1.19,0.71-1.91,1.73-1.91
		c1.05,0,1.64,0.68,1.64,1.88v4.36h1.76v-4.89C302.5,258.91,301.5,257.75,299.77,257.75z"/>
	<path class="st104" d="M308.26,264.23c-1.35,0-2.3-1.1-2.3-2.47v-0.03c0-1.34,0.93-2.44,2.21-2.44c0.89,0,1.45,0.39,1.99,0.96
		l1.09-1.18c-0.71-0.78-1.62-1.32-3.07-1.32c-2.3,0-3.99,1.83-3.99,4.01v0.03c0,1.85,1.19,3.4,2.95,3.84l-1.16,1.72l1.54,0.65
		l0.96-2.26c1.31-0.07,2.12-0.64,2.82-1.42l-1.06-1.05C309.7,263.84,309.09,264.23,308.26,264.23z"/>
	<path class="st104" d="M315.99,257.79c-1.25,0-2.08,0.26-2.92,0.64l0.48,1.41c0.7-0.29,1.34-0.48,2.2-0.48
		c1.22,0,1.89,0.58,1.89,1.64v0.14c-0.6-0.19-1.19-0.32-2.12-0.32c-1.79,0-3.11,0.82-3.11,2.52v0.03c0,1.54,1.28,2.37,2.73,2.37
		c1.17,0,1.96-0.48,2.49-1.1v0.95h1.75v-4.55C319.37,258.98,318.26,257.79,315.99,257.79z M317.66,262.81
		c0,0.96-0.87,1.62-2.04,1.62c-0.83,0-1.49-0.41-1.49-1.14v-0.03c0-0.74,0.65-1.19,1.76-1.19c0.68,0,1.31,0.13,1.76,0.31V262.81z"/>
	<rect x="321.48" y="255.06" class="st104" width="1.89" height="1.67"/>
	<rect x="321.55" y="257.91" class="st104" width="1.76" height="7.68"/>
	<path class="st104" d="M328.71,261.05c-0.9-0.29-1.73-0.53-1.73-1.08v-0.03c0-0.45,0.39-0.77,1.08-0.77c0.64,0,1.42,0.28,2.17,0.73
		l0.7-1.25c-0.81-0.54-1.86-0.87-2.82-0.87c-1.53,0-2.73,0.89-2.73,2.34v0.03c0,1.47,1.27,1.93,2.4,2.25
		c0.9,0.28,1.72,0.48,1.72,1.08v0.03c0,0.51-0.44,0.83-1.19,0.83c-0.79,0-1.69-0.32-2.52-0.95l-0.79,1.19
		c0.96,0.76,2.17,1.15,3.26,1.15c1.6,0,2.85-0.8,2.85-2.42v-0.03C331.09,261.91,329.83,261.4,328.71,261.05z"/>
	<path class="st104" d="M336.21,257.75c-2.2,0-3.75,1.8-3.75,4v0.03c0,2.37,1.72,3.99,3.94,3.99c1.41,0,2.41-0.57,3.14-1.44
		l-1.03-0.92c-0.61,0.6-1.22,0.92-2.08,0.92c-1.13,0-2.02-0.7-2.21-1.95h5.64c0.01-0.17,0.03-0.33,0.03-0.49
		C339.89,259.67,338.65,257.75,336.21,257.75z M334.2,261.21c0.16-1.19,0.92-2.02,1.99-2.02c1.16,0,1.83,0.89,1.95,2.02H334.2z"/>
</g>
<g>
	
		<linearGradient id="SVGID_00000102510559092595962190000001904001053941512373_" gradientUnits="userSpaceOnUse" x1="429.1104" y1="212.2358" x2="-5.9769" y2="189.8416">
		<stop  offset="0.1674" style="stop-color:#5A4D96"/>
		<stop  offset="0.206" style="stop-color:#5B569D"/>
		<stop  offset="0.2792" style="stop-color:#5B6CAE"/>
		<stop  offset="0.379" style="stop-color:#5C8DCA"/>
		<stop  offset="0.5008" style="stop-color:#5EB4EA"/>
		<stop  offset="0.5051" style="stop-color:#5EB5EB"/>
		<stop  offset="0.633" style="stop-color:#63B4CC"/>
		<stop  offset="0.7594" style="stop-color:#66B1AF"/>
	</linearGradient>
	<path style="fill:url(#SVGID_00000102510559092595962190000001904001053941512373_);" d="M203.82,217.07
		c-5.27,0-9.74-1.3-13.21-2.45v7.93c3.13,1.51,8.69,2.52,13.1,2.52c13.96,0,16.98-8.08,16.98-15c0-17.52-22.95-11.68-22.95-20.84
		c0-3.03,2.49-4.76,8.34-4.76c4.69,0,9.04,0.94,12.52,1.73v-7.64c-3.13-1.37-7.71-2.24-12.57-2.24c-10.95,0-15.76,5.84-15.76,13.63
		c0,17.67,22.89,11.32,22.89,21.42C213.15,214.26,211.35,217.07,203.82,217.07z"/>
	
		<linearGradient id="SVGID_00000098925891544940655650000010877260714349934514_" gradientUnits="userSpaceOnUse" x1="429.3698" y1="209.8289" x2="-6.0332" y2="187.4184">
		<stop  offset="0.1674" style="stop-color:#5A4D96"/>
		<stop  offset="0.206" style="stop-color:#5B569D"/>
		<stop  offset="0.2792" style="stop-color:#5B6CAE"/>
		<stop  offset="0.379" style="stop-color:#5C8DCA"/>
		<stop  offset="0.5008" style="stop-color:#5EB4EA"/>
		<stop  offset="0.5051" style="stop-color:#5EB5EB"/>
		<stop  offset="0.633" style="stop-color:#63B4CC"/>
		<stop  offset="0.7594" style="stop-color:#66B1AF"/>
	</linearGradient>
	<path style="fill:url(#SVGID_00000098925891544940655650000010877260714349934514_);" d="M244.12,177.26v46.88h8.11v-13
		c25.66,2.35,24.79-16.5,24.79-16.5c0-9.59-6.12-17.38-17.77-17.38H244.12z M268.66,194.64c0,0,0.88,10.17-16.42,7.85v-17h7.15
		C264.99,185.48,268.66,189.23,268.66,194.64z"/>
	
		<linearGradient id="SVGID_00000092457295874893857210000008974397478054962095_" gradientUnits="userSpaceOnUse" x1="429.3577" y1="207.4309" x2="-5.7296" y2="185.0367">
		<stop  offset="0.1674" style="stop-color:#5A4D96"/>
		<stop  offset="0.206" style="stop-color:#5B569D"/>
		<stop  offset="0.2792" style="stop-color:#5B6CAE"/>
		<stop  offset="0.379" style="stop-color:#5C8DCA"/>
		<stop  offset="0.5008" style="stop-color:#5EB4EA"/>
		<stop  offset="0.5051" style="stop-color:#5EB5EB"/>
		<stop  offset="0.633" style="stop-color:#63B4CC"/>
		<stop  offset="0.7594" style="stop-color:#66B1AF"/>
	</linearGradient>
	<path style="fill:url(#SVGID_00000092457295874893857210000008974397478054962095_);" d="M295.7,177.26v30.5
		c0,12.33,4.83,17.31,16.67,17.31c0,0,7.11-0.02,10.69-1.37v-8.29c-6.59,1.22-10.1,1.01-10.1,1.01c-6.81,0-8.93-2.09-8.93-8.51
		v-30.65H295.7z"/>
	
		<linearGradient id="SVGID_00000137840041079652079320000003797764349792776362_" gradientUnits="userSpaceOnUse" x1="429.5041" y1="204.586" x2="-5.5831" y2="182.1918">
		<stop  offset="0.1674" style="stop-color:#5A4D96"/>
		<stop  offset="0.206" style="stop-color:#5B569D"/>
		<stop  offset="0.2792" style="stop-color:#5B6CAE"/>
		<stop  offset="0.379" style="stop-color:#5C8DCA"/>
		<stop  offset="0.5008" style="stop-color:#5EB4EA"/>
		<stop  offset="0.5051" style="stop-color:#5EB5EB"/>
		<stop  offset="0.633" style="stop-color:#63B4CC"/>
		<stop  offset="0.7594" style="stop-color:#66B1AF"/>
	</linearGradient>
	<polygon style="fill:url(#SVGID_00000137840041079652079320000003797764349792776362_);" points="369.12,185.77 369.12,177.26 
		338.9,177.26 338.9,224.14 347.18,224.14 347.18,207.34 367.41,207.34 367.41,198.83 347.18,198.83 347.18,185.77 	"/>
</g>
</svg>
