<svg xmlns="http://www.w3.org/2000/svg" width="16" height="14" viewBox="0 0 16 14"><defs><style>.a{fill:#fff;}</style></defs><path class="a" d="M15.867,11.835l.021-.027.018-.028.016-.026c.005-.009.01-.019.015-.029s.009-.018.013-.028.007-.019.011-.029.008-.02.011-.03.005-.019.008-.029.006-.021.008-.031,0-.022.005-.034,0-.018,0-.028a.611.611,0,0,0,0-.126c0-.009,0-.019,0-.028s0-.023-.005-.034-.005-.021-.008-.031,0-.019-.008-.029-.007-.02-.011-.03-.007-.019-.011-.029-.009-.018-.013-.027-.009-.019-.015-.029l-.016-.026-.018-.028-.021-.027-.018-.023c-.014-.016-.028-.031-.043-.046h0L13.8,9.1a.689.689,0,0,0-.943,0,.616.616,0,0,0,0,.9l.862.823H11.333A3.912,3.912,0,0,1,7.333,7a3.912,3.912,0,0,1,4-3.818h2.391L12.862,4a.616.616,0,0,0,0,.9.689.689,0,0,0,.943,0L15.8,3h0c.015-.015.03-.03.044-.046l.018-.023.021-.027.018-.028.016-.026c.005-.009.01-.019.015-.029s.009-.018.013-.028.007-.019.011-.029.008-.02.011-.03.005-.019.008-.029.006-.021.008-.032,0-.022.005-.034,0-.018,0-.028a.611.611,0,0,0,0-.126c0-.009,0-.019,0-.028s0-.023-.005-.034-.005-.021-.008-.031,0-.019-.008-.029-.007-.02-.011-.03-.007-.019-.011-.029-.009-.018-.013-.028-.009-.019-.015-.029l-.016-.026-.018-.028-.021-.027-.018-.023c-.014-.016-.028-.032-.044-.046h0L13.8.186a.689.689,0,0,0-.943,0,.616.616,0,0,0,0,.9l.862.823H11.333A5.376,5.376,0,0,0,6.667,4.534,5.376,5.376,0,0,0,2,1.909H.667A.652.652,0,0,0,0,2.545a.652.652,0,0,0,.667.636H2A3.912,3.912,0,0,1,6,7a3.912,3.912,0,0,1-4,3.818H.667a.637.637,0,1,0,0,1.273H2A5.376,5.376,0,0,0,6.667,9.466a5.376,5.376,0,0,0,4.667,2.625h2.391l-.862.823a.616.616,0,0,0,0,.9.689.689,0,0,0,.943,0l2-1.909h0c.015-.015.03-.03.044-.046Z"/></svg>