<svg xmlns="http://www.w3.org/2000/svg" xmlns:xlink="http://www.w3.org/1999/xlink" width="1921" height="145.876" viewBox="0 0 1921 145.876">
  <defs>
    <linearGradient id="linear-gradient" x1="-0.032" y1="0.394" x2="1.187" y2="0.405" gradientUnits="objectBoundingBox">
      <stop offset="0" stop-color="#fff" stop-opacity="0.49"/>
      <stop offset="0.137" stop-color="#c1d0ea" stop-opacity="0.922"/>
      <stop offset="0.502" stop-color="#fff" stop-opacity="0.761"/>
      <stop offset="1" stop-color="#a3b9e0"/>
    </linearGradient>
  </defs>
  <g id="Groupe_8894" data-name="Groupe 8894" transform="translate(1 -936.924)">
    <path id="Tracé_84011" data-name="Tracé 84011" d="M130,39.188V-.318S234,39.188,339.044,39.188,443.268-.318,561.9-.318,689.594,39.188,813.571,39.188,933.338-.318,1057.809-.318s136.151,39.507,253.644,39.507S1426.343-.318,1556.6-.318s130.577,39.507,228.632,39.507c44.713,0,112.921,16.119,164.168,7.169C1999,39.957,2051-.318,2051-.318V118.357L130,113.032Z" transform="translate(-131 963.643)" fill="#393384"/>
    <path id="Tracé_84010" data-name="Tracé 84010" d="M-266.2,43.876S-76.246-.318,3-.318,209.652,43.876,303.762,43.876,397.141-.318,503.427-.318,617.833,43.876,728.909,43.876,836.213-.318,947.73-.318s121.983,44.194,227.249,44.194S1280.7-.318,1397.4-.318a325.89,325.89,0,0,1,41.248,2.373c73.8,9.412,119.783,43.957,154.277,41.821,39.924-2.472,56-41.821,56-41.821v117.1l-1915.125-3Z" transform="translate(269.075 963.643)" fill="#00a1a2" opacity="0.8"/>
    <g id="Union_1" data-name="Union 1" transform="translate(4637.058 1319.212) rotate(-41)" fill="url(#linear-gradient)">
      <path d="M-2259-2345a14,14,0,0,1-14-14v-43.609a14,14,0,0,1,12.324-13.9V-2448a4,4,0,0,1,4-4h3.337a4,4,0,0,1,4,4v31.644A14,14,0,0,1-2238-2402.609V-2359a14,14,0,0,1-14,14Z" stroke="none"/>
      <path d="M -2251.999755859375 -2347.99951171875 C -2249.061767578125 -2347.99951171875 -2246.299560546875 -2349.143798828125 -2244.221923828125 -2351.221435546875 C -2242.14453125 -2353.29931640625 -2241.000244140625 -2356.061767578125 -2241.000244140625 -2359 L -2241.000244140625 -2402.609375 C -2241.000244140625 -2407.87451171875 -2244.7451171875 -2412.4169921875 -2249.90478515625 -2413.410400390625 L -2252.337646484375 -2413.878662109375 L -2252.337646484375 -2448 C -2252.337646484375 -2448.55126953125 -2252.786376953125 -2448.999755859375 -2253.338134765625 -2448.999755859375 L -2256.67529296875 -2448.999755859375 C -2257.22705078125 -2448.999755859375 -2257.67578125 -2448.55126953125 -2257.67578125 -2448 L -2257.67578125 -2413.84619140625 L -2260.3203125 -2413.53076171875 C -2265.83837890625 -2412.872314453125 -2269.99951171875 -2408.17724609375 -2269.99951171875 -2402.609375 L -2269.99951171875 -2359 C -2269.99951171875 -2356.061767578125 -2268.85546875 -2353.29931640625 -2266.77783203125 -2351.221435546875 C -2264.7001953125 -2349.143798828125 -2261.93798828125 -2347.99951171875 -2259 -2347.99951171875 L -2251.999755859375 -2347.99951171875 M -2251.999755859375 -2344.99951171875 L -2259 -2344.99951171875 C -2266.73193359375 -2344.99951171875 -2272.99951171875 -2351.26806640625 -2272.99951171875 -2359 L -2272.99951171875 -2402.609375 C -2272.99951171875 -2409.774169921875 -2267.617431640625 -2415.681396484375 -2260.67578125 -2416.509521484375 L -2260.67578125 -2448 C -2260.67578125 -2450.20947265625 -2258.884765625 -2451.999755859375 -2256.67529296875 -2451.999755859375 L -2253.338134765625 -2451.999755859375 C -2251.128662109375 -2451.999755859375 -2249.337646484375 -2450.20947265625 -2249.337646484375 -2448 L -2249.337646484375 -2416.356201171875 C -2242.879150390625 -2415.11279296875 -2238.000244140625 -2409.430908203125 -2238.000244140625 -2402.609375 L -2238.000244140625 -2359 C -2238.000244140625 -2351.26806640625 -2244.26806640625 -2344.99951171875 -2251.999755859375 -2344.99951171875 Z" stroke="none" fill="rgba(202,202,202,0.19)"/>
    </g>
    <path id="Tracé_84009" data-name="Tracé 84009" d="M0,39.188S53.285-.318,141.736-.318,234,39.188,339.044,39.188,443.268-.318,561.9-.318,689.594,39.188,813.571,39.188,933.338-.318,1057.809-.318s136.151,39.507,253.644,39.507S1426.343-.318,1556.6-.318s130.577,39.507,228.632,39.507S1920-.318,1920-.318V113.032H0Z" transform="translate(0 968.968)" fill="#232053"/>
  </g>
</svg>
