<svg xmlns="http://www.w3.org/2000/svg" width="1827.546" height="284.985" viewBox="0 0 1827.546 284.985"><defs><style>.a{opacity:0.79;}.b{opacity:0.07;}.c{fill:none;stroke:#111136;stroke-linecap:round;stroke-linejoin:round;stroke-width:3px;}</style></defs><g class="a" transform="translate(-158.894 -141.5)"><g class="b" transform="translate(1475.467 362.114)"><path class="c" d="M8.483,41.414C7.045,44.868,2.22,43.987-3.162,45.937c-1.745.628-8.364,4.959-11.7,4.331a2.091,2.091,0,0,1-1.153-.521c-2.6-2.373-3.267-15.967-.779-26.477C-14.3,12.738-7.088,2.326-.148,2.326a8.073,8.073,0,0,1,6.922,4,11.375,11.375,0,0,1,1.015,2.03,12.572,12.572,0,0,1,.8,3.895C8.875,18.6,9.685,38.521,8.483,41.414Z" transform="translate(18.35 12.56)"/><path class="c" d="M-4.914-1.018V22.04s0,4.411-3.276,4.411A4.235,4.235,0,0,1-12.3,23.79" transform="translate(39.234 1.018)"/><path class="c" d="M-8.465,41.414c1.442,3.454,6.263,2.573,11.649,4.523,1.741.628,8.36,4.959,11.7,4.331a2.077,2.077,0,0,0,1.148-.521C18.64,47.374,19.3,33.78,16.81,23.27,14.322,12.738,7.111,2.326.171,2.326a8.081,8.081,0,0,0-6.926,4A11.376,11.376,0,0,0-7.77,8.353a12.834,12.834,0,0,0-.8,3.895C-8.852,18.6-9.667,38.521-8.465,41.414Z" transform="translate(50.268 12.56)"/><path class="c" d="M-10.64-1.018V22.04s0,4.411,3.276,4.411a4.226,4.226,0,0,0,4.1-2.662" transform="translate(44.96 1.018)"/></g><g class="b" transform="translate(1548.036 252.557)"><path class="c" d="M8.483,41.414C7.045,44.868,2.22,43.987-3.162,45.937c-1.745.628-8.364,4.959-11.7,4.331a2.091,2.091,0,0,1-1.153-.521c-2.6-2.373-3.267-15.967-.779-26.477C-14.3,12.738-7.088,2.326-.148,2.326a8.073,8.073,0,0,1,6.922,4,11.375,11.375,0,0,1,1.015,2.03,12.572,12.572,0,0,1,.8,3.895C8.875,18.6,9.685,38.521,8.483,41.414Z" transform="translate(18.35 12.56)"/><path class="c" d="M-4.914-1.018V22.04s0,4.411-3.276,4.411A4.235,4.235,0,0,1-12.3,23.79" transform="translate(39.234 1.018)"/><path class="c" d="M-8.465,41.414c1.442,3.454,6.263,2.573,11.649,4.523,1.741.628,8.36,4.959,11.7,4.331a2.077,2.077,0,0,0,1.148-.521C18.64,47.374,19.3,33.78,16.81,23.27,14.322,12.738,7.111,2.326.171,2.326a8.081,8.081,0,0,0-6.926,4A11.376,11.376,0,0,0-7.77,8.353a12.834,12.834,0,0,0-.8,3.895C-8.852,18.6-9.667,38.521-8.465,41.414Z" transform="translate(50.268 12.56)"/><path class="c" d="M-10.64-1.018V22.04s0,4.411,3.276,4.411a4.226,4.226,0,0,0,4.1-2.662" transform="translate(44.96 1.018)"/></g><g class="b" transform="translate(1639.866 362.114)"><path class="c" d="M8.483,41.414C7.045,44.868,2.22,43.987-3.162,45.937c-1.745.628-8.364,4.959-11.7,4.331a2.091,2.091,0,0,1-1.153-.521c-2.6-2.373-3.267-15.967-.779-26.477C-14.3,12.738-7.088,2.326-.148,2.326a8.073,8.073,0,0,1,6.922,4,11.375,11.375,0,0,1,1.015,2.03,12.572,12.572,0,0,1,.8,3.895C8.875,18.6,9.685,38.521,8.483,41.414Z" transform="translate(18.35 12.56)"/><path class="c" d="M-4.914-1.018V22.04s0,4.411-3.276,4.411A4.235,4.235,0,0,1-12.3,23.79" transform="translate(39.234 1.018)"/><path class="c" d="M-8.465,41.414c1.442,3.454,6.263,2.573,11.649,4.523,1.741.628,8.36,4.959,11.7,4.331a2.077,2.077,0,0,0,1.148-.521C18.64,47.374,19.3,33.78,16.81,23.27,14.322,12.738,7.111,2.326.171,2.326a8.081,8.081,0,0,0-6.926,4A11.376,11.376,0,0,0-7.77,8.353a12.834,12.834,0,0,0-.8,3.895C-8.852,18.6-9.667,38.521-8.465,41.414Z" transform="translate(50.268 12.56)"/><path class="c" d="M-10.64-1.018V22.04s0,4.411,3.276,4.411a4.226,4.226,0,0,0,4.1-2.662" transform="translate(44.96 1.018)"/></g><g class="b" transform="translate(1786.51 361.219)"><path class="c" d="M8.483,41.414C7.045,44.868,2.22,43.987-3.162,45.937c-1.745.628-8.364,4.959-11.7,4.331a2.091,2.091,0,0,1-1.153-.521c-2.6-2.373-3.267-15.967-.779-26.477C-14.3,12.738-7.088,2.326-.148,2.326a8.073,8.073,0,0,1,6.922,4,11.375,11.375,0,0,1,1.015,2.03,12.572,12.572,0,0,1,.8,3.895C8.875,18.6,9.685,38.521,8.483,41.414Z" transform="translate(18.35 12.56)"/><path class="c" d="M-4.914-1.018V22.04s0,4.411-3.276,4.411A4.235,4.235,0,0,1-12.3,23.79" transform="translate(39.234 1.018)"/><path class="c" d="M-8.465,41.414c1.442,3.454,6.263,2.573,11.649,4.523,1.741.628,8.36,4.959,11.7,4.331a2.077,2.077,0,0,0,1.148-.521C18.64,47.374,19.3,33.78,16.81,23.27,14.322,12.738,7.111,2.326.171,2.326a8.081,8.081,0,0,0-6.926,4A11.376,11.376,0,0,0-7.77,8.353a12.834,12.834,0,0,0-.8,3.895C-8.852,18.6-9.667,38.521-8.465,41.414Z" transform="translate(50.268 12.56)"/><path class="c" d="M-10.64-1.018V22.04s0,4.411,3.276,4.411a4.226,4.226,0,0,0,4.1-2.662" transform="translate(44.96 1.018)"/></g><g class="b" transform="translate(1855.148 252.557)"><path class="c" d="M8.483,41.414C7.045,44.868,2.22,43.987-3.162,45.937c-1.745.628-8.364,4.959-11.7,4.331a2.091,2.091,0,0,1-1.153-.521c-2.6-2.373-3.267-15.967-.779-26.477C-14.3,12.738-7.088,2.326-.148,2.326a8.073,8.073,0,0,1,6.922,4,11.375,11.375,0,0,1,1.015,2.03,12.572,12.572,0,0,1,.8,3.895C8.875,18.6,9.685,38.521,8.483,41.414Z" transform="translate(18.35 12.56)"/><path class="c" d="M-4.914-1.018V22.04s0,4.411-3.276,4.411A4.235,4.235,0,0,1-12.3,23.79" transform="translate(39.234 1.018)"/><path class="c" d="M-8.465,41.414c1.442,3.454,6.263,2.573,11.649,4.523,1.741.628,8.36,4.959,11.7,4.331a2.077,2.077,0,0,0,1.148-.521C18.64,47.374,19.3,33.78,16.81,23.27,14.322,12.738,7.111,2.326.171,2.326a8.081,8.081,0,0,0-6.926,4A11.376,11.376,0,0,0-7.77,8.353a12.834,12.834,0,0,0-.8,3.895C-8.852,18.6-9.667,38.521-8.465,41.414Z" transform="translate(50.268 12.56)"/><path class="c" d="M-10.64-1.018V22.04s0,4.411,3.276,4.411a4.226,4.226,0,0,0,4.1-2.662" transform="translate(44.96 1.018)"/></g><g class="b" transform="translate(1916.295 361.219)"><path class="c" d="M8.483,41.414C7.045,44.868,2.22,43.987-3.162,45.937c-1.745.628-8.364,4.959-11.7,4.331a2.091,2.091,0,0,1-1.153-.521c-2.6-2.373-3.267-15.967-.779-26.477C-14.3,12.738-7.088,2.326-.148,2.326a8.073,8.073,0,0,1,6.922,4,11.375,11.375,0,0,1,1.015,2.03,12.572,12.572,0,0,1,.8,3.895C8.875,18.6,9.685,38.521,8.483,41.414Z" transform="translate(18.35 12.56)"/><path class="c" d="M-4.914-1.018V22.04s0,4.411-3.276,4.411A4.235,4.235,0,0,1-12.3,23.79" transform="translate(39.234 1.018)"/><path class="c" d="M-8.465,41.414c1.442,3.454,6.263,2.573,11.649,4.523,1.741.628,8.36,4.959,11.7,4.331a2.077,2.077,0,0,0,1.148-.521C18.64,47.374,19.3,33.78,16.81,23.27,14.322,12.738,7.111,2.326.171,2.326a8.081,8.081,0,0,0-6.926,4A11.376,11.376,0,0,0-7.77,8.353a12.834,12.834,0,0,0-.8,3.895C-8.852,18.6-9.667,38.521-8.465,41.414Z" transform="translate(50.268 12.56)"/><path class="c" d="M-10.64-1.018V22.04s0,4.411,3.276,4.411a4.226,4.226,0,0,0,4.1-2.662" transform="translate(44.96 1.018)"/></g><g class="b" transform="translate(1698.829 252.557)"><path class="c" d="M8.483,41.414C7.045,44.868,2.22,43.987-3.162,45.937c-1.745.628-8.364,4.959-11.7,4.331a2.091,2.091,0,0,1-1.153-.521c-2.6-2.373-3.267-15.967-.779-26.477C-14.3,12.738-7.088,2.326-.148,2.326a8.073,8.073,0,0,1,6.922,4,11.375,11.375,0,0,1,1.015,2.03,12.572,12.572,0,0,1,.8,3.895C8.875,18.6,9.685,38.521,8.483,41.414Z" transform="translate(18.35 12.56)"/><path class="c" d="M-4.914-1.018V22.04s0,4.411-3.276,4.411A4.235,4.235,0,0,1-12.3,23.79" transform="translate(39.234 1.018)"/><path class="c" d="M-8.465,41.414c1.442,3.454,6.263,2.573,11.649,4.523,1.741.628,8.36,4.959,11.7,4.331a2.077,2.077,0,0,0,1.148-.521C18.64,47.374,19.3,33.78,16.81,23.27,14.322,12.738,7.111,2.326.171,2.326a8.081,8.081,0,0,0-6.926,4A11.376,11.376,0,0,0-7.77,8.353a12.834,12.834,0,0,0-.8,3.895C-8.852,18.6-9.667,38.521-8.465,41.414Z" transform="translate(50.268 12.56)"/><path class="c" d="M-10.64-1.018V22.04s0,4.411,3.276,4.411a4.226,4.226,0,0,0,4.1-2.662" transform="translate(44.96 1.018)"/></g><g class="b" transform="translate(1767.467 143)"><path class="c" d="M8.483,41.414C7.045,44.868,2.22,43.987-3.162,45.937c-1.745.628-8.364,4.959-11.7,4.331a2.091,2.091,0,0,1-1.153-.521c-2.6-2.373-3.267-15.967-.779-26.477C-14.3,12.738-7.088,2.326-.148,2.326a8.073,8.073,0,0,1,6.922,4,11.375,11.375,0,0,1,1.015,2.03,12.572,12.572,0,0,1,.8,3.895C8.875,18.6,9.685,38.521,8.483,41.414Z" transform="translate(18.35 12.56)"/><path class="c" d="M-4.914-1.018V22.04s0,4.411-3.276,4.411A4.235,4.235,0,0,1-12.3,23.79" transform="translate(39.234 1.018)"/><path class="c" d="M-8.465,41.414c1.442,3.454,6.263,2.573,11.649,4.523,1.741.628,8.36,4.959,11.7,4.331a2.077,2.077,0,0,0,1.148-.521C18.64,47.374,19.3,33.78,16.81,23.27,14.322,12.738,7.111,2.326.171,2.326a8.081,8.081,0,0,0-6.926,4A11.376,11.376,0,0,0-7.77,8.353a12.834,12.834,0,0,0-.8,3.895C-8.852,18.6-9.667,38.521-8.465,41.414Z" transform="translate(50.268 12.56)"/><path class="c" d="M-10.64-1.018V22.04s0,4.411,3.276,4.411a4.226,4.226,0,0,0,4.1-2.662" transform="translate(44.96 1.018)"/></g><g class="b" transform="translate(1629.467 143)"><path class="c" d="M8.483,41.414C7.045,44.868,2.22,43.987-3.162,45.937c-1.745.628-8.364,4.959-11.7,4.331a2.091,2.091,0,0,1-1.153-.521c-2.6-2.373-3.267-15.967-.779-26.477C-14.3,12.738-7.088,2.326-.148,2.326a8.073,8.073,0,0,1,6.922,4,11.375,11.375,0,0,1,1.015,2.03,12.572,12.572,0,0,1,.8,3.895C8.875,18.6,9.685,38.521,8.483,41.414Z" transform="translate(18.35 12.56)"/><path class="c" d="M-4.914-1.018V22.04s0,4.411-3.276,4.411A4.235,4.235,0,0,1-12.3,23.79" transform="translate(39.234 1.018)"/><path class="c" d="M-8.465,41.414c1.442,3.454,6.263,2.573,11.649,4.523,1.741.628,8.36,4.959,11.7,4.331a2.077,2.077,0,0,0,1.148-.521C18.64,47.374,19.3,33.78,16.81,23.27,14.322,12.738,7.111,2.326.171,2.326a8.081,8.081,0,0,0-6.926,4A11.376,11.376,0,0,0-7.77,8.353a12.834,12.834,0,0,0-.8,3.895C-8.852,18.6-9.667,38.521-8.465,41.414Z" transform="translate(50.268 12.56)"/><path class="c" d="M-10.64-1.018V22.04s0,4.411,3.276,4.411a4.226,4.226,0,0,0,4.1-2.662" transform="translate(44.96 1.018)"/></g><g class="b" transform="translate(1915.767 150.92)"><path class="c" d="M8.483,41.414C7.045,44.868,2.22,43.987-3.162,45.937c-1.745.628-8.364,4.959-11.7,4.331a2.091,2.091,0,0,1-1.153-.521c-2.6-2.373-3.267-15.967-.779-26.477C-14.3,12.738-7.088,2.326-.148,2.326a8.073,8.073,0,0,1,6.922,4,11.375,11.375,0,0,1,1.015,2.03,12.572,12.572,0,0,1,.8,3.895C8.875,18.6,9.685,38.521,8.483,41.414Z" transform="translate(18.35 12.56)"/><path class="c" d="M-4.914-1.018V22.04s0,4.411-3.276,4.411A4.235,4.235,0,0,1-12.3,23.79" transform="translate(39.234 1.018)"/><path class="c" d="M-8.465,41.414c1.442,3.454,6.263,2.573,11.649,4.523,1.741.628,8.36,4.959,11.7,4.331a2.077,2.077,0,0,0,1.148-.521C18.64,47.374,19.3,33.78,16.81,23.27,14.322,12.738,7.111,2.326.171,2.326a8.081,8.081,0,0,0-6.926,4A11.376,11.376,0,0,0-7.77,8.353a12.834,12.834,0,0,0-.8,3.895C-8.852,18.6-9.667,38.521-8.465,41.414Z" transform="translate(50.268 12.56)"/><path class="c" d="M-10.64-1.018V22.04s0,4.411,3.276,4.411a4.226,4.226,0,0,0,4.1-2.662" transform="translate(44.96 1.018)"/></g><g class="b" transform="translate(1475.467 143)"><path class="c" d="M8.483,41.414C7.045,44.868,2.22,43.987-3.162,45.937c-1.745.628-8.364,4.959-11.7,4.331a2.091,2.091,0,0,1-1.153-.521c-2.6-2.373-3.267-15.967-.779-26.477C-14.3,12.738-7.088,2.326-.148,2.326a8.073,8.073,0,0,1,6.922,4,11.375,11.375,0,0,1,1.015,2.03,12.572,12.572,0,0,1,.8,3.895C8.875,18.6,9.685,38.521,8.483,41.414Z" transform="translate(18.35 12.56)"/><path class="c" d="M-4.914-1.018V22.04s0,4.411-3.276,4.411A4.235,4.235,0,0,1-12.3,23.79" transform="translate(39.234 1.018)"/><path class="c" d="M-8.465,41.414c1.442,3.454,6.263,2.573,11.649,4.523,1.741.628,8.36,4.959,11.7,4.331a2.077,2.077,0,0,0,1.148-.521C18.64,47.374,19.3,33.78,16.81,23.27,14.322,12.738,7.111,2.326.171,2.326a8.081,8.081,0,0,0-6.926,4A11.376,11.376,0,0,0-7.77,8.353a12.834,12.834,0,0,0-.8,3.895C-8.852,18.6-9.667,38.521-8.465,41.414Z" transform="translate(50.268 12.56)"/><path class="c" d="M-10.64-1.018V22.04s0,4.411,3.276,4.411a4.226,4.226,0,0,0,4.1-2.662" transform="translate(44.96 1.018)"/></g><g class="b" transform="translate(1311.365 362.114)"><path class="c" d="M8.483,41.414C7.045,44.868,2.22,43.987-3.162,45.937c-1.745.628-8.364,4.959-11.7,4.331a2.091,2.091,0,0,1-1.153-.521c-2.6-2.373-3.267-15.967-.779-26.477C-14.3,12.738-7.088,2.326-.148,2.326a8.073,8.073,0,0,1,6.922,4,11.375,11.375,0,0,1,1.015,2.03,12.572,12.572,0,0,1,.8,3.895C8.875,18.6,9.685,38.521,8.483,41.414Z" transform="translate(18.35 12.56)"/><path class="c" d="M-4.914-1.018V22.04s0,4.411-3.276,4.411A4.235,4.235,0,0,1-12.3,23.79" transform="translate(39.234 1.018)"/><path class="c" d="M-8.465,41.414c1.442,3.454,6.263,2.573,11.649,4.523,1.741.628,8.36,4.959,11.7,4.331a2.077,2.077,0,0,0,1.148-.521C18.64,47.374,19.3,33.78,16.81,23.27,14.322,12.738,7.111,2.326.171,2.326a8.081,8.081,0,0,0-6.926,4A11.376,11.376,0,0,0-7.77,8.353a12.834,12.834,0,0,0-.8,3.895C-8.852,18.6-9.667,38.521-8.465,41.414Z" transform="translate(50.268 12.56)"/><path class="c" d="M-10.64-1.018V22.04s0,4.411,3.276,4.411a4.226,4.226,0,0,0,4.1-2.662" transform="translate(44.96 1.018)"/></g><g class="b" transform="translate(1394.856 252.557)"><path class="c" d="M8.483,41.414C7.045,44.868,2.22,43.987-3.162,45.937c-1.745.628-8.364,4.959-11.7,4.331a2.091,2.091,0,0,1-1.153-.521c-2.6-2.373-3.267-15.967-.779-26.477C-14.3,12.738-7.088,2.326-.148,2.326a8.073,8.073,0,0,1,6.922,4,11.375,11.375,0,0,1,1.015,2.03,12.572,12.572,0,0,1,.8,3.895C8.875,18.6,9.685,38.521,8.483,41.414Z" transform="translate(18.35 12.56)"/><path class="c" d="M-4.914-1.018V22.04s0,4.411-3.276,4.411A4.235,4.235,0,0,1-12.3,23.79" transform="translate(39.234 1.018)"/><path class="c" d="M-8.465,41.414c1.442,3.454,6.263,2.573,11.649,4.523,1.741.628,8.36,4.959,11.7,4.331a2.077,2.077,0,0,0,1.148-.521C18.64,47.374,19.3,33.78,16.81,23.27,14.322,12.738,7.111,2.326.171,2.326a8.081,8.081,0,0,0-6.926,4A11.376,11.376,0,0,0-7.77,8.353a12.834,12.834,0,0,0-.8,3.895C-8.852,18.6-9.667,38.521-8.465,41.414Z" transform="translate(50.268 12.56)"/><path class="c" d="M-10.64-1.018V22.04s0,4.411,3.276,4.411a4.226,4.226,0,0,0,4.1-2.662" transform="translate(44.96 1.018)"/></g><g class="b" transform="translate(1318.267 143)"><path class="c" d="M8.483,41.414C7.045,44.868,2.22,43.987-3.162,45.937c-1.745.628-8.364,4.959-11.7,4.331a2.091,2.091,0,0,1-1.153-.521c-2.6-2.373-3.267-15.967-.779-26.477C-14.3,12.738-7.088,2.326-.148,2.326a8.073,8.073,0,0,1,6.922,4,11.375,11.375,0,0,1,1.015,2.03,12.572,12.572,0,0,1,.8,3.895C8.875,18.6,9.685,38.521,8.483,41.414Z" transform="translate(18.35 12.56)"/><path class="c" d="M-4.914-1.018V22.04s0,4.411-3.276,4.411A4.235,4.235,0,0,1-12.3,23.79" transform="translate(39.234 1.018)"/><path class="c" d="M-8.465,41.414c1.442,3.454,6.263,2.573,11.649,4.523,1.741.628,8.36,4.959,11.7,4.331a2.077,2.077,0,0,0,1.148-.521C18.64,47.374,19.3,33.78,16.81,23.27,14.322,12.738,7.111,2.326.171,2.326a8.081,8.081,0,0,0-6.926,4A11.376,11.376,0,0,0-7.77,8.353a12.834,12.834,0,0,0-.8,3.895C-8.852,18.6-9.667,38.521-8.465,41.414Z" transform="translate(50.268 12.56)"/><path class="c" d="M-10.64-1.018V22.04s0,4.411,3.276,4.411a4.226,4.226,0,0,0,4.1-2.662" transform="translate(44.96 1.018)"/></g><g class="b" transform="translate(1166.137 362.114)"><path class="c" d="M8.483,41.414C7.045,44.868,2.22,43.987-3.162,45.937c-1.745.628-8.364,4.959-11.7,4.331a2.091,2.091,0,0,1-1.153-.521c-2.6-2.373-3.267-15.967-.779-26.477C-14.3,12.738-7.088,2.326-.148,2.326a8.073,8.073,0,0,1,6.922,4,11.375,11.375,0,0,1,1.015,2.03,12.572,12.572,0,0,1,.8,3.895C8.875,18.6,9.685,38.521,8.483,41.414Z" transform="translate(18.35 12.56)"/><path class="c" d="M-4.914-1.018V22.04s0,4.411-3.276,4.411A4.235,4.235,0,0,1-12.3,23.79" transform="translate(39.234 1.018)"/><path class="c" d="M-8.465,41.414c1.442,3.454,6.263,2.573,11.649,4.523,1.741.628,8.36,4.959,11.7,4.331a2.077,2.077,0,0,0,1.148-.521C18.64,47.374,19.3,33.78,16.81,23.27,14.322,12.738,7.111,2.326.171,2.326a8.081,8.081,0,0,0-6.926,4A11.376,11.376,0,0,0-7.77,8.353a12.834,12.834,0,0,0-.8,3.895C-8.852,18.6-9.667,38.521-8.465,41.414Z" transform="translate(50.268 12.56)"/><path class="c" d="M-10.64-1.018V22.04s0,4.411,3.276,4.411a4.226,4.226,0,0,0,4.1-2.662" transform="translate(44.96 1.018)"/></g><g class="b" transform="translate(1242.727 252.557)"><path class="c" d="M8.483,41.414C7.045,44.868,2.22,43.987-3.162,45.937c-1.745.628-8.364,4.959-11.7,4.331a2.091,2.091,0,0,1-1.153-.521c-2.6-2.373-3.267-15.967-.779-26.477C-14.3,12.738-7.088,2.326-.148,2.326a8.073,8.073,0,0,1,6.922,4,11.375,11.375,0,0,1,1.015,2.03,12.572,12.572,0,0,1,.8,3.895C8.875,18.6,9.685,38.521,8.483,41.414Z" transform="translate(18.35 12.56)"/><path class="c" d="M-4.914-1.018V22.04s0,4.411-3.276,4.411A4.235,4.235,0,0,1-12.3,23.79" transform="translate(39.234 1.018)"/><path class="c" d="M-8.465,41.414c1.442,3.454,6.263,2.573,11.649,4.523,1.741.628,8.36,4.959,11.7,4.331a2.077,2.077,0,0,0,1.148-.521C18.64,47.374,19.3,33.78,16.81,23.27,14.322,12.738,7.111,2.326.171,2.326a8.081,8.081,0,0,0-6.926,4A11.376,11.376,0,0,0-7.77,8.353a12.834,12.834,0,0,0-.8,3.895C-8.852,18.6-9.667,38.521-8.465,41.414Z" transform="translate(50.268 12.56)"/><path class="c" d="M-10.64-1.018V22.04s0,4.411,3.276,4.411a4.226,4.226,0,0,0,4.1-2.662" transform="translate(44.96 1.018)"/></g><g class="b" transform="translate(1166.137 143)"><path class="c" d="M8.483,41.414C7.045,44.868,2.22,43.987-3.162,45.937c-1.745.628-8.364,4.959-11.7,4.331a2.091,2.091,0,0,1-1.153-.521c-2.6-2.373-3.267-15.967-.779-26.477C-14.3,12.738-7.088,2.326-.148,2.326a8.073,8.073,0,0,1,6.922,4,11.375,11.375,0,0,1,1.015,2.03,12.572,12.572,0,0,1,.8,3.895C8.875,18.6,9.685,38.521,8.483,41.414Z" transform="translate(18.35 12.56)"/><path class="c" d="M-4.914-1.018V22.04s0,4.411-3.276,4.411A4.235,4.235,0,0,1-12.3,23.79" transform="translate(39.234 1.018)"/><path class="c" d="M-8.465,41.414c1.442,3.454,6.263,2.573,11.649,4.523,1.741.628,8.36,4.959,11.7,4.331a2.077,2.077,0,0,0,1.148-.521C18.64,47.374,19.3,33.78,16.81,23.27,14.322,12.738,7.111,2.326.171,2.326a8.081,8.081,0,0,0-6.926,4A11.376,11.376,0,0,0-7.77,8.353a12.834,12.834,0,0,0-.8,3.895C-8.852,18.6-9.667,38.521-8.465,41.414Z" transform="translate(50.268 12.56)"/><path class="c" d="M-10.64-1.018V22.04s0,4.411,3.276,4.411a4.226,4.226,0,0,0,4.1-2.662" transform="translate(44.96 1.018)"/></g><g class="b" transform="translate(1007.712 362.114)"><path class="c" d="M8.483,41.414C7.045,44.868,2.22,43.987-3.162,45.937c-1.745.628-8.364,4.959-11.7,4.331a2.091,2.091,0,0,1-1.153-.521c-2.6-2.373-3.267-15.967-.779-26.477C-14.3,12.738-7.088,2.326-.148,2.326a8.073,8.073,0,0,1,6.922,4,11.375,11.375,0,0,1,1.015,2.03,12.572,12.572,0,0,1,.8,3.895C8.875,18.6,9.685,38.521,8.483,41.414Z" transform="translate(18.35 12.56)"/><path class="c" d="M-4.914-1.018V22.04s0,4.411-3.276,4.411A4.235,4.235,0,0,1-12.3,23.79" transform="translate(39.234 1.018)"/><path class="c" d="M-8.465,41.414c1.442,3.454,6.263,2.573,11.649,4.523,1.741.628,8.36,4.959,11.7,4.331a2.077,2.077,0,0,0,1.148-.521C18.64,47.374,19.3,33.78,16.81,23.27,14.322,12.738,7.111,2.326.171,2.326a8.081,8.081,0,0,0-6.926,4A11.376,11.376,0,0,0-7.77,8.353a12.834,12.834,0,0,0-.8,3.895C-8.852,18.6-9.667,38.521-8.465,41.414Z" transform="translate(50.268 12.56)"/><path class="c" d="M-10.64-1.018V22.04s0,4.411,3.276,4.411a4.226,4.226,0,0,0,4.1-2.662" transform="translate(44.96 1.018)"/></g><g class="b" transform="translate(1084.302 252.557)"><path class="c" d="M8.483,41.414C7.045,44.868,2.22,43.987-3.162,45.937c-1.745.628-8.364,4.959-11.7,4.331a2.091,2.091,0,0,1-1.153-.521c-2.6-2.373-3.267-15.967-.779-26.477C-14.3,12.738-7.088,2.326-.148,2.326a8.073,8.073,0,0,1,6.922,4,11.375,11.375,0,0,1,1.015,2.03,12.572,12.572,0,0,1,.8,3.895C8.875,18.6,9.685,38.521,8.483,41.414Z" transform="translate(18.35 12.56)"/><path class="c" d="M-4.914-1.018V22.04s0,4.411-3.276,4.411A4.235,4.235,0,0,1-12.3,23.79" transform="translate(39.234 1.018)"/><path class="c" d="M-8.465,41.414c1.442,3.454,6.263,2.573,11.649,4.523,1.741.628,8.36,4.959,11.7,4.331a2.077,2.077,0,0,0,1.148-.521C18.64,47.374,19.3,33.78,16.81,23.27,14.322,12.738,7.111,2.326.171,2.326a8.081,8.081,0,0,0-6.926,4A11.376,11.376,0,0,0-7.77,8.353a12.834,12.834,0,0,0-.8,3.895C-8.852,18.6-9.667,38.521-8.465,41.414Z" transform="translate(50.268 12.56)"/><path class="c" d="M-10.64-1.018V22.04s0,4.411,3.276,4.411a4.226,4.226,0,0,0,4.1-2.662" transform="translate(44.96 1.018)"/></g><g class="b" transform="translate(1007.712 143)"><path class="c" d="M8.483,41.414C7.045,44.868,2.22,43.987-3.162,45.937c-1.745.628-8.364,4.959-11.7,4.331a2.091,2.091,0,0,1-1.153-.521c-2.6-2.373-3.267-15.967-.779-26.477C-14.3,12.738-7.088,2.326-.148,2.326a8.073,8.073,0,0,1,6.922,4,11.375,11.375,0,0,1,1.015,2.03,12.572,12.572,0,0,1,.8,3.895C8.875,18.6,9.685,38.521,8.483,41.414Z" transform="translate(18.35 12.56)"/><path class="c" d="M-4.914-1.018V22.04s0,4.411-3.276,4.411A4.235,4.235,0,0,1-12.3,23.79" transform="translate(39.234 1.018)"/><path class="c" d="M-8.465,41.414c1.442,3.454,6.263,2.573,11.649,4.523,1.741.628,8.36,4.959,11.7,4.331a2.077,2.077,0,0,0,1.148-.521C18.64,47.374,19.3,33.78,16.81,23.27,14.322,12.738,7.111,2.326.171,2.326a8.081,8.081,0,0,0-6.926,4A11.376,11.376,0,0,0-7.77,8.353a12.834,12.834,0,0,0-.8,3.895C-8.852,18.6-9.667,38.521-8.465,41.414Z" transform="translate(50.268 12.56)"/><path class="c" d="M-10.64-1.018V22.04s0,4.411,3.276,4.411a4.226,4.226,0,0,0,4.1-2.662" transform="translate(44.96 1.018)"/></g><g class="b" transform="translate(833.549 362.114)"><path class="c" d="M8.483,41.414C7.045,44.868,2.22,43.987-3.162,45.937c-1.745.628-8.364,4.959-11.7,4.331a2.091,2.091,0,0,1-1.153-.521c-2.6-2.373-3.267-15.967-.779-26.477C-14.3,12.738-7.088,2.326-.148,2.326a8.073,8.073,0,0,1,6.922,4,11.375,11.375,0,0,1,1.015,2.03,12.572,12.572,0,0,1,.8,3.895C8.875,18.6,9.685,38.521,8.483,41.414Z" transform="translate(18.35 12.56)"/><path class="c" d="M-4.914-1.018V22.04s0,4.411-3.276,4.411A4.235,4.235,0,0,1-12.3,23.79" transform="translate(39.234 1.018)"/><path class="c" d="M-8.465,41.414c1.442,3.454,6.263,2.573,11.649,4.523,1.741.628,8.36,4.959,11.7,4.331a2.077,2.077,0,0,0,1.148-.521C18.64,47.374,19.3,33.78,16.81,23.27,14.322,12.738,7.111,2.326.171,2.326a8.081,8.081,0,0,0-6.926,4A11.376,11.376,0,0,0-7.77,8.353a12.834,12.834,0,0,0-.8,3.895C-8.852,18.6-9.667,38.521-8.465,41.414Z" transform="translate(50.268 12.56)"/><path class="c" d="M-10.64-1.018V22.04s0,4.411,3.276,4.411a4.226,4.226,0,0,0,4.1-2.662" transform="translate(44.96 1.018)"/></g><g class="b" transform="translate(910.139 252.557)"><path class="c" d="M8.483,41.414C7.045,44.868,2.22,43.987-3.162,45.937c-1.745.628-8.364,4.959-11.7,4.331a2.091,2.091,0,0,1-1.153-.521c-2.6-2.373-3.267-15.967-.779-26.477C-14.3,12.738-7.088,2.326-.148,2.326a8.073,8.073,0,0,1,6.922,4,11.375,11.375,0,0,1,1.015,2.03,12.572,12.572,0,0,1,.8,3.895C8.875,18.6,9.685,38.521,8.483,41.414Z" transform="translate(18.35 12.56)"/><path class="c" d="M-4.914-1.018V22.04s0,4.411-3.276,4.411A4.235,4.235,0,0,1-12.3,23.79" transform="translate(39.234 1.018)"/><path class="c" d="M-8.465,41.414c1.442,3.454,6.263,2.573,11.649,4.523,1.741.628,8.36,4.959,11.7,4.331a2.077,2.077,0,0,0,1.148-.521C18.64,47.374,19.3,33.78,16.81,23.27,14.322,12.738,7.111,2.326.171,2.326a8.081,8.081,0,0,0-6.926,4A11.376,11.376,0,0,0-7.77,8.353a12.834,12.834,0,0,0-.8,3.895C-8.852,18.6-9.667,38.521-8.465,41.414Z" transform="translate(50.268 12.56)"/><path class="c" d="M-10.64-1.018V22.04s0,4.411,3.276,4.411a4.226,4.226,0,0,0,4.1-2.662" transform="translate(44.96 1.018)"/></g><g class="b" transform="translate(833.549 143)"><path class="c" d="M8.483,41.414C7.045,44.868,2.22,43.987-3.162,45.937c-1.745.628-8.364,4.959-11.7,4.331a2.091,2.091,0,0,1-1.153-.521c-2.6-2.373-3.267-15.967-.779-26.477C-14.3,12.738-7.088,2.326-.148,2.326a8.073,8.073,0,0,1,6.922,4,11.375,11.375,0,0,1,1.015,2.03,12.572,12.572,0,0,1,.8,3.895C8.875,18.6,9.685,38.521,8.483,41.414Z" transform="translate(18.35 12.56)"/><path class="c" d="M-4.914-1.018V22.04s0,4.411-3.276,4.411A4.235,4.235,0,0,1-12.3,23.79" transform="translate(39.234 1.018)"/><path class="c" d="M-8.465,41.414c1.442,3.454,6.263,2.573,11.649,4.523,1.741.628,8.36,4.959,11.7,4.331a2.077,2.077,0,0,0,1.148-.521C18.64,47.374,19.3,33.78,16.81,23.27,14.322,12.738,7.111,2.326.171,2.326a8.081,8.081,0,0,0-6.926,4A11.376,11.376,0,0,0-7.77,8.353a12.834,12.834,0,0,0-.8,3.895C-8.852,18.6-9.667,38.521-8.465,41.414Z" transform="translate(50.268 12.56)"/><path class="c" d="M-10.64-1.018V22.04s0,4.411,3.276,4.411a4.226,4.226,0,0,0,4.1-2.662" transform="translate(44.96 1.018)"/></g><g class="b" transform="translate(663.467 362.114)"><path class="c" d="M8.483,41.414C7.045,44.868,2.22,43.987-3.162,45.937c-1.745.628-8.364,4.959-11.7,4.331a2.091,2.091,0,0,1-1.153-.521c-2.6-2.373-3.267-15.967-.779-26.477C-14.3,12.738-7.088,2.326-.148,2.326a8.073,8.073,0,0,1,6.922,4,11.375,11.375,0,0,1,1.015,2.03,12.572,12.572,0,0,1,.8,3.895C8.875,18.6,9.685,38.521,8.483,41.414Z" transform="translate(18.35 12.56)"/><path class="c" d="M-4.914-1.018V22.04s0,4.411-3.276,4.411A4.235,4.235,0,0,1-12.3,23.79" transform="translate(39.234 1.018)"/><path class="c" d="M-8.465,41.414c1.442,3.454,6.263,2.573,11.649,4.523,1.741.628,8.36,4.959,11.7,4.331a2.077,2.077,0,0,0,1.148-.521C18.64,47.374,19.3,33.78,16.81,23.27,14.322,12.738,7.111,2.326.171,2.326a8.081,8.081,0,0,0-6.926,4A11.376,11.376,0,0,0-7.77,8.353a12.834,12.834,0,0,0-.8,3.895C-8.852,18.6-9.667,38.521-8.465,41.414Z" transform="translate(50.268 12.56)"/><path class="c" d="M-10.64-1.018V22.04s0,4.411,3.276,4.411a4.226,4.226,0,0,0,4.1-2.662" transform="translate(44.96 1.018)"/></g><g class="b" transform="translate(751.714 252.557)"><path class="c" d="M8.483,41.414C7.045,44.868,2.22,43.987-3.162,45.937c-1.745.628-8.364,4.959-11.7,4.331a2.091,2.091,0,0,1-1.153-.521c-2.6-2.373-3.267-15.967-.779-26.477C-14.3,12.738-7.088,2.326-.148,2.326a8.073,8.073,0,0,1,6.922,4,11.375,11.375,0,0,1,1.015,2.03,12.572,12.572,0,0,1,.8,3.895C8.875,18.6,9.685,38.521,8.483,41.414Z" transform="translate(18.35 12.56)"/><path class="c" d="M-4.914-1.018V22.04s0,4.411-3.276,4.411A4.235,4.235,0,0,1-12.3,23.79" transform="translate(39.234 1.018)"/><path class="c" d="M-8.465,41.414c1.442,3.454,6.263,2.573,11.649,4.523,1.741.628,8.36,4.959,11.7,4.331a2.077,2.077,0,0,0,1.148-.521C18.64,47.374,19.3,33.78,16.81,23.27,14.322,12.738,7.111,2.326.171,2.326a8.081,8.081,0,0,0-6.926,4A11.376,11.376,0,0,0-7.77,8.353a12.834,12.834,0,0,0-.8,3.895C-8.852,18.6-9.667,38.521-8.465,41.414Z" transform="translate(50.268 12.56)"/><path class="c" d="M-10.64-1.018V22.04s0,4.411,3.276,4.411a4.226,4.226,0,0,0,4.1-2.662" transform="translate(44.96 1.018)"/></g><g class="b" transform="translate(645.118 143)"><path class="c" d="M8.483,41.414C7.045,44.868,2.22,43.987-3.162,45.937c-1.745.628-8.364,4.959-11.7,4.331a2.091,2.091,0,0,1-1.153-.521c-2.6-2.373-3.267-15.967-.779-26.477C-14.3,12.738-7.088,2.326-.148,2.326a8.073,8.073,0,0,1,6.922,4,11.375,11.375,0,0,1,1.015,2.03,12.572,12.572,0,0,1,.8,3.895C8.875,18.6,9.685,38.521,8.483,41.414Z" transform="translate(18.35 12.56)"/><path class="c" d="M-4.914-1.018V22.04s0,4.411-3.276,4.411A4.235,4.235,0,0,1-12.3,23.79" transform="translate(39.234 1.018)"/><path class="c" d="M-8.465,41.414c1.442,3.454,6.263,2.573,11.649,4.523,1.741.628,8.36,4.959,11.7,4.331a2.077,2.077,0,0,0,1.148-.521C18.64,47.374,19.3,33.78,16.81,23.27,14.322,12.738,7.111,2.326.171,2.326a8.081,8.081,0,0,0-6.926,4A11.376,11.376,0,0,0-7.77,8.353a12.834,12.834,0,0,0-.8,3.895C-8.852,18.6-9.667,38.521-8.465,41.414Z" transform="translate(50.268 12.56)"/><path class="c" d="M-10.64-1.018V22.04s0,4.411,3.276,4.411a4.226,4.226,0,0,0,4.1-2.662" transform="translate(44.96 1.018)"/></g><g class="b" transform="translate(509.467 362.114)"><path class="c" d="M8.483,41.414C7.045,44.868,2.22,43.987-3.162,45.937c-1.745.628-8.364,4.959-11.7,4.331a2.091,2.091,0,0,1-1.153-.521c-2.6-2.373-3.267-15.967-.779-26.477C-14.3,12.738-7.088,2.326-.148,2.326a8.073,8.073,0,0,1,6.922,4,11.375,11.375,0,0,1,1.015,2.03,12.572,12.572,0,0,1,.8,3.895C8.875,18.6,9.685,38.521,8.483,41.414Z" transform="translate(18.35 12.56)"/><path class="c" d="M-4.914-1.018V22.04s0,4.411-3.276,4.411A4.235,4.235,0,0,1-12.3,23.79" transform="translate(39.234 1.018)"/><path class="c" d="M-8.465,41.414c1.442,3.454,6.263,2.573,11.649,4.523,1.741.628,8.36,4.959,11.7,4.331a2.077,2.077,0,0,0,1.148-.521C18.64,47.374,19.3,33.78,16.81,23.27,14.322,12.738,7.111,2.326.171,2.326a8.081,8.081,0,0,0-6.926,4A11.376,11.376,0,0,0-7.77,8.353a12.834,12.834,0,0,0-.8,3.895C-8.852,18.6-9.667,38.521-8.465,41.414Z" transform="translate(50.268 12.56)"/><path class="c" d="M-10.64-1.018V22.04s0,4.411,3.276,4.411a4.226,4.226,0,0,0,4.1-2.662" transform="translate(44.96 1.018)"/></g><g class="b" transform="translate(578.829 252.557)"><path class="c" d="M8.483,41.414C7.045,44.868,2.22,43.987-3.162,45.937c-1.745.628-8.364,4.959-11.7,4.331a2.091,2.091,0,0,1-1.153-.521c-2.6-2.373-3.267-15.967-.779-26.477C-14.3,12.738-7.088,2.326-.148,2.326a8.073,8.073,0,0,1,6.922,4,11.375,11.375,0,0,1,1.015,2.03,12.572,12.572,0,0,1,.8,3.895C8.875,18.6,9.685,38.521,8.483,41.414Z" transform="translate(18.35 12.56)"/><path class="c" d="M-4.914-1.018V22.04s0,4.411-3.276,4.411A4.235,4.235,0,0,1-12.3,23.79" transform="translate(39.234 1.018)"/><path class="c" d="M-8.465,41.414c1.442,3.454,6.263,2.573,11.649,4.523,1.741.628,8.36,4.959,11.7,4.331a2.077,2.077,0,0,0,1.148-.521C18.64,47.374,19.3,33.78,16.81,23.27,14.322,12.738,7.111,2.326.171,2.326a8.081,8.081,0,0,0-6.926,4A11.376,11.376,0,0,0-7.77,8.353a12.834,12.834,0,0,0-.8,3.895C-8.852,18.6-9.667,38.521-8.465,41.414Z" transform="translate(50.268 12.56)"/><path class="c" d="M-10.64-1.018V22.04s0,4.411,3.276,4.411a4.226,4.226,0,0,0,4.1-2.662" transform="translate(44.96 1.018)"/></g><g class="b" transform="translate(492.988 143)"><path class="c" d="M8.483,41.414C7.045,44.868,2.22,43.987-3.162,45.937c-1.745.628-8.364,4.959-11.7,4.331a2.091,2.091,0,0,1-1.153-.521c-2.6-2.373-3.267-15.967-.779-26.477C-14.3,12.738-7.088,2.326-.148,2.326a8.073,8.073,0,0,1,6.922,4,11.375,11.375,0,0,1,1.015,2.03,12.572,12.572,0,0,1,.8,3.895C8.875,18.6,9.685,38.521,8.483,41.414Z" transform="translate(18.35 12.56)"/><path class="c" d="M-4.914-1.018V22.04s0,4.411-3.276,4.411A4.235,4.235,0,0,1-12.3,23.79" transform="translate(39.234 1.018)"/><path class="c" d="M-8.465,41.414c1.442,3.454,6.263,2.573,11.649,4.523,1.741.628,8.36,4.959,11.7,4.331a2.077,2.077,0,0,0,1.148-.521C18.64,47.374,19.3,33.78,16.81,23.27,14.322,12.738,7.111,2.326.171,2.326a8.081,8.081,0,0,0-6.926,4A11.376,11.376,0,0,0-7.77,8.353a12.834,12.834,0,0,0-.8,3.895C-8.852,18.6-9.667,38.521-8.465,41.414Z" transform="translate(50.268 12.56)"/><path class="c" d="M-10.64-1.018V22.04s0,4.411,3.276,4.411a4.226,4.226,0,0,0,4.1-2.662" transform="translate(44.96 1.018)"/></g><g class="b" transform="translate(318.829 362.114)"><path class="c" d="M8.483,41.414C7.045,44.868,2.22,43.987-3.162,45.937c-1.745.628-8.364,4.959-11.7,4.331a2.091,2.091,0,0,1-1.153-.521c-2.6-2.373-3.267-15.967-.779-26.477C-14.3,12.738-7.088,2.326-.148,2.326a8.073,8.073,0,0,1,6.922,4,11.375,11.375,0,0,1,1.015,2.03,12.572,12.572,0,0,1,.8,3.895C8.875,18.6,9.685,38.521,8.483,41.414Z" transform="translate(18.35 12.56)"/><path class="c" d="M-4.914-1.018V22.04s0,4.411-3.276,4.411A4.235,4.235,0,0,1-12.3,23.79" transform="translate(39.234 1.018)"/><path class="c" d="M-8.465,41.414c1.442,3.454,6.263,2.573,11.649,4.523,1.741.628,8.36,4.959,11.7,4.331a2.077,2.077,0,0,0,1.148-.521C18.64,47.374,19.3,33.78,16.81,23.27,14.322,12.738,7.111,2.326.171,2.326a8.081,8.081,0,0,0-6.926,4A11.376,11.376,0,0,0-7.77,8.353a12.834,12.834,0,0,0-.8,3.895C-8.852,18.6-9.667,38.521-8.465,41.414Z" transform="translate(50.268 12.56)"/><path class="c" d="M-10.64-1.018V22.04s0,4.411,3.276,4.411a4.226,4.226,0,0,0,4.1-2.662" transform="translate(44.96 1.018)"/></g><g class="b" transform="translate(411.153 252.557)"><path class="c" d="M8.483,41.414C7.045,44.868,2.22,43.987-3.162,45.937c-1.745.628-8.364,4.959-11.7,4.331a2.091,2.091,0,0,1-1.153-.521c-2.6-2.373-3.267-15.967-.779-26.477C-14.3,12.738-7.088,2.326-.148,2.326a8.073,8.073,0,0,1,6.922,4,11.375,11.375,0,0,1,1.015,2.03,12.572,12.572,0,0,1,.8,3.895C8.875,18.6,9.685,38.521,8.483,41.414Z" transform="translate(18.35 12.56)"/><path class="c" d="M-4.914-1.018V22.04s0,4.411-3.276,4.411A4.235,4.235,0,0,1-12.3,23.79" transform="translate(39.234 1.018)"/><path class="c" d="M-8.465,41.414c1.442,3.454,6.263,2.573,11.649,4.523,1.741.628,8.36,4.959,11.7,4.331a2.077,2.077,0,0,0,1.148-.521C18.64,47.374,19.3,33.78,16.81,23.27,14.322,12.738,7.111,2.326.171,2.326a8.081,8.081,0,0,0-6.926,4A11.376,11.376,0,0,0-7.77,8.353a12.834,12.834,0,0,0-.8,3.895C-8.852,18.6-9.667,38.521-8.465,41.414Z" transform="translate(50.268 12.56)"/><path class="c" d="M-10.64-1.018V22.04s0,4.411,3.276,4.411a4.226,4.226,0,0,0,4.1-2.662" transform="translate(44.96 1.018)"/></g><g class="b" transform="translate(318.829 143)"><path class="c" d="M8.483,41.414C7.045,44.868,2.22,43.987-3.162,45.937c-1.745.628-8.364,4.959-11.7,4.331a2.091,2.091,0,0,1-1.153-.521c-2.6-2.373-3.267-15.967-.779-26.477C-14.3,12.738-7.088,2.326-.148,2.326a8.073,8.073,0,0,1,6.922,4,11.375,11.375,0,0,1,1.015,2.03,12.572,12.572,0,0,1,.8,3.895C8.875,18.6,9.685,38.521,8.483,41.414Z" transform="translate(18.35 12.56)"/><path class="c" d="M-4.914-1.018V22.04s0,4.411-3.276,4.411A4.235,4.235,0,0,1-12.3,23.79" transform="translate(39.234 1.018)"/><path class="c" d="M-8.465,41.414c1.442,3.454,6.263,2.573,11.649,4.523,1.741.628,8.36,4.959,11.7,4.331a2.077,2.077,0,0,0,1.148-.521C18.64,47.374,19.3,33.78,16.81,23.27,14.322,12.738,7.111,2.326.171,2.326a8.081,8.081,0,0,0-6.926,4A11.376,11.376,0,0,0-7.77,8.353a12.834,12.834,0,0,0-.8,3.895C-8.852,18.6-9.667,38.521-8.465,41.414Z" transform="translate(50.268 12.56)"/><path class="c" d="M-10.64-1.018V22.04s0,4.411,3.276,4.411a4.226,4.226,0,0,0,4.1-2.662" transform="translate(44.96 1.018)"/></g><g class="b" transform="translate(160.4 362.114)"><path class="c" d="M8.483,41.414C7.045,44.868,2.22,43.987-3.162,45.937c-1.745.628-8.364,4.959-11.7,4.331a2.091,2.091,0,0,1-1.153-.521c-2.6-2.373-3.267-15.967-.779-26.477C-14.3,12.738-7.088,2.326-.148,2.326a8.073,8.073,0,0,1,6.922,4,11.375,11.375,0,0,1,1.015,2.03,12.572,12.572,0,0,1,.8,3.895C8.875,18.6,9.685,38.521,8.483,41.414Z" transform="translate(18.35 12.56)"/><path class="c" d="M-4.914-1.018V22.04s0,4.411-3.276,4.411A4.235,4.235,0,0,1-12.3,23.79" transform="translate(39.234 1.018)"/><path class="c" d="M-8.465,41.414c1.442,3.454,6.263,2.573,11.649,4.523,1.741.628,8.36,4.959,11.7,4.331a2.077,2.077,0,0,0,1.148-.521C18.64,47.374,19.3,33.78,16.81,23.27,14.322,12.738,7.111,2.326.171,2.326a8.081,8.081,0,0,0-6.926,4A11.376,11.376,0,0,0-7.77,8.353a12.834,12.834,0,0,0-.8,3.895C-8.852,18.6-9.667,38.521-8.465,41.414Z" transform="translate(50.268 12.56)"/><path class="c" d="M-10.64-1.018V22.04s0,4.411,3.276,4.411a4.226,4.226,0,0,0,4.1-2.662" transform="translate(44.96 1.018)"/></g><g class="b" transform="translate(229.038 252.557)"><path class="c" d="M8.483,41.414C7.045,44.868,2.22,43.987-3.162,45.937c-1.745.628-8.364,4.959-11.7,4.331a2.091,2.091,0,0,1-1.153-.521c-2.6-2.373-3.267-15.967-.779-26.477C-14.3,12.738-7.088,2.326-.148,2.326a8.073,8.073,0,0,1,6.922,4,11.375,11.375,0,0,1,1.015,2.03,12.572,12.572,0,0,1,.8,3.895C8.875,18.6,9.685,38.521,8.483,41.414Z" transform="translate(18.35 12.56)"/><path class="c" d="M-4.914-1.018V22.04s0,4.411-3.276,4.411A4.235,4.235,0,0,1-12.3,23.79" transform="translate(39.234 1.018)"/><path class="c" d="M-8.465,41.414c1.442,3.454,6.263,2.573,11.649,4.523,1.741.628,8.36,4.959,11.7,4.331a2.077,2.077,0,0,0,1.148-.521C18.64,47.374,19.3,33.78,16.81,23.27,14.322,12.738,7.111,2.326.171,2.326a8.081,8.081,0,0,0-6.926,4A11.376,11.376,0,0,0-7.77,8.353a12.834,12.834,0,0,0-.8,3.895C-8.852,18.6-9.667,38.521-8.465,41.414Z" transform="translate(50.268 12.56)"/><path class="c" d="M-10.64-1.018V22.04s0,4.411,3.276,4.411a4.226,4.226,0,0,0,4.1-2.662" transform="translate(44.96 1.018)"/></g><g class="b" transform="translate(160.4 143)"><path class="c" d="M8.483,41.414C7.045,44.868,2.22,43.987-3.162,45.937c-1.745.628-8.364,4.959-11.7,4.331a2.091,2.091,0,0,1-1.153-.521c-2.6-2.373-3.267-15.967-.779-26.477C-14.3,12.738-7.088,2.326-.148,2.326a8.073,8.073,0,0,1,6.922,4,11.375,11.375,0,0,1,1.015,2.03,12.572,12.572,0,0,1,.8,3.895C8.875,18.6,9.685,38.521,8.483,41.414Z" transform="translate(18.35 12.56)"/><path class="c" d="M-4.914-1.018V22.04s0,4.411-3.276,4.411A4.235,4.235,0,0,1-12.3,23.79" transform="translate(39.234 1.018)"/><path class="c" d="M-8.465,41.414c1.442,3.454,6.263,2.573,11.649,4.523,1.741.628,8.36,4.959,11.7,4.331a2.077,2.077,0,0,0,1.148-.521C18.64,47.374,19.3,33.78,16.81,23.27,14.322,12.738,7.111,2.326.171,2.326a8.081,8.081,0,0,0-6.926,4A11.376,11.376,0,0,0-7.77,8.353a12.834,12.834,0,0,0-.8,3.895C-8.852,18.6-9.667,38.521-8.465,41.414Z" transform="translate(50.268 12.56)"/><path class="c" d="M-10.64-1.018V22.04s0,4.411,3.276,4.411a4.226,4.226,0,0,0,4.1-2.662" transform="translate(44.96 1.018)"/></g></g></svg>