<svg xmlns="http://www.w3.org/2000/svg" width="518.753" height="532.732" viewBox="0 0 518.753 532.732">
  <g id="Groupe_8937" data-name="Groupe 8937" transform="translate(0 0)">
    <path id="Tracé_84030" data-name="Tracé 84030" d="M107.959,0C217.921,0,309.3,161.835,309.3,271.8S254.23,417.184,144.268,417.184,0,441.528,0,331.566-2,0,107.959,0Z" transform="matrix(0.914, 0.407, -0.407, 0.914, 210.047, 23.715)" fill="#393384" opacity="0.24"/>
    <path id="Tracé_84031" data-name="Tracé 84031" d="M127.23,0C229.963,0,353.8,142.331,353.8,245.063S263.884,389.756,161.152,389.756,0,383.288,0,280.556,24.5,0,127.23,0Z" transform="translate(0 217.819) rotate(-38)" fill="#00a1a2"/>
    <path id="Tracé_84012" data-name="Tracé 84012" d="M15.094,386.738H7.212A6.061,6.061,0,0,1,1.3,380.826V6.412A6.061,6.061,0,0,1,7.212.5h7.882a6.061,6.061,0,0,1,5.912,5.912V380.826C20.612,383.979,18.247,386.738,15.094,386.738Z" transform="translate(110.043 72.747)" fill="#fff" stroke="#000" stroke-width="3"/>
    <path id="Tracé_84013" data-name="Tracé 84013" d="M257.143,35.971A35.323,35.323,0,0,0,221.672.5H13.577A8.325,8.325,0,0,0,5.3,8.777V378.067a8.325,8.325,0,0,0,8.277,8.277h223.86a19.515,19.515,0,0,0,19.706-19.706Z" transform="translate(121.807 72.747)" fill="#f0f5fb" stroke="#000" stroke-width="3"/>
    <path id="Tracé_84014" data-name="Tracé 84014" d="M23.947,15.382H4.241A3.724,3.724,0,0,1,.3,11.441h0A3.724,3.724,0,0,1,4.241,7.5H23.947a3.724,3.724,0,0,1,3.941,3.941h0C27.494,13.806,25.918,15.382,23.947,15.382Z" transform="translate(107.101 93.335)" fill="#fff" stroke="#000" stroke-width="3"/>
    <path id="Tracé_84015" data-name="Tracé 84015" d="M23.947,21.682H4.241A3.724,3.724,0,0,1,.3,17.741h0A3.724,3.724,0,0,1,4.241,13.8H23.947a3.724,3.724,0,0,1,3.941,3.941h0C27.494,19.712,25.918,21.682,23.947,21.682Z" transform="translate(107.101 111.865)" fill="#fff" stroke="#000" stroke-width="3"/>
    <path id="Tracé_84016" data-name="Tracé 84016" d="M23.947,27.882H4.241A3.724,3.724,0,0,1,.3,23.941h0A3.724,3.724,0,0,1,4.241,20H23.947a3.724,3.724,0,0,1,3.941,3.941h0C27.494,26.306,25.918,27.882,23.947,27.882Z" transform="translate(107.101 130.1)" fill="#fff" stroke="#000" stroke-width="3"/>
    <path id="Tracé_84017" data-name="Tracé 84017" d="M23.947,34.182H4.241A3.724,3.724,0,0,1,.3,30.241h0A3.724,3.724,0,0,1,4.241,26.3H23.947a3.724,3.724,0,0,1,3.941,3.941h0C27.494,32.212,25.918,34.182,23.947,34.182Z" transform="translate(107.101 148.63)" fill="#fff" stroke="#000" stroke-width="3"/>
    <path id="Tracé_84018" data-name="Tracé 84018" d="M23.947,40.382H4.241A3.724,3.724,0,0,1,.3,36.441h0A3.724,3.724,0,0,1,4.241,32.5H23.947a3.724,3.724,0,0,1,3.941,3.941h0C27.494,38.806,25.918,40.382,23.947,40.382Z" transform="translate(107.101 166.865)" fill="#fff" stroke="#000" stroke-width="3"/>
    <path id="Tracé_84019" data-name="Tracé 84019" d="M23.947,46.682H4.241A3.724,3.724,0,0,1,.3,42.741h0A3.724,3.724,0,0,1,4.241,38.8H23.947a3.724,3.724,0,0,1,3.941,3.941h0C27.494,44.712,25.918,46.682,23.947,46.682Z" transform="translate(107.101 185.395)" fill="#fff" stroke="#000" stroke-width="3"/>
    <path id="Tracé_84020" data-name="Tracé 84020" d="M23.947,52.882H4.241A3.724,3.724,0,0,1,.3,48.941h0A3.724,3.724,0,0,1,4.241,45H23.947a3.724,3.724,0,0,1,3.941,3.941h0C27.494,51.306,25.918,52.882,23.947,52.882Z" transform="translate(107.101 203.63)" fill="#fff" stroke="#000" stroke-width="3"/>
    <path id="Tracé_84021" data-name="Tracé 84021" d="M23.947,59.182H4.241A3.724,3.724,0,0,1,.3,55.241h0A3.724,3.724,0,0,1,4.241,51.3H23.947a3.724,3.724,0,0,1,3.941,3.941h0C27.494,57.212,25.918,59.182,23.947,59.182Z" transform="translate(107.101 222.16)" fill="#fff" stroke="#000" stroke-width="3"/>
    <path id="Tracé_84022" data-name="Tracé 84022" d="M23.947,65.382H4.241A3.724,3.724,0,0,1,.3,61.441h0A3.724,3.724,0,0,1,4.241,57.5H23.947a3.724,3.724,0,0,1,3.941,3.941h0C27.494,63.806,25.918,65.382,23.947,65.382Z" transform="translate(107.101 240.395)" fill="#fff" stroke="#000" stroke-width="3"/>
    <path id="Tracé_84023" data-name="Tracé 84023" d="M23.947,71.682H4.241A3.724,3.724,0,0,1,.3,67.741h0A3.724,3.724,0,0,1,4.241,63.8H23.947a3.724,3.724,0,0,1,3.941,3.941h0C27.494,69.712,25.918,71.682,23.947,71.682Z" transform="translate(107.101 258.925)" fill="#fff" stroke="#000" stroke-width="3"/>
    <path id="Tracé_84024" data-name="Tracé 84024" d="M23.947,77.882H4.241A3.724,3.724,0,0,1,.3,73.941h0A3.724,3.724,0,0,1,4.241,70H23.947a3.724,3.724,0,0,1,3.941,3.941h0C27.494,76.306,25.918,77.882,23.947,77.882Z" transform="translate(107.101 277.161)" fill="#fff" stroke="#000" stroke-width="3"/>
    <path id="Tracé_84025" data-name="Tracé 84025" d="M23.947,84.182H4.241A3.724,3.724,0,0,1,.3,80.241h0A3.724,3.724,0,0,1,4.241,76.3H23.947a3.724,3.724,0,0,1,3.941,3.941h0C27.494,82.212,25.918,84.182,23.947,84.182Z" transform="translate(107.101 295.69)" fill="#fff" stroke="#000" stroke-width="3"/>
    <path id="Tracé_84026" data-name="Tracé 84026" d="M23.947,90.382H4.241A3.724,3.724,0,0,1,.3,86.441h0A3.724,3.724,0,0,1,4.241,82.5H23.947a3.724,3.724,0,0,1,3.941,3.941h0C27.494,88.806,25.918,90.382,23.947,90.382Z" transform="translate(107.101 313.926)" fill="#fff" stroke="#000" stroke-width="3"/>
    <g id="Groupe_8936" data-name="Groupe 8936" transform="translate(388.433 84.286)">
      <path id="Tracé_84033" data-name="Tracé 84033" d="M138.715,930.293a.776.776,0,0,1-1.5,0c-2.36-8.34-9.461-33.78-9.461-37.7V586.022a8.365,8.365,0,0,1,8.2-8.522h4.022a8.365,8.365,0,0,1,8.2,8.522V892.592C148.172,896.514,141.071,921.953,138.715,930.293Z" transform="translate(-127.748 -577.5)" fill="#fff" stroke="#000" stroke-width="3"/>
      <rect id="Rectangle_148070" data-name="Rectangle 148070" width="20.422" height="5.305" transform="translate(0.001 23.873)" stroke="#000" stroke-width="2"/>
      <rect id="Rectangle_148071" data-name="Rectangle 148071" width="20.423" height="5.305" transform="translate(0.001 34.483)" stroke="#000" stroke-width="2"/>
      <line id="Ligne_312" data-name="Ligne 312" x2="20.422" transform="translate(0 315.654)" fill="none" stroke="#000" stroke-width="3"/>
    </g>
  </g>
</svg>
