<svg xmlns="http://www.w3.org/2000/svg" width="19.01" height="18" viewBox="0 0 19.01 18"><defs><style>.a{fill:#1b57ed;}</style></defs><path class="a" d="M779.468,783.909a5.48,5.48,0,0,0-2.518.6,5.587,5.587,0,0,0-1.445,1.065,5.59,5.59,0,0,0-1.445-1.065,5.481,5.481,0,0,0-2.518-.6A5.548,5.548,0,0,0,766,789.451c0,2.165,3,5.416,5.259,7.785,2.112,2.244,3.868,4.078,3.868,4.078l.528.6.607-.6c1.584-1.664,3.4-3.552,5.281-5.53,2.254-2.369,3.467-4.168,3.467-6.333a5.548,5.548,0,0,0-5.542-5.542Zm0,0" transform="translate(-766 -783.909)"/></svg>