<svg xmlns="http://www.w3.org/2000/svg" width="433.884" height="445.576" viewBox="0 0 433.884 445.576">
  <g id="Groupe_8970" data-name="Groupe 8970" transform="translate(-995.77 -187.273)">
    <g id="Groupe_8963" data-name="Groupe 8963" transform="translate(995.77 187.273)">
      <path id="Tracé_84030" data-name="Tracé 84030" d="M90.3,0c91.972,0,168.4,135.359,168.4,227.331s-46.064,121.6-138.036,121.6S0,369.293,0,277.321-1.675,0,90.3,0Z" transform="matrix(0.914, 0.407, -0.407, 0.914, 175.683, 19.835)" fill="#f8a609"/>
      <path id="Tracé_84031" data-name="Tracé 84031" d="M106.415,0c85.925,0,189.5,119.045,189.5,204.97s-75.2,121.021-161.127,121.021S0,320.581,0,234.656,20.49,0,106.415,0Z" transform="translate(0 182.183) rotate(-38)" fill="#1b57ed"/>
    </g>
    <g id="Groupe_8964" data-name="Groupe 8964" transform="translate(1213.683 428.604)">
      <g id="Rectangle_148182" data-name="Rectangle 148182" fill="#fff">
        <path d="M28.617,4.027a7.749,7.749,0,0,1,2.2,2.057,7.558,7.558,0,0,1,1.2,2.615,7.3,7.3,0,0,1,.126,2.839,7.106,7.106,0,0,1-1.029,2.733L16.588,37.156a6.969,6.969,0,0,1-2,2.056,7.283,7.283,0,0,1-2.59,1.081,7.62,7.62,0,0,1-2.847.042A7.833,7.833,0,0,1,4.19,37.252a7.488,7.488,0,0,1-1.2-2.563,7.152,7.152,0,0,1-.15-2.786,6.915,6.915,0,0,1,.99-2.688L18.245,6.243a7.153,7.153,0,0,1,2.029-2.11A7.409,7.409,0,0,1,22.9,3.011,7.673,7.673,0,0,1,25.8,2.951,7.8,7.8,0,0,1,28.617,4.027Z" stroke="none"/>
        <path d="M 7.383790969848633 37.66082000732422 C 8.02916431427002 38.06223297119141 8.723543167114258 38.31974411010742 9.426486968994141 38.44175720214844 C 10.12952995300293 38.56378936767578 10.84126758575439 38.55032348632812 11.52121257781982 38.40969467163086 C 12.20135688781738 38.26902008056641 12.84979152679443 38.0010986328125 13.42593097686768 37.61422729492188 C 14.0023193359375 37.22719192504883 14.5064172744751 36.72106552124023 14.89755439758301 36.10415267944336 L 29.41412353515625 13.20796298980713 C 29.81289482116699 12.57900142669678 30.06060409545898 11.89631652832031 30.16706275939941 11.200514793396 C 30.2735652923584 10.50438404083252 30.23868179321289 9.795175552368164 30.07224655151367 9.113595962524414 C 29.90574836730957 8.431760787963867 29.60762596130371 7.777656078338623 29.18778038024902 7.192071914672852 C 28.7678394317627 6.606349945068359 28.22619438171387 6.089276790618896 27.57284545898438 5.68167781829834 C 26.91946220397949 5.274057388305664 26.21541023254395 5.014007091522217 25.50203132629395 4.892755508422852 C 24.78875541687012 4.771520614624023 24.06628608703613 4.789066791534424 23.37591361999512 4.936542987823486 C 22.68575096130371 5.083974838256836 22.02776145935059 5.361237049102783 21.44315528869629 5.759441375732422 C 20.85880279541016 6.15747594833374 20.34782981872559 6.67630672454834 19.95133399963379 7.307036876678467 L 5.517715930938721 30.26756286621094 C 5.128815650939941 30.88620758056641 4.889712810516357 31.55753326416016 4.790180683135986 32.24153137207031 C 4.690699100494385 32.92520904541016 4.730654239654541 33.62159729003906 4.89986515045166 34.29080200195312 C 5.06901216506958 34.95975494384766 5.367337703704834 35.60161209106445 5.784725666046143 36.17655563354492 C 6.202018737792969 36.75137329101562 6.738381385803223 37.25938415527344 7.383790969848633 37.66082000732422 M 6.367802619934082 39.2701301574707 C 5.488807678222656 38.72348785400391 4.758460521697998 38.03277969360352 4.190279006958008 37.25162506103516 C 3.621918678283691 36.47021865844727 3.215709924697876 35.59814071655273 2.985341787338257 34.68908309936523 C 2.754857301712036 33.77956008911133 2.700359106063843 32.8328742980957 2.835659980773926 31.90284729003906 C 2.971046447753906 30.97223854064941 3.296483755111694 30.05821990966797 3.825857877731323 29.21480560302734 L 18.2445068359375 6.242672443389893 C 18.78432083129883 5.382625579833984 19.47928237915039 4.67520809173584 20.27392196655273 4.132509231567383 C 21.06902313232422 3.5894935131073 21.96380233764648 3.211467266082764 22.9025993347168 3.010506391525269 C 23.84178161621094 2.809463024139404 24.8248291015625 2.785670280456543 25.79592514038086 2.951132535934448 C 26.76720809936523 3.116626262664795 27.72629547119141 3.471407413482666 28.61726188659668 4.027335643768311 C 29.5081672668457 4.583222389221191 30.24638175964355 5.287448883056641 30.81838035583496 6.084790229797363 C 31.39019393920898 6.88187313079834 31.79578399658203 7.771839141845703 32.02179336547852 8.69952392578125 C 32.24768829345703 9.626738548278809 32.29415512084961 10.59148693084717 32.14796829223633 11.53876113891602 C 32.00187301635742 12.48543453216553 31.66338539123535 13.4145622253418 31.11934471130371 14.27132511138916 L 16.58783721923828 37.15592575073242 C 16.0543155670166 37.99612808227539 15.36804866790771 38.68506240844727 14.58397388458252 39.21158599853516 C 13.80034828186035 39.73780822753906 12.91891574859619 40.10189437866211 11.99442672729492 40.29269790649414 C 11.07030963897705 40.48342132568359 10.10299301147461 40.50104141235352 9.147064208984375 40.33434677124023 C 8.191320419311523 40.16768264770508 7.246732234954834 39.81672668457031 6.367802619934082 39.2701301574707 Z" stroke="none" fill="#111136"/>
      </g>
      <path id="Ligne_331" data-name="Ligne 331" d="M.593.816,12.73,8.9" transform="translate(10.506 17.422)" fill="none" stroke="#111136" stroke-width="2"/>
    </g>
    <g id="Groupe_8965" data-name="Groupe 8965" transform="translate(1232.404 453.247)">
      <g id="Rectangle_148183" data-name="Rectangle 148183" transform="translate(0 6.139) rotate(-24)" fill="#fff" stroke="#111136" stroke-width="2">
        <rect width="15.093" height="43.198" rx="7.547" stroke="none"/>
        <rect x="1" y="1" width="13.093" height="41.198" rx="6.547" fill="none"/>
      </g>
      <line id="Ligne_332" data-name="Ligne 332" x1="12.491" y2="6.246" transform="translate(9.954 20.789)" fill="none" stroke="#111136" stroke-width="2"/>
    </g>
    <g id="Groupe_8966" data-name="Groupe 8966" transform="translate(1202.359 489.849)">
      <g id="Rectangle_148184" data-name="Rectangle 148184" transform="translate(4.413 27.064) rotate(-107)" fill="#fff" stroke="#111136" stroke-width="2">
        <rect width="15.093" height="43.198" rx="7.547" stroke="none"/>
        <rect x="1" y="1" width="13.093" height="41.198" rx="6.547" fill="none"/>
      </g>
      <line id="Ligne_333" data-name="Ligne 333" x2="3.643" y2="14.052" transform="translate(20.449 6.506)" fill="none" stroke="#111136" stroke-width="2"/>
    </g>
    <g id="Groupe_8967" data-name="Groupe 8967" transform="translate(1201.816 470.828)">
      <g id="Ellipse_9423" data-name="Ellipse 9423" transform="translate(0.184 0.172)" fill="#fff" stroke="#111136" stroke-width="2">
        <ellipse cx="10.5" cy="10" rx="10.5" ry="10" stroke="none"/>
        <ellipse cx="10.5" cy="10" rx="9.5" ry="9" fill="none"/>
      </g>
      <line id="Ligne_334" data-name="Ligne 334" y1="18.737" transform="translate(10.693 0.339)" fill="none" stroke="#111136" stroke-width="2"/>
    </g>
    <g id="Groupe_8968" data-name="Groupe 8968" transform="translate(1263.763 459.402) rotate(-51)">
      <g id="Ellipse_9423-2" data-name="Ellipse 9423" transform="translate(0 0)" fill="#fff" stroke="#111136" stroke-width="2">
        <ellipse cx="9.889" cy="9.889" rx="9.889" ry="9.889" stroke="none"/>
        <ellipse cx="9.889" cy="9.889" rx="8.889" ry="8.889" fill="none"/>
      </g>
      <line id="Ligne_334-2" data-name="Ligne 334" y1="18.737" transform="translate(10.149 0.26)" fill="none" stroke="#111136" stroke-width="2"/>
    </g>
    <g id="Groupe_8969" data-name="Groupe 8969" transform="translate(1153.256 379.268)">
      <rect id="Rectangle_148187" data-name="Rectangle 148187" width="28.904" height="102.264" transform="translate(7.31 35.38)" fill="#f0f5fb"/>
      <rect id="Rectangle_148186" data-name="Rectangle 148186" width="43.828" height="29.555" rx="1" transform="translate(10.303 1.802)" fill="#f0f5fb"/>
      <path id="Rectangle_148185" data-name="Rectangle 148185" d="M9,0H43.828a0,0,0,0,1,0,0V130.483a1,1,0,0,1-1,1H3a3,3,0,0,1-3-3V9A9,9,0,0,1,9,0Z" fill="#111136"/>
      <line id="Ligne_335" data-name="Ligne 335" x2="0.414" y2="34.361" transform="translate(4.537 27.358)" fill="none" stroke="#fff" stroke-linecap="round" stroke-width="3"/>
      <line id="Ligne_336" data-name="Ligne 336" x2="0.059" y2="4.908" transform="translate(4.455 13.075)" fill="none" stroke="#fff" stroke-linecap="round" stroke-width="3"/>
    </g>
    <line id="Ligne_331-2" data-name="Ligne 331" y1="6.73" x2="35.333" transform="translate(1214.459 377.782) rotate(-7)" fill="none" stroke="#fff" stroke-linecap="round" stroke-width="3" opacity="0.36"/>
    <line id="Ligne_332-2" data-name="Ligne 332" x2="21.38" y2="2.441" transform="translate(1216.418 394.294) rotate(-7)" fill="none" stroke="#fff" stroke-linecap="round" stroke-width="3" opacity="0.36"/>
    <line id="Ligne_333-2" data-name="Ligne 333" x2="21.18" y2="16.367" transform="translate(1217.591 403.85) rotate(-7)" fill="none" stroke="#fff" stroke-linecap="round" stroke-width="3" opacity="0.36"/>
  </g>
</svg>
