<svg xmlns="http://www.w3.org/2000/svg" width="36.163" height="36.933" viewBox="0 0 36.163 36.933">
  <g id="Groupe_9363" data-name="Groupe 9363" transform="translate(-685.601 -476.402)">
    <g id="Tracé_159" data-name="Tracé 159" transform="translate(688.43 494.761) rotate(-45)" fill="none" stroke-linecap="round" stroke-linejoin="round">
      <path d="M13.7,0l7.172,22.268L0,13.7Z" stroke="none"/>
      <path d="M 13.70272254943848 -1.52587890625e-05 L -7.62939453125e-06 13.70272541046143 L 20.87463188171387 22.26788520812988 L 13.70272254943848 -1.52587890625e-05 M 13.70277214050293 -2.000059127807617 C 13.85908699035645 -2.000059127807617 14.01651000976562 -1.981723785400391 14.17211151123047 -1.944154739379883 C 14.84943199157715 -1.780624389648438 15.39281272888184 -1.276374816894531 15.60642242431641 -0.6131458282470703 L 22.7783317565918 21.65475463867188 C 23.01692199707031 22.39556503295898 22.80410194396973 23.20750427246094 22.23279190063477 23.73601531982422 C 21.6614818572998 24.26453399658203 20.83545303344727 24.41362571716309 20.11543273925781 24.11818504333496 L -0.7592086791992188 15.55302429199219 C -1.378267288208008 15.29901504516602 -1.829288482666016 14.75224494934082 -1.960927963256836 14.09617519378662 C -2.092567443847656 13.44010543823242 -1.887378692626953 12.76166534423828 -1.414216995239258 12.28851509094238 L 12.28851222991943 -1.414224624633789 C 12.66801357269287 -1.793733596801758 13.17867851257324 -2.000059127807617 13.70277214050293 -2.000059127807617 Z" stroke="none" fill="#312c77"/>
    </g>
    <g id="Groupe_23" data-name="Groupe 23" transform="translate(725.97 494.059) rotate(135)">
      <line id="Ligne_53" data-name="Ligne 53" x1="7.113" y2="7.113" transform="translate(0 15.029)" fill="none" stroke="#312c77" stroke-linecap="round" stroke-linejoin="round" stroke-width="2"/>
      <rect id="Rectangle_55" data-name="Rectangle 55" width="4.664" height="12.563" transform="translate(8.762 16.678) rotate(-135)" fill="#00a1a2" stroke="#312c77" stroke-linecap="round" stroke-linejoin="round" stroke-width="2"/>
      <rect id="Rectangle_56" data-name="Rectangle 56" width="2.825" height="4.664" transform="translate(16.982 7.157) rotate(-135)" fill="#00a1a2" stroke="#312c77" stroke-linecap="round" stroke-linejoin="round" stroke-width="2"/>
      <line id="Ligne_54" data-name="Ligne 54" x2="5.321" y2="5.321" transform="translate(13.422 3.571)" fill="none" stroke="#312c77" stroke-linecap="round" stroke-linejoin="round" stroke-width="2"/>
      <line id="Ligne_55" data-name="Ligne 55" x2="5.321" y2="5.321" transform="translate(16.415 0)" fill="none" stroke="#312c77" stroke-linecap="round" stroke-linejoin="round" stroke-width="2"/>
    </g>
  </g>
</svg>
