<svg xmlns="http://www.w3.org/2000/svg" width="21.128" height="29.142" viewBox="0 0 21.128 29.142"><defs><style>.a{fill:#111136;}</style></defs><g transform="translate(0 0)"><path class="a" d="M12.771,0c.959,0,1.287.777,1.287,1.736H21.78V5.209H.95V1.736h7.9C8.849.777,9.037,0,10,0Z" transform="translate(-0.95 0)"/><path class="a" d="M17.539,22.666H3.508A3.385,3.385,0,0,1,0,19.427V0H21.047V19.427A3.385,3.385,0,0,1,17.539,22.666ZM14.908,3.238a.846.846,0,0,0-.876.81V18.618a.88.88,0,0,0,1.754,0V4.048A.847.847,0,0,0,14.908,3.238Zm-8.769,0a.847.847,0,0,0-.878.81V18.618a.846.846,0,0,0,.878.809.845.845,0,0,0,.876-.809V4.048A.846.846,0,0,0,6.139,3.238Z" transform="translate(0.081 6.476)"/></g></svg>