<svg xmlns="http://www.w3.org/2000/svg" width="17.734" height="17.734" viewBox="0 0 17.734 17.734"><defs><style>.a{fill:#fff;}</style></defs><g transform="translate(-426 -426)"><path class="a" d="M431.025,515.681a.917.917,0,0,0-1.3-1.3l-3.459,3.459a.917.917,0,0,0,0,1.3l3.459,3.459a.917.917,0,0,0,1.3-1.3l-1.893-1.893h10.016a.917.917,0,1,0,0-1.835H429.132Zm0,0" transform="translate(0 -83.627)"/><path class="a" d="M556.09,426h-8.561A1.529,1.529,0,0,0,546,427.529v1.223a.917.917,0,0,0,1.835,0v-.917h7.95V441.9h-7.95v-.917a.917.917,0,1,0-1.835,0V442.2a1.529,1.529,0,0,0,1.529,1.529h8.561a1.529,1.529,0,0,0,1.529-1.529V427.529A1.529,1.529,0,0,0,556.09,426Zm0,0" transform="translate(-113.885)"/></g></svg>