<svg xmlns="http://www.w3.org/2000/svg" width="274.815" height="136.303" viewBox="0 0 274.815 136.303"><defs><style>.a{fill:#fff;}.b{fill:none;stroke:#f0f5fb;stroke-linecap:round;stroke-width:2px;}.c{fill:#f0f5fb;}.d{fill:#fde053;isolation:isolate;}.e{fill:#f8a609;}</style></defs><g transform="translate(-804.744 -1240.925)"><g transform="translate(903.632 1240.925)"><path class="a" d="M1215.405,1286.666a25.488,25.488,0,0,1-12.892,2.988q-8.546,0-13.473-4.729t-4.927-13.028a18.187,18.187,0,0,1,5.384-13.609q5.383-5.26,14.324-5.26a29.089,29.089,0,0,1,9.928,1.556v7.483a19.735,19.735,0,0,0-10.027-2.371,10.764,10.764,0,0,0-8.088,3.223,11.838,11.838,0,0,0-3.125,8.607q0,5.458,2.8,8.446a9.879,9.879,0,0,0,7.57,2.989,10.531,10.531,0,0,0,4.544-.815v-6.915h-7.089v-6.372h15.066Z" transform="translate(-1184.113 -1251.595)"/><path class="a" d="M1350.571,1319.44h-7.78v-3.853h-.124a8.825,8.825,0,0,1-7.73,4.47q-8.793,0-8.792-10.645V1294.15h7.78v14.572q0,5.359,4.248,5.358a4.2,4.2,0,0,0,3.359-1.469,5.925,5.925,0,0,0,1.259-3.989V1294.15h7.78Z" transform="translate(-1289.122 -1281.999)"/><path class="a" d="M1447.464,1256.034a4.556,4.556,0,0,1-3.235-1.173,3.778,3.778,0,0,1-1.26-2.877,3.642,3.642,0,0,1,1.26-2.865,5.281,5.281,0,0,1,6.483,0,3.661,3.661,0,0,1,1.247,2.865,3.767,3.767,0,0,1-1.247,2.915A4.637,4.637,0,0,1,1447.464,1256.034Zm3.853,29.291h-7.8v-25.291h7.8Z" transform="translate(-1375.495 -1247.884)"/><path class="a" d="M1520.672,1284.975h-7.8v-3.483h-.1a8.75,8.75,0,0,1-7.829,4.1,9.589,9.589,0,0,1-7.631-3.346q-2.891-3.347-2.89-9.348,0-6.273,3.187-10.052a10.394,10.394,0,0,1,8.348-3.779q4.891,0,6.816,3.507h.1v-15.041h7.8Zm-7.656-12.3v-1.9a5.987,5.987,0,0,0-1.433-4.1,5.062,5.062,0,0,0-7.78.408,9.463,9.463,0,0,0-1.457,5.594,8.182,8.182,0,0,0,1.408,5.137,5,5,0,0,0,7.767-.1A7.93,7.93,0,0,0,1513.016,1272.676Z" transform="translate(-1413.533 -1247.533)"/><path class="a" d="M1638.79,1307.267h-16.5q.4,5.508,6.94,5.508a13.544,13.544,0,0,0,7.334-1.976v5.632a19.272,19.272,0,0,1-9.113,1.877q-6.126,0-9.509-3.4t-3.383-9.472q0-6.3,3.655-9.978a12.177,12.177,0,0,1,8.99-3.68q5.532,0,8.557,3.285t3.026,8.916Zm-7.237-4.791q0-5.432-4.4-5.434a4.2,4.2,0,0,0-3.248,1.556,7.061,7.061,0,0,0-1.667,3.878Z" transform="translate(-1502.359 -1280.247)"/></g><g transform="translate(804.744 1290.295)"><path class="a" d="M855.276,1496.608H804.744v-8.137l32.156-43.094H807.063V1433.87h48.126v7.919l-31.457,43.357h31.544Z" transform="translate(-804.744 -1430.283)"/><path class="a" d="M1064.933,1468.838h-29.226q.7,9.757,12.294,9.757a24,24,0,0,0,12.994-3.5v9.975q-6.213,3.326-16.144,3.324-10.85,0-16.844-6.015t-5.994-16.778q0-11.156,6.475-17.675a21.569,21.569,0,0,1,15.925-6.519q9.8,0,15.16,5.819t5.359,15.794Zm-5.776-47.557-13.694,14.132h-9.975l11.375-14.132Zm-7.044,39.069q0-9.624-7.787-9.625a7.435,7.435,0,0,0-5.753,2.756,12.508,12.508,0,0,0-2.953,6.868Z" transform="translate(-965.379 -1420.975)"/><path class="a" d="M1235.659,1539.177h-.175v25.813h-13.825v-65.407h13.825v6.738h.175a16.252,16.252,0,0,1,14.394-7.832q8.705,0,13.453,5.972t4.747,16.254q0,11.2-5.535,17.981a18.047,18.047,0,0,1-14.722,6.782Q1239.9,1545.478,1235.659,1539.177Zm-.394-18.375v3.588a11.4,11.4,0,0,0,2.45,7.569,7.973,7.973,0,0,0,6.432,2.932,8.474,8.474,0,0,0,7.327-3.654q2.6-3.651,2.6-10.347,0-11.812-9.188-11.812a8.627,8.627,0,0,0-6.934,3.215A12.824,12.824,0,0,0,1235.266,1520.8Z" transform="translate(-1112.985 -1478.057)"/><path class="a" d="M1481.263,1486.432h-13.781v-25.463q0-9.844-7.176-9.844a7.346,7.346,0,0,0-5.949,2.756,10.625,10.625,0,0,0-2.275,7v25.55h-13.825v-66.326h13.825v28.176h.175q5.074-7.744,13.781-7.744,15.224,0,15.224,18.375Z" transform="translate(-1273.123 -1420.106)"/><path class="a" d="M1776.138,1512.921a12,12,0,0,0-5.819-1.356,8.382,8.382,0,0,0-7.044,3.3q-2.539,3.3-2.537,8.99v21.394h-13.825v-44.8h13.825v8.312h.175q3.281-9.1,11.812-9.1a8.9,8.9,0,0,1,3.413.525Z" transform="translate(-1501.324 -1478.927)"/></g><g transform="translate(1019.532 1269.565)"><g transform="matrix(0.999, 0.052, -0.052, 0.999, 21.662, 1.492)"><line class="b" y1="21.956" x2="31" transform="translate(0 0)"/><line class="b" x2="27.771" transform="translate(0 28.289)"/><line class="b" x2="29.063" y2="7.103" transform="translate(0 31.752)"/><line class="b" y1="9.686" x2="27.771" transform="translate(0 16.374)"/></g><rect class="c" width="17.73" height="18.296" transform="translate(6.255 20.704)"/><rect class="d" width="17.429" height="58.513" rx="1" transform="translate(1.589 29.493)"/><path class="e" d="M.9,0H19.8a.92.92,0,0,1,.91.929V58.44a.92.92,0,0,1-.91.929c-8.665,0-12.1-7.845-14.861-15.975-.868-4.716-5.333-4.466-4.948-4.239V.929A.92.92,0,0,1,.9,0Z" transform="translate(0.03 20.704)"/></g></g></svg>