<svg xmlns="http://www.w3.org/2000/svg" xmlns:xlink="http://www.w3.org/1999/xlink" width="283.533" height="105.815" viewBox="0 0 283.533 105.815">
  <defs>
    <linearGradient id="linear-gradient" x1="12.533" y1="0.5" x2="-0.114" y2="0.5" gradientUnits="objectBoundingBox">
      <stop offset="0.167" stop-color="#393384"/>
      <stop offset="0.226" stop-color="#32418f"/>
      <stop offset="0.337" stop-color="#2065af"/>
      <stop offset="0.487" stop-color="#03a1e1"/>
      <stop offset="0.505" stop-color="#00a9e8"/>
      <stop offset="0.596" stop-color="#00a6cd"/>
      <stop offset="0.759" stop-color="#00a1a2"/>
    </linearGradient>
    <linearGradient id="linear-gradient-2" x1="16.642" y1="0.5" x2="-1.822" y2="0.5" xlink:href="#linear-gradient"/>
    <linearGradient id="linear-gradient-3" x1="149.603" y1="0.5" x2="-31.062" y2="0.5" xlink:href="#linear-gradient"/>
    <linearGradient id="linear-gradient-4" x1="89.962" y1="0.5" x2="-18.437" y2="0.5" xlink:href="#linear-gradient"/>
    <linearGradient id="linear-gradient-5" x1="13.293" y1="0.5" x2="-3.131" y2="0.5" xlink:href="#linear-gradient"/>
    <linearGradient id="linear-gradient-6" x1="12.235" y1="0.5" x2="-4.405" y2="0.5" xlink:href="#linear-gradient"/>
    <linearGradient id="linear-gradient-7" x1="3.783" y1="0.5" x2="-0.341" y2="0.5" xlink:href="#linear-gradient"/>
    <linearGradient id="linear-gradient-8" x1="4.843" y1="0.5" x2="-2.643" y2="0.5" xlink:href="#linear-gradient"/>
    <linearGradient id="linear-gradient-9" x1="6.302" y1="0.5" x2="-6.124" y2="0.5" xlink:href="#linear-gradient"/>
    <linearGradient id="linear-gradient-12" x1="1.767" y1="0.5" x2="-2.44" y2="0.5" xlink:href="#linear-gradient"/>
    <linearGradient id="linear-gradient-13" x1="0.741" y1="0.5" x2="-3.086" y2="0.5" xlink:href="#linear-gradient"/>
    <linearGradient id="linear-gradient-14" x1="0.708" y1="0.5" x2="-6.245" y2="0.5" xlink:href="#linear-gradient"/>
    <radialGradient id="radial-gradient" cx="0.531" cy="0.11" r="0.66" gradientTransform="translate(-1.28) scale(3.561 1)" gradientUnits="objectBoundingBox">
      <stop offset="0.418" stop-color="#ffe600"/>
      <stop offset="0.471" stop-color="#ffe70e" stop-opacity="0.945"/>
      <stop offset="0.573" stop-color="#ffeb33" stop-opacity="0.8"/>
      <stop offset="0.711" stop-color="#fff06f" stop-opacity="0.565"/>
      <stop offset="0.88" stop-color="#fff8c0" stop-opacity="0.243"/>
      <stop offset="1" stop-color="#fff" stop-opacity="0"/>
    </radialGradient>
  </defs>
  <g id="Groupe_9056" data-name="Groupe 9056" transform="translate(-215.631 -71.864)">
    <g id="Groupe_9055" data-name="Groupe 9055">
      <path id="Tracé_84121" data-name="Tracé 84121" d="M236.808,86.864h-1.483v8.47a17.549,17.549,0,0,1-6.564,1.306,11.648,11.648,0,0,1,0-23.294,17.162,17.162,0,0,1,7.87,2.083V73.84a16.23,16.23,0,0,0-7.87-1.976,13.129,13.129,0,1,0,0,26.258,16.91,16.91,0,0,0,8.047-1.941Z" fill="url(#linear-gradient)"/>
      <path id="Tracé_84122" data-name="Tracé 84122" d="M245.421,98.122a8.019,8.019,0,0,0,7.3-4.976h.071a7.413,7.413,0,0,0-.141,1.447V97.7h1.482V80.052h-1.482v8.612c0,4.129-2.824,8.011-7.235,8.011-3.953,0-4.342-2.894-4.342-5.964V80.052h-1.446V91.24C239.633,95.722,241.079,98.122,245.421,98.122Z" fill="url(#linear-gradient-2)"/>
      <rect id="Rectangle_148267" data-name="Rectangle 148267" width="1.482" height="17.647" transform="translate(259.257 80.052)" fill="url(#linear-gradient-3)"/>
      <circle id="Ellipse_9426" data-name="Ellipse 9426" cx="1.235" cy="1.235" r="1.235" transform="translate(258.763 73.629)" fill="url(#linear-gradient-4)"/>
      <path id="Tracé_84123" data-name="Tracé 84123" d="M272.422,98.122a7.633,7.633,0,0,0,6.706-4.305h.07a8.984,8.984,0,0,0-.106,1.411V97.7h1.483V72.288h-1.483V82.523a8.968,8.968,0,0,0,.106,1.411h-.07a7.631,7.631,0,0,0-6.706-4.305c-4.729,0-8.153,3.953-8.153,9.247C264.269,94.064,267.693,98.122,272.422,98.122Zm0-17.046c3.141,0,6.706,2.329,6.706,7.8s-3.565,7.8-6.706,7.8c-4.024,0-6.6-3.423-6.6-7.8C265.822,84.393,268.4,81.076,272.422,81.076Z" fill="url(#linear-gradient-5)"/>
      <path id="Tracé_84124" data-name="Tracé 84124" d="M292.964,98.122a13.012,13.012,0,0,0,6.6-1.764V94.734a12.246,12.246,0,0,1-6.635,1.941c-4.27,0-7.27-3.106-7.27-7.623v-.318H300.2v-.847c0-4.341-2.789-8.258-7.73-8.258-4.729,0-8.365,3.917-8.365,9.247C284.105,94.381,287.847,98.122,292.964,98.122Zm-.529-17.046c4.023,0,6.141,3.176,6.141,6.423H285.765C286.188,84.252,288.553,81.076,292.435,81.076Z" fill="url(#linear-gradient-6)"/>
      <path id="Tracé_84125" data-name="Tracé 84125" d="M267.105,101.809c-12.644,0-22.272,3.018-26.3,4.886V125.95c4.742-3.018,13.794-6.179,22.847-6.179,9.484,0,15.375,3.161,15.375,11.783v1.724c-25.865-3.592-43.682,5.029-43.682,22.56,0,14.656,10.489,21.841,22.847,21.841a24.56,24.56,0,0,0,22.272-13.651h.287a21.523,21.523,0,0,0-.287,5.029l.431,6.61h19.4V130.4C300.3,112.442,289.234,101.809,267.105,101.809ZM263.8,161.3c-5.03,0-8.191-3.018-8.191-7.616,0-6.753,6.754-11.782,22.847-9.2C278.457,153.682,272.135,161.3,263.8,161.3Z" fill="url(#linear-gradient-7)"/>
      <path id="Tracé_84126" data-name="Tracé 84126" d="M329.178,150.377V72.708L307.767,90.359v64.76c0,16.381,9.915,22.56,22.128,22.56,6.754,0,11.784-1.294,13.652-2.155V157.849a20.217,20.217,0,0,1-7.185,1.437C332.051,159.286,329.178,156.987,329.178,150.377Z" fill="url(#linear-gradient-8)"/>
      <path id="Tracé_84127" data-name="Tracé 84127" d="M362.457,103.821h-5.2V86.944l-2.567-2.889v19.766h-5.2v2.449H345.2v10.979h9.513v1.932H345.2v3.308h9.513v1.932H345.2v3.308h9.513v1.932H345.2v3.308h9.513V134.9H345.2v3.308h9.513v1.932H345.2v3.308h9.513v1.932H345.2v3.308h9.513v1.932H345.2V160.8H366.75V106.27h-4.293Z" fill="url(#linear-gradient-9)"/>
      <rect id="Rectangle_148268" data-name="Rectangle 148268" width="21.554" height="2.051" transform="translate(345.196 162.107)" fill="url(#linear-gradient-9)"/>
      <path id="Tracé_84128" data-name="Tracé 84128" d="M362.457,165.494H349.489v7.166H345.2v2.965H366.75v-2.965h-4.293Z" fill="url(#linear-gradient-9)"/>
      <path id="Tracé_84129" data-name="Tracé 84129" d="M432.2,103.821H371.422v16.956h29.888l-32.762,54.89h63.225V158.712H399.586Z" fill="url(#linear-gradient-12)"/>
      <path id="Tracé_84130" data-name="Tracé 84130" d="M499.164,135.433c0-17.818-11.352-33.624-33.481-33.624-20.547,0-36.5,16.094-36.5,37.935,0,21.985,15.519,37.935,40.234,37.935,12.788,0,22.416-2.874,26.87-5.173V154.257c-4.024,2.3-14.656,5.316-24.858,5.316-11.64,0-19.112-5.6-19.974-15.375h47.131A81.1,81.1,0,0,0,499.164,135.433Zm-47.706-2.3c.575-7.759,5.461-14.369,14.082-14.369,8.766,0,13.363,6.61,13.076,14.369Z" fill="url(#linear-gradient-13)"/>
      <path id="Tracé_84131" data-name="Tracé 84131" d="M487.981,73.416h-18.7L460.93,91.064h8.226Z" fill="url(#linear-gradient-14)"/>
    </g>
    <circle id="Ellipse_9427" data-name="Ellipse 9427" cx="4.542" cy="4.542" r="4.542" transform="translate(351.431 73.288)" fill="#ffe600"/>
    <path id="Tracé_84132" data-name="Tracé 84132" d="M362.457,103.821h-5.2V86.944l-2.567-2.889v19.766h-5.2v2.449H345.2v10.979h9.513v1.932H345.2v3.308h9.513v1.932H345.2v3.308h9.513v1.932H345.2v3.308h9.513V134.9H345.2v3.308h9.513v1.932H345.2v3.308h9.513v1.932H345.2v3.308h9.513v1.932H345.2V160.8H366.75V106.27h-4.293Z" fill="url(#radial-gradient)"/>
  </g>
</svg>
