<svg xmlns="http://www.w3.org/2000/svg" width="25.872" height="25.872" viewBox="0 0 25.872 25.872"><defs><style>.a{fill:#1b57ed;}</style></defs><path class="a" d="M1050.856,775.713a.857.857,0,0,1-.857-.857v-4.392a.751.751,0,0,0-.75-.75h-4.392a.857.857,0,0,1,0-1.714h4.392a2.467,2.467,0,0,1,2.464,2.464v4.392a.857.857,0,0,1-.857.857Zm0,0" transform="translate(-1025.841 -768)"/><path class="a" d="M768.857,775.713a.857.857,0,0,1-.857-.857v-4.392A2.467,2.467,0,0,1,770.464,768h4.392a.857.857,0,1,1,0,1.714h-4.392a.751.751,0,0,0-.75.75v4.392a.857.857,0,0,1-.857.857Zm0,0" transform="translate(-768 -768)"/><path class="a" d="M774.856,1051.713h-4.392a2.467,2.467,0,0,1-2.464-2.464v-4.392a.857.857,0,0,1,1.714,0v4.392a.751.751,0,0,0,.75.75h4.392a.857.857,0,1,1,0,1.714Zm0,0" transform="translate(-768 -1025.841)"/><path class="a" d="M1049.249,1051.713h-4.392a.857.857,0,0,1,0-1.714h4.392a.751.751,0,0,0,.75-.75v-4.392a.857.857,0,0,1,1.714,0v4.392a2.467,2.467,0,0,1-2.464,2.464Zm0,0" transform="translate(-1025.841 -1025.841)"/><path class="a" d="M822.963,825.426h-4.5A2.467,2.467,0,0,1,816,822.963v-4.5A2.467,2.467,0,0,1,818.464,816h4.5a2.467,2.467,0,0,1,2.464,2.464v4.5a2.467,2.467,0,0,1-2.464,2.464Zm-4.5-7.713a.751.751,0,0,0-.75.75v4.5a.751.751,0,0,0,.75.75h4.5a.751.751,0,0,0,.75-.75v-4.5a.751.751,0,0,0-.75-.75Zm0,0" transform="translate(-812.572 -812.572)"/><path class="a" d="M822.963,981.426h-4.5A2.467,2.467,0,0,1,816,978.963v-4.5A2.467,2.467,0,0,1,818.464,972h4.5a2.467,2.467,0,0,1,2.464,2.464v4.5a2.467,2.467,0,0,1-2.464,2.464Zm-4.5-7.713a.751.751,0,0,0-.75.75v4.5a.751.751,0,0,0,.75.75h4.5a.751.751,0,0,0,.75-.75v-4.5a.751.751,0,0,0-.75-.75Zm0,0" transform="translate(-812.572 -958.983)"/><path class="a" d="M978.963,825.426h-4.5A2.467,2.467,0,0,1,972,822.963v-4.5A2.467,2.467,0,0,1,974.464,816h4.5a2.467,2.467,0,0,1,2.464,2.464v4.5a2.467,2.467,0,0,1-2.464,2.464Zm-4.5-7.713a.751.751,0,0,0-.75.75v4.5a.751.751,0,0,0,.75.75h4.5a.751.751,0,0,0,.75-.75v-4.5a.751.751,0,0,0-.75-.75Zm0,0" transform="translate(-958.983 -812.572)"/><path class="a" d="M980.034,976.285H978v-2.892A1.394,1.394,0,0,0,976.606,972h-3.214A1.394,1.394,0,0,0,972,973.392v3.214A1.394,1.394,0,0,0,973.392,978h2.892v2.035a1.394,1.394,0,0,0,1.393,1.393h2.357a1.394,1.394,0,0,0,1.393-1.393v-2.357a1.394,1.394,0,0,0-1.393-1.393Zm-6.32-2.571h2.571v2.571h-2.571Zm6,6H978V978h1.714Zm0,0" transform="translate(-958.983 -958.983)"/></svg>