<svg xmlns="http://www.w3.org/2000/svg" xmlns:xlink="http://www.w3.org/1999/xlink" width="347.7" height="107.333" viewBox="0 0 1747.7 207.333">
  <defs>
    <clipPath id="clip-path">
      <path id="Tracé_135" data-name="Tracé 135" d="M708,33H878.952V166.849H708Zm0,0" transform="translate(-708 -33)" fill="#454492" />
    </clipPath>
  </defs>
  <g id="surface1" transform="translate(0 -0.004)">
    <path id="Tracé_133" data-name="Tracé 133" d="M857.169,72.322C823.922,23.231,786.7,66.345,749.28,61.013c-37.1-5.289-38.4-56.442,7.282-60.774,1.1-.122,2.218-.191,3.341-.235,45.646.426,84.131,30.718,97.266,72.318" transform="translate(885.725)" fill="#454492" />
    <g id="Groupe_161" data-name="Groupe 161" transform="translate(1576.746 73.488)" clip-path="url(#clip-path)">
      <path id="Tracé_134" data-name="Tracé 134" d="M873.952,34.246a104.817,104.817,0,0,1,3.871,28.421c0,57.225-46.175,103.671-103.132,103.671a102.344,102.344,0,0,1-65.785-23.88,63.307,63.307,0,0,0,22.462,4.019c93.431.5,53.536-124.358,142.584-112.231" transform="translate(-706.888 -32.489)" fill="#454492" />
    </g>
    <path id="Tracé_136" data-name="Tracé 136" d="M757.59,124.627c-12.926,7.943-33.439,5.576-47.7-14.041A93.3,93.3,0,0,1,701.9,97.424a103.676,103.676,0,0,1-9.761-44.089,99.9,99.9,0,0,1,.739-12.371c22.486,30.483,48.385,29.543,64.836,39.452a26.07,26.07,0,0,1-.123,44.21" transform="translate(849.282 50.261)" fill="#454492" />
    <path id="Tracé_137" data-name="Tracé 137" d="M617.657,20.726h-17.52V141.177h17.52Zm-100.043,71.4h50.752V75.993H517.614V36.881h50.752V20.726l-56.616.026a11.638,11.638,0,0,0-11.632,11.692V141.177h17.5Zm-46.768-10.9c0-34.5-26.934-61.557-60.9-61.557-34.154,0-61.094,27.229-61.094,61.557a61,61,0,1,0,121.991,0m-17.7.165c0,24.776-19.088,44.489-43.194,44.489-24.306,0-43.41-19.713-43.41-44.489,0-25.281,18.912-45.359,42.688-45.359,25.177,0,43.915,19.373,43.915,45.359M319.859,130.034l.06-109.308H302.408l-.1,92.353c-3.461-5.872-35.406-59.338-52.761-87.637a11.484,11.484,0,0,0-10.336-5.777A12.166,12.166,0,0,0,227.071,31.87L227,141.177h17.511l.087-92.37c3.463,5.872,35.4,59.356,52.779,87.655a11.456,11.456,0,0,0,10.336,5.8,12.2,12.2,0,0,0,12.144-12.231m-135.78,11.144h18.277l-43-113.962a11.89,11.89,0,0,0-22.14,0L94.206,141.177h18.277l12.4-33.928,46.829-.026ZM165.949,91.53,130.656,91.5,148.29,42.874ZM21.8,53.375C20.461,41.944,30,34.34,40.965,34.34c9.77,0,18.573,6.977,19.469,17.434h17.19C76.546,32.427,58.947,19.047,41.818,19.047c-21.74,0-37.172,14.78-37.172,35.05A28.283,28.283,0,0,0,18.7,78.62c4.454,2.6,11.422,5.011,18.086,7.212,3.349,1.087,6.6,2.131,9.448,3.132a46.947,46.947,0,0,1,6.89,2.862c6.264,3.453,9.665,8.769,9.665,15.746,0,13.032-11.361,20.009-22.375,20.009-11.892,0-21.331-6.672-23.523-21.74H0c.548,22.044,18.721,37.042,40.417,37.042,21.462,0,39.669-15.189,39.669-37.938A30.914,30.914,0,0,0,69.926,81.926C66.185,78.385,57.372,74.88,48.8,71.852c-4.271-1.514-8.456-2.923-11.892-4.158a40.8,40.8,0,0,1-7.429-3.175c-4.689-3.21-7.107-6.281-7.682-11.144" transform="translate(0 23.367)" fill="#454492" />
    <path id="Tracé_138" data-name="Tracé 138" d="M426.679,51.913c-9.3-19.4-31.586-32.866-55.64-32.866-34.312,0-62.21,25.654-62.21,61.252,0,35.111,27.422,61.731,62.052,61.731,23.889,0,47.621-12.988,57.887-35.276a58.718,58.718,0,0,0,5.289-22.932h-74.4V94.732h59.008c-1.931,9.3-7.7,18.277-16.041,24.854a51.468,51.468,0,0,1-31.744,10.744c-25.976,0-48.741-19.887-48.741-50.03,0-29.665,22.6-49.552,48.576-49.552A47.931,47.931,0,0,1,398.3,39.09,50.613,50.613,0,0,1,411.61,51.913Zm30.657,87.872h65.74v-11.7h-52.6V85.745h52.275v-11.7H470.48V32.835h52.6V21.126h-65.74ZM563.668,21.126H550.2v118.66h12.832l-.323-99.895L633.1,139.786h12.83V21.126H633.1l.165,99.095ZM740.24,31.235V21.126H665.364V32.835h59.8l-58.2,98.451v8.5h75.519v-11.7H683ZM790.3,139.786h13.309V98.1L841.77,21.126H827.337L797.029,85.267,766.563,21.126H752.132L790.3,98.1Zm83.888,0-.323-105.506,46.175,105.506h8.51l46.02-105.506-.323,105.506h12.5V21.126h-18.6l-43.775,99.582L880.438,21.126h-18.6v118.66Zm142.417,0h65.74v-11.7h-52.6V85.745h52.275v-11.7h-52.275V32.835h52.6V21.126H1016.6v118.66" transform="translate(378.945 23.367)" fill="#454492" />
  </g>
</svg>