<svg xmlns="http://www.w3.org/2000/svg" width="28.208" height="16.638" viewBox="0 0 28.208 16.638"><defs><style>.a{fill:#1b57ed;}</style></defs><path class="a" d="M300.638,633.268a2.687,2.687,0,0,0,2.685-2.684v-4.12l-.027-.027.027-.027v-1.252a2.685,2.685,0,0,0-2.685-2.685h-.044a2.657,2.657,0,0,0-.83.145,2.69,2.69,0,0,0-1.81,2.539v5.425a2.683,2.683,0,0,0,2.684,2.684Zm-1.888-8.109a1.89,1.89,0,0,1,1.057-1.7,1.86,1.86,0,0,1,.773-.192h.057a1.888,1.888,0,0,1,1.889,1.889v2.314h-3.776Zm0,5.425v-2.315h3.776v2.315a1.888,1.888,0,1,1-3.776,0Z" transform="translate(-293.527 -619.088)"/><path class="a" d="M407.538,627.388a5.445,5.445,0,1,0,4.317-6.378A5.451,5.451,0,0,0,407.538,627.388Zm9.669-1.489a4.347,4.347,0,0,1-8.506,1.638Zm-.139-.72-8.506,1.639a4.347,4.347,0,0,1,8.506-1.639Z" transform="translate(-393.508 -617.661)"/><path class="a" d="M271.222,583.47H250.906a3.95,3.95,0,0,0-3.946,3.946v8.746a3.95,3.95,0,0,0,3.946,3.946h20.316a3.95,3.95,0,0,0,3.946-3.946v-8.746A3.95,3.95,0,0,0,271.222,583.47Zm-22.873,12.692v-8.746a2.559,2.559,0,0,1,2.557-2.557h8.416v13.86h-8.416A2.56,2.56,0,0,1,248.349,596.162Zm25.43,0a2.56,2.56,0,0,1-2.557,2.557H260.19v-13.86h11.032a2.559,2.559,0,0,1,2.557,2.557Z" transform="translate(-246.96 -583.47)"/></svg>