<svg xmlns="http://www.w3.org/2000/svg" width="36.479" height="15.105" viewBox="0 0 36.479 15.105"><defs><style>.a{fill:rgba(231,26,26,0.65);}.b{fill:#111136;}</style></defs><path class="a" d="M572.234,676.626a.65.65,0,0,0-.889-.238l-1.277.737V675.65a.65.65,0,1,0-1.3,0v1.475l-1.277-.737a.65.65,0,1,0-.65,1.126l1.277.738-1.277.738a.65.65,0,0,0,.65,1.126l1.277-.737v1.475a.65.65,0,1,0,1.3,0v-1.475l1.277.737a.65.65,0,1,0,.65-1.126l-1.278-.738,1.278-.738a.65.65,0,0,0,.238-.888Zm0,0" transform="translate(-551.562 -670.699)"/><path class="a" d="M469.485,676.626a.65.65,0,0,0-.889-.238l-1.277.737V675.65a.65.65,0,0,0-1.3,0v1.475l-1.277-.737a.65.65,0,1,0-.65,1.126l1.277.738-1.277.738a.65.65,0,0,0,.65,1.126l1.277-.737v1.475a.65.65,0,0,0,1.3,0v-1.475l1.277.737a.65.65,0,1,0,.65-1.126l-1.277-.738,1.277-.738a.65.65,0,0,0,.238-.888Zm0,0" transform="translate(-457.723 -670.699)"/><path class="a" d="M669.35,679.878a.651.651,0,0,0,.889.238l1.277-.737v1.475a.65.65,0,0,0,1.3,0v-1.475l1.277.737a.65.65,0,0,0,.65-1.126l-1.277-.738,1.277-.738a.65.65,0,0,0-.65-1.126l-1.277.737V675.65a.65.65,0,0,0-1.3,0v1.475l-1.277-.737a.65.65,0,1,0-.65,1.126l1.277.738-1.277.738a.65.65,0,0,0-.238.888Zm0,0" transform="translate(-645.4 -670.699)"/><path class="b" d="M440.917,633H429.451a.712.712,0,1,0,0,1.425h11.466a2.14,2.14,0,0,1,2.138,2.137v7.98a2.14,2.14,0,0,1-2.138,2.137H411.563a2.14,2.14,0,0,1-2.137-2.137v-7.98a2.14,2.14,0,0,1,2.137-2.137h11.475a.712.712,0,1,0,0-1.425H411.563A3.566,3.566,0,0,0,408,636.566v7.98a3.566,3.566,0,0,0,3.563,3.563h29.354a3.566,3.566,0,0,0,3.563-3.562v-7.98A3.566,3.566,0,0,0,440.917,633Zm0,0" transform="translate(-408 -633.004)"/><path class="b" d="M440.917,633H429.451a.712.712,0,1,0,0,1.425h11.466a2.14,2.14,0,0,1,2.138,2.137v7.98a2.14,2.14,0,0,1-2.138,2.137H411.563a2.14,2.14,0,0,1-2.137-2.137v-7.98a2.14,2.14,0,0,1,2.137-2.137h11.475a.712.712,0,1,0,0-1.425H411.563A3.566,3.566,0,0,0,408,636.566v7.98a3.566,3.566,0,0,0,3.563,3.563h29.354a3.566,3.566,0,0,0,3.563-3.562v-7.98A3.566,3.566,0,0,0,440.917,633Zm0,0" transform="translate(-408 -633.004)"/></svg>