<svg xmlns="http://www.w3.org/2000/svg" width="150" height="75" viewBox="0 0 150 75"><defs><style>.a{fill:#1b57ed;}.b{fill:none;stroke:#c2d0df;stroke-linecap:round;}.c{fill:#c2d0df;}.d{fill:#fde053;isolation:isolate;}.e{fill:#f8a609;}</style></defs><g transform="translate(-804.744 -1240.925)"><g transform="translate(857.335 1240.925)"><path class="a" d="M1201.439,1271.653a14.111,14.111,0,0,1-7.138,1.655,10.324,10.324,0,0,1-7.46-2.618,9.527,9.527,0,0,1-2.728-7.214,10.07,10.07,0,0,1,2.981-7.535,10.861,10.861,0,0,1,7.931-2.913,16.109,16.109,0,0,1,5.5.862v4.143a10.927,10.927,0,0,0-5.552-1.313,5.96,5.96,0,0,0-4.479,1.785,7.616,7.616,0,0,0-.178,9.442,5.471,5.471,0,0,0,4.191,1.655,5.832,5.832,0,0,0,2.516-.451v-3.829H1193.1v-3.528h8.342Z" transform="translate(-1184.113 -1252.235)"/><path class="a" d="M1339.669,1308.153h-4.308v-2.133h-.068a4.886,4.886,0,0,1-4.28,2.475q-4.869,0-4.868-5.894v-8.451h4.308v8.068q0,2.967,2.352,2.967a2.328,2.328,0,0,0,1.86-.813,3.281,3.281,0,0,0,.7-2.209v-8.013h4.308Z" transform="translate(-1305.645 -1287.422)"/><path class="a" d="M1445.458,1252.451a2.522,2.522,0,0,1-1.791-.65,2.092,2.092,0,0,1-.7-1.593,2.017,2.017,0,0,1,.7-1.586,2.925,2.925,0,0,1,3.59,0,2.028,2.028,0,0,1,.69,1.586,2.086,2.086,0,0,1-.69,1.614A2.567,2.567,0,0,1,1445.458,1252.451Zm2.133,16.218h-4.321v-14h4.321Z" transform="translate(-1405.609 -1247.939)"/><path class="a" d="M1508.955,1268.265h-4.322v-1.928h-.055a4.845,4.845,0,0,1-4.335,2.27,5.309,5.309,0,0,1-4.225-1.853,7.67,7.67,0,0,1-1.6-5.176,8.349,8.349,0,0,1,1.764-5.566,5.755,5.755,0,0,1,4.622-2.092,3.931,3.931,0,0,1,3.774,1.942h.055v-8.328h4.322Zm-4.239-6.81V1260.4a3.315,3.315,0,0,0-.793-2.27,2.8,2.8,0,0,0-4.308.226,5.239,5.239,0,0,0-.807,3.1,4.53,4.53,0,0,0,.78,2.844,2.767,2.767,0,0,0,4.3-.054A4.39,4.39,0,0,0,1504.715,1261.454Z" transform="translate(-1449.632 -1247.533)"/><path class="a" d="M1627.977,1300.355h-9.135q.219,3.05,3.843,3.05a7.5,7.5,0,0,0,4.061-1.094v3.118a10.67,10.67,0,0,1-5.046,1.039,6.517,6.517,0,0,1-7.138-7.125,7.494,7.494,0,0,1,2.024-5.525,6.743,6.743,0,0,1,4.978-2.037,6.119,6.119,0,0,1,4.738,1.819,7,7,0,0,1,1.676,4.937Zm-4.007-2.653q0-3.008-2.434-3.009a2.324,2.324,0,0,0-1.8.861,3.91,3.91,0,0,0-.923,2.147Z" transform="translate(-1552.436 -1285.395)"/></g><g transform="translate(804.744 1267.791)"><path class="a" d="M832.723,1468.607H804.744V1464.1l17.8-23.861H806.028v-6.371h26.647v4.384l-17.417,24.007h17.466Z" transform="translate(-804.744 -1431.884)"/><path class="a" d="M1045.777,1447.613H1029.6q.388,5.4,6.807,5.4a13.288,13.288,0,0,0,7.195-1.938v5.523a18.9,18.9,0,0,1-8.939,1.841q-6.008,0-9.326-3.331t-3.319-9.29q0-6.177,3.585-9.787a11.943,11.943,0,0,1,8.817-3.609q5.427,0,8.394,3.222t2.967,8.745Zm-3.2-26.332-7.582,7.825h-5.523l6.3-7.825Zm-3.9,21.632q0-5.329-4.312-5.329a4.117,4.117,0,0,0-3.185,1.526,6.925,6.925,0,0,0-1.635,3.8Z" transform="translate(-991.184 -1421.111)"/><path class="a" d="M1229.411,1521.017h-.1v14.293h-7.655v-36.216h7.655v3.731h.1a9.741,9.741,0,0,1,15.419-1.029q2.628,3.306,2.629,9,0,6.2-3.065,9.956a9.992,9.992,0,0,1-8.151,3.755A7.724,7.724,0,0,1,1229.411,1521.017Zm-.218-10.174v1.987a6.313,6.313,0,0,0,1.357,4.191,4.414,4.414,0,0,0,3.561,1.623,4.692,4.692,0,0,0,4.057-2.023,9.766,9.766,0,0,0,1.442-5.729q0-6.541-5.087-6.54a4.777,4.777,0,0,0-3.839,1.78A7.1,7.1,0,0,0,1229.193,1510.843Z" transform="translate(-1162.517 -1487.176)"/><path class="a" d="M1462.069,1456.83h-7.63v-14.1q0-5.451-3.973-5.45a4.067,4.067,0,0,0-3.294,1.526,5.883,5.883,0,0,0-1.26,3.876v14.147h-7.655v-36.724h7.655v15.6h.1a8.7,8.7,0,0,1,7.631-4.288q8.43,0,8.43,10.174Z" transform="translate(-1348.364 -1420.106)"/><path class="a" d="M1763.095,1507a6.642,6.642,0,0,0-3.222-.751,4.64,4.64,0,0,0-3.9,1.829,7.976,7.976,0,0,0-1.4,4.978v11.846h-7.655V1500.1h7.655v4.6h.1q1.817-5.039,6.54-5.039a4.929,4.929,0,0,1,1.89.291Z" transform="translate(-1613.095 -1488.182)"/></g><g transform="translate(921.508 1256.313)"><g transform="matrix(0.996, -0.087, 0.087, 0.996, 10.53, 1.496)"><line class="b" y1="12.157" x2="17.164" transform="translate(0)"/><line class="b" x2="15.377" transform="translate(0 15.663)"/><line class="b" x2="16.092" y2="3.933" transform="translate(0 17.581)"/><line class="b" y1="5.363" x2="15.377" transform="translate(0 9.066)"/></g><rect class="c" width="9.817" height="10.13" transform="translate(3.463 11.464)"/><rect class="d" width="9.65" height="32.398" rx="1" transform="translate(0.88 16.33)"/><path class="e" d="M.487,0H10.951a.509.509,0,0,1,.5.514V32.358a.509.509,0,0,1-.5.514c-4.8,0-6.7-4.344-8.229-8.845A2.511,2.511,0,0,0-.017,21.68V.514A.509.509,0,0,1,.487,0Z" transform="translate(0.03 11.464)"/></g></g></svg>