<svg xmlns="http://www.w3.org/2000/svg" width="13.5" height="9" viewBox="0 0 13.5 9"><defs><style>.a{fill:#111136;}</style></defs><path class="a" d="M13.011,3.508,8.053.155a.847.847,0,0,0-.977,0,1.18,1.18,0,0,0-.489.991v2.5a1.023,1.023,0,0,0-.163-.138L1.466.155a.847.847,0,0,0-.977,0A1.18,1.18,0,0,0,0,1.147V7.853a1.18,1.18,0,0,0,.489.991A.869.869,0,0,0,.977,9a.868.868,0,0,0,.489-.155L6.424,5.491a1.016,1.016,0,0,0,.163-.138v2.5a1.18,1.18,0,0,0,.489.991.847.847,0,0,0,.977,0l4.958-3.353A1.18,1.18,0,0,0,13.5,4.5,1.18,1.18,0,0,0,13.011,3.508Z"/></svg>