<svg xmlns="http://www.w3.org/2000/svg" width="16" height="18" viewBox="0 0 16 18"><defs><style>.a{fill:#111136;}.b,.c{stroke:none;}.c{fill:#111136;}</style></defs><g class="a" transform="translate(16) rotate(90)"><path class="b" d="M 14.58030128479004 15.49999618530273 L 3.419690847396851 15.49999618530273 C 2.880920886993408 15.49999618530273 2.396870851516724 15.22233581542969 2.124881029129028 14.7572660446167 C 1.852880954742432 14.29219627380371 1.848190903663635 13.73418617248535 2.112330913543701 13.26460552215576 L 7.692640781402588 3.34406590461731 C 7.961950778961182 2.865295886993408 8.450680732727051 2.579465866088867 9.000000953674316 2.579465866088867 C 9.549321174621582 2.579465866088867 10.03805065155029 2.865295886993408 10.30736064910889 3.34406590461731 L 15.88767051696777 13.26460552215576 C 16.15181159973145 13.73418617248535 16.14712142944336 14.29218578338623 15.87512111663818 14.7572660446167 C 15.60313129425049 15.22233581542969 15.11908054351807 15.49999618530273 14.58030128479004 15.49999618530273 Z"/><path class="c" d="M 9.000000953674316 3.079455375671387 C 8.824151039123535 3.079455375671387 8.387210845947266 3.129125595092773 8.12843132019043 3.58919620513916 L 2.548120498657227 13.50973606109619 C 2.29430103302002 13.96097564697266 2.46941089630127 14.35596561431885 2.55648136138916 14.50484561920166 C 2.643550872802734 14.65371608734131 2.901961326599121 14.99999618530273 3.41969108581543 14.99999618530273 L 14.58030128479004 14.99999618530273 C 15.09803104400635 14.99999618530273 15.3564510345459 14.65371608734131 15.44352149963379 14.5048360824585 C 15.53059101104736 14.35596561431885 15.70570087432861 13.96097564697266 15.45187091827393 13.50973606109619 L 9.871581077575684 3.589205741882324 C 9.612780570983887 3.129125595092773 9.175841331481934 3.079455375671387 9.000000953674316 3.079455375671387 M 9.000000953674316 2.079461097717285 C 9.680423736572266 2.079461097717285 10.3608455657959 2.419285774230957 10.74315071105957 3.098936080932617 L 16.32345008850098 13.01947593688965 C 17.07339096069336 14.35268592834473 16.10996055603027 15.99999618530273 14.58030128479004 15.99999618530273 L 3.41969108581543 15.99999618530273 C 1.890041351318359 15.99999618530273 0.9266109466552734 14.35268592834473 1.676540374755859 13.01947593688965 L 7.256851196289062 3.098936080932617 C 7.639156341552734 2.419285774230957 8.319578170776367 2.079461097717285 9.000000953674316 2.079461097717285 Z"/></g></svg>