<svg xmlns="http://www.w3.org/2000/svg" width="18" height="12" viewBox="0 0 18 12"><defs><style>.a{fill:#111136;}</style></defs><path class="a" d="M17.349,4.678,10.738.207a1.129,1.129,0,0,0-1.3,0,1.574,1.574,0,0,0-.651,1.322V4.862a1.364,1.364,0,0,0-.218-.184L1.955.207a1.129,1.129,0,0,0-1.3,0A1.574,1.574,0,0,0,0,1.529v8.942a1.574,1.574,0,0,0,.651,1.322A1.158,1.158,0,0,0,1.3,12a1.158,1.158,0,0,0,.651-.207L8.565,7.322a1.354,1.354,0,0,0,.218-.184v3.333a1.574,1.574,0,0,0,.651,1.322,1.129,1.129,0,0,0,1.3,0l6.611-4.471A1.574,1.574,0,0,0,18,6,1.574,1.574,0,0,0,17.349,4.678Z" transform="translate(18 12) rotate(180)"/></svg>