<svg xmlns="http://www.w3.org/2000/svg" width="16" height="14" viewBox="0 0 16 14"><defs><style>.a{fill:#111136;}</style></defs><path class="a" d="M8.1,13.807a.656.656,0,0,1,0-.93l.851-.851H5.263A5.263,5.263,0,0,1,0,6.763,4.881,4.881,0,0,1,1.439,3.3a.658.658,0,0,1,.932.93,3.57,3.57,0,0,0-1.054,2.53A3.947,3.947,0,0,0,5.27,10.711H8.95L8.1,9.86A.658.658,0,1,1,9.03,8.93L11.007,10.9h0a.544.544,0,0,1,.043.048.223.223,0,0,1,.017.023.32.32,0,0,1,.021.028c.006.009.012.019.018.029s.011.017.015.026a.318.318,0,0,1,.014.031l.014.028.011.03.011.032.008.03c0,.011.005.022.007.032s0,.023.005.035a.276.276,0,0,1,0,.029.624.624,0,0,1,0,.13c0,.01,0,.019,0,.029s0,.023-.005.035a.213.213,0,0,1-.008.032c0,.01,0,.02-.007.03l-.011.032-.011.029-.014.029c0,.01-.009.02-.014.03s-.01.018-.015.027-.012.019-.018.029l-.021.028a.223.223,0,0,1-.017.023c-.014.017-.029.032-.043.048h0L9.03,13.807a.658.658,0,0,1-.931,0Zm5.53-3.11a.657.657,0,0,1,0-.931,3.566,3.566,0,0,0,1.054-2.529,3.947,3.947,0,0,0-3.954-3.947H7.05L7.9,4.14a.658.658,0,1,1-.931.93L4.993,3.1c-.015-.015-.03-.032-.044-.049a.223.223,0,0,1-.017-.023L4.911,3c-.006-.01-.012-.02-.018-.029s-.011-.018-.015-.027-.01-.02-.014-.03L4.85,2.883l-.011-.029-.011-.032-.008-.03c0-.011-.005-.022-.007-.032a.237.237,0,0,1-.005-.035c0-.01,0-.019,0-.029s0-.043,0-.064h0c0-.022,0-.043,0-.064s0-.02,0-.03A.244.244,0,0,1,4.813,2.5c0-.011,0-.022.007-.032l.008-.03.011-.032.011-.03.013-.029c0-.01.009-.02.014-.03s.01-.017.015-.026.012-.02.018-.029.013-.019.021-.029l.017-.023c.014-.016.029-.032.044-.048L6.97.192a.658.658,0,0,1,.931.931l-.851.851h3.687A5.264,5.264,0,0,1,16,7.237,4.88,4.88,0,0,1,14.561,10.7a.66.66,0,0,1-.932,0Z"/></svg>