<svg xmlns="http://www.w3.org/2000/svg" width="15" height="12.857" viewBox="0 0 15 12.857"><defs><style>.a{fill:#111136;}</style></defs><path class="a" d="M2.647,3.742H0V9.148H2.647l5,3.4s.92.7.92-.024V.257c0-.571-.81-.013-.81-.013Z" transform="translate(0 0)"/><path class="a" d="M.867.148a.51.51,0,0,0-.718,0,.5.5,0,0,0,0,.714,3.3,3.3,0,0,1,.979,2.349A3.313,3.313,0,0,1,.149,5.565a.506.506,0,0,0,.36.864.5.5,0,0,0,.358-.147,4.319,4.319,0,0,0,1.276-3.07A4.305,4.305,0,0,0,.867.148Z" transform="translate(9.643 3.214)"/><path class="a" d="M.994.165a.6.6,0,0,0-.825,0,.554.554,0,0,0,0,.8A6.08,6.08,0,0,1,2.052,5.348,6.111,6.111,0,0,1,.169,9.755a.553.553,0,0,0,0,.8.6.6,0,0,0,.825,0,7.234,7.234,0,0,0,2.22-5.2A7.206,7.206,0,0,0,.994.165Z" transform="translate(11.786 1.071)"/></svg>